SeanSlab-NarrowBold.ufo
<glyph name="exclam" format="1">
  <advance width="271"/>
  <unicode hex="0021"/>
  <outline>
    <contour>
      <point x="191" y="229" type="line"/>
      <point x="201" y="722" type="line"/>
      <point x="71" y="722" type="line"/>
      <point x="81" y="229" type="line"/>
    </contour>
    <contour>
      <point x="200" y="50" type="curve"/>
      <point x="200" y="90"/>
      <point x="173" y="110"/>
      <point x="135" y="110" type="curve"/>
      <point x="97" y="110"/>
      <point x="72" y="88"/>
      <point x="72" y="50" type="curve"/>
      <point x="199" y="50"/>
      <point x="73" y="50"/>
      <point x="200" y="50" type="curve"/>
      <point x="200" y="10"/>
      <point x="173" y="-8"/>
      <point x="135" y="-8" type="curve"/>
      <point x="96" y="-8"/>
      <point x="72" y="12"/>
      <point x="72" y="50" type="curve"/>
      <point x="199" y="50"/>
      <point x="73" y="50"/>
    </contour>
  </outline>
</glyph>
<glyph name="quotedbl" format="1">
  <advance width="438"/>
  <unicode hex="0022"/>
  <outline>
    <contour>
      <point x="177" y="609" type="line"/>
      <point x="185" y="824" type="line"/>
      <point x="62" y="824" type="line"/>
      <point x="71" y="609" type="line"/>
    </contour>
    <contour>
      <point x="368" y="609" type="line"/>
      <point x="376" y="824" type="line"/>
      <point x="253" y="824" type="line"/>
      <point x="262" y="609" type="line"/>
    </contour>
  </outline>
</glyph>
<glyph name="numbersign" format="1">
  <advance width="644"/>
  <unicode hex="0023"/>
  <outline>
    <contour>
      <point x="44" y="224" type="line"/>
      <point x="513" y="224" type="line"/>
      <point x="540" y="314" type="line"/>
      <point x="71" y="314" type="line"/>
    </contour>
    <contour>
      <point x="103" y="444" type="line"/>
      <point x="575" y="444" type="line"/>
      <point x="601" y="534" type="line"/>
      <point x="128" y="534" type="line"/>
    </contour>
    <contour>
      <point x="407" y="39" type="line"/>
      <point x="600" y="722" type="line"/>
      <point x="482" y="722" type="line"/>
      <point x="289" y="39" type="line"/>
    </contour>
    <contour>
      <point x="164" y="46" type="line"/>
      <point x="355" y="722" type="line"/>
      <point x="238" y="722" type="line"/>
      <point x="51" y="46" type="line"/>
    </contour>
  </outline>
</glyph>
<glyph name="dollar" format="1">
  <advance width="556"/>
  <unicode hex="0024"/>
  <outline>
    <contour>
      <point x="154" y="93" type="curve"/>
      <point x="154" y="213"/>
      <point x="154" y="99"/>
      <point x="154" y="219" type="curve"/>
      <point x="62" y="219"/>
      <point x="154" y="219"/>
      <point x="62" y="219" type="curve"/>
      <point x="62" y="99"/>
      <point x="62" y="213"/>
      <point x="62" y="93" type="curve"/>
      <point x="154" y="93"/>
      <point x="62" y="93"/>
    </contour>
    <contour>
      <point x="382" y="635" type="curve"/>
      <point x="382" y="515"/>
      <point x="382" y="629"/>
      <point x="382" y="509" type="curve"/>
      <point x="474" y="509"/>
      <point x="382" y="509"/>
      <point x="474" y="509" type="curve"/>
      <point x="474" y="629"/>
      <point x="474" y="515"/>
      <point x="474" y="635" type="curve"/>
      <point x="382" y="635"/>
      <point x="474" y="635"/>
    </contour>
    <contour>
      <point x="322" y="-41" type="curve"/>
      <point x="322" y="-11"/>
      <point x="322" y="57"/>
      <point x="322" y="88" type="curve"/>
      <point x="204" y="88"/>
      <point x="322" y="88"/>
      <point x="204" y="88" type="curve"/>
      <point x="204" y="57"/>
      <point x="204" y="-11"/>
      <point x="204" y="-41" type="curve"/>
      <point x="322" y="-41"/>
      <point x="204" y="-41"/>
    </contour>
    <contour>
      <point x="332" y="641" type="curve"/>
      <point x="332" y="672"/>
      <point x="332" y="742"/>
      <point x="332" y="773" type="curve"/>
      <point x="215" y="773"/>
      <point x="332" y="773"/>
      <point x="215" y="773" type="curve"/>
      <point x="215" y="742"/>
      <point x="215" y="672"/>
      <point x="215" y="641" type="curve"/>
      <point x="332" y="641"/>
      <point x="215" y="641"/>
    </contour>
    <contour>
      <point x="62" y="93" type="curve"/>
      <point x="116" y="66"/>
      <point x="182" y="43"/>
      <point x="258" y="43" type="curve"/>
      <point x="400" y="43"/>
      <point x="513" y="100"/>
      <point x="513" y="216" type="curve"/>
      <point x="513" y="318"/>
      <point x="417" y="367"/>
      <point x="310" y="414" type="curve"/>
      <point x="241" y="445"/>
      <point x="180" y="466"/>
      <point x="180" y="525" type="curve"/>
      <point x="180" y="571"/>
      <point x="220" y="597"/>
      <point x="276" y="597" type="curve"/>
      <point x="331" y="597"/>
      <point x="368" y="583"/>
      <point x="415" y="558" type="curve"/>
      <point x="474" y="635"/>
      <point x="415" y="558"/>
      <point x="474" y="635" type="curve"/>
      <point x="410" y="669"/>
      <point x="357" y="687"/>
      <point x="281" y="687" type="curve"/>
      <point x="155" y="687"/>
      <point x="62" y="630"/>
      <point x="62" y="525" type="curve"/>
      <point x="62" y="426"/>
      <point x="138" y="378"/>
      <point x="241" y="333" type="curve"/>
      <point x="316" y="301"/>
      <point x="395" y="277"/>
      <point x="395" y="212" type="curve"/>
      <point x="395" y="156"/>
      <point x="338" y="133"/>
      <point x="268" y="133" type="curve"/>
      <point x="213" y="133"/>
      <point x="166" y="154"/>
      <point x="126" y="173" type="curve"/>
      <point x="62" y="93"/>
      <point x="126" y="174"/>
    </contour>
  </outline>
</glyph>
<glyph name="percent" format="1">
  <advance width="1054"/>
  <unicode hex="0025"/>
  <outline>
    <contour>
      <point x="396" y="-48" type="line"/>
      <point x="776" y="718" type="line"/>
      <point x="668" y="718" type="line"/>
      <point x="288" y="-48" type="line"/>
    </contour>
    <contour>
      <point x="140" y="506" type="curve"/>
      <point x="140" y="581"/>
      <point x="164" y="638"/>
      <point x="232" y="638" type="curve"/>
      <point x="301" y="639"/>
      <point x="326" y="581"/>
      <point x="326" y="504" type="curve"/>
      <point x="326" y="429"/>
      <point x="306" y="369"/>
      <point x="238" y="369" type="curve"/>
      <point x="167" y="369"/>
      <point x="140" y="428"/>
      <point x="140" y="506" type="curve"/>
      <point x="102" y="506"/>
      <point x="76" y="506"/>
      <point x="38" y="506" type="curve"/>
      <point x="38" y="374"/>
      <point x="106" y="285"/>
      <point x="233" y="285" type="curve"/>
      <point x="362" y="285"/>
      <point x="433" y="375"/>
      <point x="433" y="509" type="curve"/>
      <point x="433" y="638"/>
      <point x="363" y="722"/>
      <point x="237" y="722" type="curve"/>
      <point x="109" y="722"/>
      <point x="38" y="636"/>
      <point x="38" y="506" type="curve"/>
      <point x="76" y="506"/>
      <point x="102" y="506"/>
    </contour>
    <contour>
      <point x="723" y="169" type="curve"/>
      <point x="723" y="244"/>
      <point x="747" y="301"/>
      <point x="815" y="301" type="curve"/>
      <point x="884" y="302"/>
      <point x="909" y="244"/>
      <point x="909" y="168" type="curve"/>
      <point x="909" y="92"/>
      <point x="889" y="32"/>
      <point x="822" y="32" type="curve"/>
      <point x="750" y="32"/>
      <point x="723" y="91"/>
      <point x="723" y="169" type="curve"/>
      <point x="685" y="169"/>
      <point x="659" y="169"/>
      <point x="621" y="169" type="curve"/>
      <point x="621" y="37"/>
      <point x="689" y="-51"/>
      <point x="816" y="-51" type="curve"/>
      <point x="946" y="-51"/>
      <point x="1016" y="38"/>
      <point x="1016" y="172" type="curve"/>
      <point x="1016" y="301"/>
      <point x="946" y="385"/>
      <point x="820" y="385" type="curve"/>
      <point x="693" y="385"/>
      <point x="621" y="300"/>
      <point x="621" y="169" type="curve"/>
      <point x="659" y="169"/>
      <point x="685" y="169"/>
    </contour>
  </outline>
</glyph>
<glyph name="ampersand" format="1">
  <advance width="662"/>
  <unicode hex="0026"/>
  <outline>
    <contour>
      <point x="639" y="44" type="line"/>
      <point x="547" y="143"/>
      <point x="443" y="268"/>
      <point x="347" y="371" type="curve"/>
      <point x="296" y="430"/>
      <point x="227" y="475"/>
      <point x="227" y="555" type="curve"/>
      <point x="227" y="600"/>
      <point x="246" y="637"/>
      <point x="287" y="637" type="curve"/>
      <point x="332" y="637"/>
      <point x="356" y="605"/>
      <point x="356" y="557" type="curve"/>
      <point x="355" y="486"/>
      <point x="305" y="450"/>
      <point x="242" y="413" type="curve"/>
      <point x="144" y="354"/>
      <point x="55" y="307"/>
      <point x="55" y="195" type="curve"/>
      <point x="55" y="69"/>
      <point x="150" y="-5"/>
      <point x="281" y="-5" type="curve"/>
      <point x="466" y="-5"/>
      <point x="563" y="130"/>
      <point x="619" y="313" type="curve"/>
      <point x="518" y="336"/>
      <point x="619" y="313"/>
      <point x="518" y="336" type="curve"/>
      <point x="475" y="199"/>
      <point x="421" y="86"/>
      <point x="287" y="86" type="curve"/>
      <point x="218" y="86"/>
      <point x="173" y="126"/>
      <point x="173" y="195" type="curve"/>
      <point x="173" y="269"/>
      <point x="227" y="302"/>
      <point x="291" y="340" type="curve"/>
      <point x="387" y="398"/>
      <point x="472" y="448"/>
      <point x="473" y="558" type="curve"/>
      <point x="473" y="663"/>
      <point x="398" y="727"/>
      <point x="292" y="727" type="curve"/>
      <point x="186" y="727"/>
      <point x="116" y="660"/>
      <point x="116" y="555" type="curve"/>
      <point x="116" y="452"/>
      <point x="195" y="392"/>
      <point x="265" y="317" type="curve"/>
      <point x="356" y="216"/>
      <point x="473" y="81"/>
      <point x="561" y="-16" type="curve"/>
    </contour>
  </outline>
</glyph>
<glyph name="quotesingle" format="1">
  <advance width="247"/>
  <unicode hex="0027"/>
  <outline>
    <contour>
      <point x="177" y="609" type="line"/>
      <point x="185" y="824" type="line"/>
      <point x="62" y="824" type="line"/>
      <point x="71" y="609" type="line"/>
    </contour>
  </outline>
</glyph>
<glyph name="parenleft" format="1">
  <advance width="360"/>
  <unicode hex="0028"/>
  <outline>
    <contour>
      <point x="354" y="-212" type="curve"/>
      <point x="210" y="-48"/>
      <point x="159" y="106"/>
      <point x="159" y="326" type="curve"/>
      <point x="159" y="546"/>
      <point x="211" y="700"/>
      <point x="353" y="867" type="curve"/>
      <point x="283" y="925"/>
      <point x="353" y="867"/>
      <point x="283" y="925" type="curve"/>
      <point x="120" y="740"/>
      <point x="44" y="575"/>
      <point x="44" y="326" type="curve"/>
      <point x="44" y="76"/>
      <point x="120" y="-89"/>
      <point x="284" y="-275" type="curve"/>
      <point x="354" y="-212"/>
      <point x="284" y="-275"/>
    </contour>
  </outline>
</glyph>
<glyph name="parenright" format="1">
  <advance width="365"/>
  <unicode hex="0029"/>
  <outline>
    <contour>
      <point x="69" y="-289" type="curve"/>
      <point x="235" y="-95"/>
      <point x="322" y="71"/>
      <point x="322" y="329" type="curve"/>
      <point x="322" y="580"/>
      <point x="242" y="744"/>
      <point x="73" y="927" type="curve"/>
      <point x="3" y="864"/>
      <point x="73" y="927"/>
      <point x="3" y="864" type="curve"/>
      <point x="150" y="699"/>
      <point x="206" y="546"/>
      <point x="206" y="324" type="curve"/>
      <point x="206" y="98"/>
      <point x="142" y="-56"/>
      <point x="-1" y="-230" type="curve"/>
      <point x="69" y="-289"/>
      <point x="-1" y="-230"/>
    </contour>
  </outline>
</glyph>
<glyph name="asterisk" format="1">
  <advance width="558"/>
  <unicode hex="002A"/>
  <outline>
    <contour>
      <point x="317" y="560" type="line"/>
      <point x="323" y="774" type="line"/>
      <point x="235" y="774" type="line"/>
      <point x="241" y="560" type="line"/>
    </contour>
    <contour>
      <point x="299" y="519" type="line"/>
      <point x="504" y="585" type="line"/>
      <point x="473" y="668" type="line"/>
      <point x="274" y="590" type="line"/>
    </contour>
    <contour>
      <point x="255" y="521" type="line"/>
      <point x="386" y="351" type="line"/>
      <point x="454" y="408" type="line"/>
      <point x="314" y="569" type="line"/>
    </contour>
    <contour>
      <point x="246" y="569" type="line"/>
      <point x="106" y="407" type="line"/>
      <point x="173" y="351" type="line"/>
      <point x="304" y="521" type="line"/>
    </contour>
    <contour>
      <point x="284" y="589" type="line"/>
      <point x="85" y="666" type="line"/>
      <point x="54" y="584" type="line"/>
      <point x="259" y="518" type="line"/>
    </contour>
  </outline>
</glyph>
<glyph name="plus" format="1">
  <advance width="633"/>
  <unicode hex="002B"/>
  <outline>
    <contour>
      <point x="44" y="264" type="curve"/>
      <point x="589" y="264" type="line"/>
      <point x="589" y="363"/>
      <point x="589" y="264"/>
      <point x="589" y="363" type="curve"/>
      <point x="44" y="363" type="line"/>
      <point x="44" y="264"/>
      <point x="44" y="363"/>
    </contour>
    <contour>
      <point x="372" y="40" type="curve"/>
      <point x="372" y="582" type="line"/>
      <point x="255" y="582"/>
      <point x="380" y="582"/>
      <point x="262" y="582" type="curve"/>
      <point x="262" y="40" type="line"/>
      <point x="380" y="40"/>
      <point x="255" y="40"/>
    </contour>
  </outline>
</glyph>
<glyph name="hyphen" format="1">
  <advance width="402"/>
  <unicode hex="002D"/>
  <outline>
    <contour>
      <point x="71" y="231" type="curve"/>
      <point x="158" y="231"/>
      <point x="244" y="231"/>
      <point x="331" y="231" type="curve"/>
      <point x="331" y="330"/>
      <point x="331" y="231"/>
      <point x="331" y="330" type="curve"/>
      <point x="244" y="330"/>
      <point x="158" y="330"/>
      <point x="71" y="330" type="curve"/>
      <point x="71" y="231"/>
      <point x="71" y="330"/>
    </contour>
  </outline>
</glyph>
<glyph name="period" format="1">
  <advance width="261"/>
  <unicode hex="002E"/>
  <outline>
    <contour>
      <point x="195" y="50" type="curve"/>
      <point x="195" y="90"/>
      <point x="167" y="110"/>
      <point x="129" y="110" type="curve"/>
      <point x="91" y="110"/>
      <point x="66" y="88"/>
      <point x="66" y="50" type="curve"/>
      <point x="193" y="50"/>
      <point x="67" y="50"/>
      <point x="195" y="50" type="curve"/>
      <point x="195" y="10"/>
      <point x="168" y="-8"/>
      <point x="129" y="-8" type="curve"/>
      <point x="90" y="-8"/>
      <point x="66" y="12"/>
      <point x="66" y="50" type="curve"/>
      <point x="193" y="50"/>
      <point x="67" y="50"/>
    </contour>
  </outline>
</glyph>
<glyph name="slash" format="1">
  <advance width="553"/>
  <unicode hex="002F"/>
  <outline>
    <contour>
      <point x="146" y="-25" type="curve"/>
      <point x="272" y="248"/>
      <point x="398" y="522"/>
      <point x="525" y="796" type="curve"/>
      <point x="407" y="796"/>
      <point x="525" y="796"/>
      <point x="407" y="796" type="curve"/>
      <point x="281" y="522"/>
      <point x="154" y="248"/>
      <point x="28" y="-25" type="curve"/>
      <point x="146" y="-25"/>
      <point x="28" y="-25"/>
    </contour>
  </outline>
</glyph>
<glyph name="zero" format="1">
  <advance width="704"/>
  <unicode hex="0030"/>
  <outline>
    <contour>
      <point x="172" y="360" type="curve"/>
      <point x="172" y="515"/>
      <point x="210" y="633"/>
      <point x="349" y="633" type="curve"/>
      <point x="488" y="633"/>
      <point x="532" y="517"/>
      <point x="532" y="363" type="curve"/>
      <point x="532" y="208"/>
      <point x="494" y="90"/>
      <point x="358" y="90" type="curve"/>
      <point x="219" y="90"/>
      <point x="172" y="205"/>
      <point x="172" y="360" type="curve"/>
      <point x="57" y="360"/>
      <point x="172" y="360"/>
      <point x="57" y="360" type="curve"/>
      <point x="57" y="144"/>
      <point x="149" y="-5"/>
      <point x="352" y="-5" type="curve"/>
      <point x="557" y="-5"/>
      <point x="647" y="145"/>
      <point x="647" y="363" type="curve"/>
      <point x="647" y="578"/>
      <point x="559" y="727"/>
      <point x="359" y="727" type="curve"/>
      <point x="153" y="727"/>
      <point x="57" y="578"/>
      <point x="57" y="360" type="curve"/>
      <point x="172" y="360"/>
      <point x="57" y="360"/>
    </contour>
  </outline>
</glyph>
<glyph name="one" format="1">
  <advance width="446"/>
  <unicode hex="0031"/>
  <outline>
    <contour>
      <point x="262" y="0" type="curve"/>
      <point x="311" y="0"/>
      <point x="359" y="0"/>
      <point x="409" y="0" type="curve"/>
      <point x="409" y="90"/>
      <point x="409" y="0"/>
      <point x="409" y="90" type="curve"/>
      <point x="262" y="90"/>
      <point x="409" y="90"/>
      <point x="262" y="90" type="curve"/>
      <point x="262" y="0"/>
      <point x="262" y="90"/>
    </contour>
    <contour>
      <point x="262" y="90" type="curve"/>
      <point x="114" y="90"/>
      <point x="262" y="90"/>
      <point x="114" y="90" type="curve"/>
      <point x="114" y="0"/>
      <point x="114" y="90"/>
      <point x="114" y="0" type="curve"/>
      <point x="163" y="0"/>
      <point x="213" y="0"/>
      <point x="262" y="0" type="curve"/>
      <point x="262" y="90"/>
      <point x="262" y="0"/>
    </contour>
    <contour>
      <point x="89" y="488" type="curve"/>
      <point x="288" y="663"/>
      <point x="89" y="488"/>
      <point x="288" y="663" type="curve"/>
      <point x="202" y="722"/>
      <point x="288" y="663"/>
      <point x="202" y="722" type="curve"/>
      <point x="24" y="564"/>
      <point x="202" y="722"/>
      <point x="24" y="564" type="curve"/>
      <point x="89" y="488"/>
      <point x="24" y="564"/>
    </contour>
    <contour>
      <point x="319" y="0" type="curve"/>
      <point x="319" y="241"/>
      <point x="319" y="481"/>
      <point x="319" y="722" type="curve"/>
      <point x="202" y="722"/>
      <point x="319" y="722"/>
      <point x="202" y="722" type="curve"/>
      <point x="202" y="481"/>
      <point x="202" y="241"/>
      <point x="202" y="0" type="curve"/>
      <point x="319" y="0"/>
      <point x="202" y="0"/>
    </contour>
  </outline>
</glyph>
<glyph name="two" format="1">
  <advance width="585"/>
  <unicode hex="0032"/>
  <outline>
    <contour>
      <point x="523" y="90" type="curve"/>
      <point x="523" y="197"/>
      <point x="523" y="81"/>
      <point x="523" y="188" type="curve"/>
      <point x="431" y="188"/>
      <point x="523" y="188"/>
      <point x="431" y="188" type="curve"/>
      <point x="431" y="81"/>
      <point x="431" y="197"/>
      <point x="431" y="90" type="curve"/>
      <point x="523" y="90"/>
      <point x="431" y="90"/>
    </contour>
    <contour>
      <point x="49" y="0" type="curve"/>
      <point x="235" y="0"/>
      <point x="394" y="0"/>
      <point x="523" y="0" type="curve"/>
      <point x="523" y="90"/>
      <point x="523" y="0"/>
      <point x="523" y="90" type="curve"/>
      <point x="375" y="90"/>
      <point x="199" y="90"/>
      <point x="49" y="90" type="curve"/>
      <point x="49" y="0"/>
      <point x="49" y="90"/>
    </contour>
    <contour>
      <point x="134" y="526" type="curve"/>
      <point x="175" y="588"/>
      <point x="206" y="633"/>
      <point x="274" y="633" type="curve"/>
      <point x="345" y="633"/>
      <point x="379" y="585"/>
      <point x="379" y="508" type="curve"/>
      <point x="379" y="407"/>
      <point x="316" y="337"/>
      <point x="245" y="273" type="curve"/>
      <point x="180" y="211"/>
      <point x="117" y="153"/>
      <point x="49" y="90" type="curve"/>
      <point x="52" y="0"/>
      <point x="49" y="90"/>
      <point x="52" y="0" type="curve"/>
      <point x="177" y="61"/>
      <point x="247" y="136"/>
      <point x="319" y="205" type="curve"/>
      <point x="414" y="291"/>
      <point x="488" y="374"/>
      <point x="488" y="512" type="curve"/>
      <point x="488" y="649"/>
      <point x="412" y="727"/>
      <point x="279" y="727" type="curve"/>
      <point x="171" y="727"/>
      <point x="99" y="670"/>
      <point x="53" y="575" type="curve"/>
      <point x="134" y="526"/>
      <point x="53" y="575"/>
    </contour>
  </outline>
</glyph>
<glyph name="three" format="1">
  <advance width="532"/>
  <unicode hex="0033"/>
  <outline>
    <contour>
      <point x="45" y="58" type="curve"/>
      <point x="99" y="20"/>
      <point x="154" y="-5"/>
      <point x="228" y="-5" type="curve"/>
      <point x="378" y="-5"/>
      <point x="477" y="62"/>
      <point x="477" y="209" type="curve"/>
      <point x="477" y="340"/>
      <point x="345" y="406"/>
      <point x="153" y="406" type="curve"/>
      <point x="153" y="332"/>
      <point x="153" y="404"/>
      <point x="153" y="330" type="curve"/>
      <point x="268" y="330"/>
      <point x="364" y="287"/>
      <point x="364" y="205" type="curve"/>
      <point x="364" y="125"/>
      <point x="305" y="90"/>
      <point x="232" y="90" type="curve"/>
      <point x="188" y="90"/>
      <point x="148" y="104"/>
      <point x="105" y="129" type="curve"/>
      <point x="45" y="58"/>
      <point x="105" y="129"/>
    </contour>
    <contour>
      <point x="117" y="576" type="curve"/>
      <point x="139" y="602"/>
      <point x="179" y="633"/>
      <point x="225" y="633" type="curve"/>
      <point x="293" y="633"/>
      <point x="335" y="600"/>
      <point x="335" y="531" type="curve"/>
      <point x="335" y="459"/>
      <point x="255" y="420"/>
      <point x="153" y="420" type="curve"/>
      <point x="153" y="346"/>
      <point x="153" y="418"/>
      <point x="153" y="344" type="curve"/>
      <point x="320" y="344"/>
      <point x="446" y="407"/>
      <point x="446" y="534" type="curve"/>
      <point x="446" y="661"/>
      <point x="363" y="727"/>
      <point x="235" y="727" type="curve"/>
      <point x="153" y="727"/>
      <point x="82" y="685"/>
      <point x="47" y="637" type="curve"/>
      <point x="117" y="576"/>
      <point x="47" y="637"/>
    </contour>
  </outline>
</glyph>
<glyph name="four" format="1">
  <advance width="579"/>
  <unicode hex="0034"/>
  <outline>
    <contour>
      <point x="364" y="90" type="line"/>
      <point x="232" y="90" type="line"/>
      <point x="232" y="0" type="line"/>
      <point x="364" y="0" type="line"/>
    </contour>
    <contour>
      <point x="364" y="0" type="line"/>
      <point x="496" y="0" type="line"/>
      <point x="496" y="90" type="line"/>
      <point x="364" y="90" type="line"/>
    </contour>
    <contour>
      <point x="79" y="252" type="line"/>
      <point x="402" y="689" type="line"/>
      <point x="306" y="702" type="line"/>
      <point x="32" y="334" type="line"/>
    </contour>
    <contour>
      <point x="540" y="334" type="line"/>
      <point x="32" y="334" type="line"/>
      <point x="33" y="235" type="line"/>
      <point x="540" y="235" type="line"/>
    </contour>
    <contour>
      <point x="424" y="36" type="line"/>
      <point x="424" y="702" type="line"/>
      <point x="308" y="702" type="line"/>
      <point x="308" y="36" type="line"/>
    </contour>
  </outline>
</glyph>
<glyph name="five" format="1">
  <advance width="524"/>
  <unicode hex="0035"/>
  <outline>
    <contour>
      <point x="72" y="722" type="curve"/>
      <point x="72" y="624"/>
      <point x="72" y="516"/>
      <point x="72" y="383" type="curve"/>
      <point x="184" y="350"/>
      <point x="72" y="383"/>
      <point x="184" y="350" type="curve"/>
      <point x="184" y="441"/>
      <point x="184" y="541"/>
      <point x="184" y="632" type="curve"/>
      <point x="72" y="722"/>
      <point x="184" y="632"/>
    </contour>
    <contour>
      <point x="184" y="350" type="curve"/>
      <point x="199" y="366"/>
      <point x="226" y="379"/>
      <point x="251" y="379" type="curve"/>
      <point x="325" y="379"/>
      <point x="357" y="321"/>
      <point x="357" y="239" type="curve"/>
      <point x="357" y="155"/>
      <point x="309" y="89"/>
      <point x="229" y="89" type="curve"/>
      <point x="182" y="89"/>
      <point x="148" y="100"/>
      <point x="104" y="124" type="curve"/>
      <point x="48" y="43"/>
      <point x="104" y="124"/>
      <point x="48" y="43" type="curve"/>
      <point x="105" y="11"/>
      <point x="157" y="-5"/>
      <point x="223" y="-5" type="curve"/>
      <point x="369" y="-5"/>
      <point x="474" y="93"/>
      <point x="474" y="238" type="curve"/>
      <point x="474" y="377"/>
      <point x="397" y="475"/>
      <point x="265" y="475" type="curve"/>
      <point x="199" y="475"/>
      <point x="130" y="454"/>
      <point x="72" y="384" type="curve"/>
      <point x="184" y="350"/>
      <point x="72" y="384"/>
    </contour>
    <contour>
      <point x="446" y="722" type="curve"/>
      <point x="324" y="722"/>
      <point x="189" y="722"/>
      <point x="72" y="722" type="curve"/>
      <point x="184" y="632"/>
      <point x="72" y="722"/>
      <point x="184" y="632" type="curve"/>
      <point x="264" y="632"/>
      <point x="361" y="632"/>
      <point x="446" y="632" type="curve"/>
      <point x="446" y="722"/>
      <point x="446" y="632"/>
    </contour>
  </outline>
</glyph>
<glyph name="six" format="1">
  <advance width="585"/>
  <unicode hex="0036"/>
  <outline>
    <contour>
      <point x="148" y="217" type="curve"/>
      <point x="175" y="293"/>
      <point x="223" y="347"/>
      <point x="302" y="347" type="curve"/>
      <point x="378" y="347"/>
      <point x="414" y="298"/>
      <point x="414" y="220" type="curve"/>
      <point x="414" y="147"/>
      <point x="376" y="96"/>
      <point x="304" y="96" type="curve"/>
      <point x="212" y="96"/>
      <point x="165" y="159"/>
      <point x="165" y="256" type="curve"/>
      <point x="165" y="466"/>
      <point x="299" y="578"/>
      <point x="509" y="644" type="curve"/>
      <point x="479" y="729"/>
      <point x="509" y="644"/>
      <point x="479" y="729" type="curve"/>
      <point x="229" y="656"/>
      <point x="52" y="516"/>
      <point x="52" y="251" type="curve"/>
      <point x="52" y="90"/>
      <point x="144" y="-10"/>
      <point x="302" y="-10" type="curve"/>
      <point x="446" y="-10"/>
      <point x="532" y="77"/>
      <point x="532" y="221" type="curve"/>
      <point x="532" y="360"/>
      <point x="451" y="441"/>
      <point x="319" y="441" type="curve"/>
      <point x="190" y="441"/>
      <point x="111" y="338"/>
      <point x="85" y="247" type="curve"/>
      <point x="148" y="217"/>
      <point x="85" y="247"/>
    </contour>
  </outline>
</glyph>
<glyph name="seven" format="1">
  <advance width="523"/>
  <unicode hex="0037"/>
  <outline>
    <contour>
      <point x="149" y="536" type="line"/>
      <point x="149" y="636" type="line"/>
      <point x="57" y="636" type="line"/>
      <point x="57" y="536" type="line"/>
    </contour>
    <contour>
      <point x="57" y="632" type="line"/>
      <point x="503" y="632" type="line"/>
      <point x="503" y="722" type="line"/>
      <point x="57" y="722" type="line"/>
    </contour>
    <contour>
      <point x="435" y="722" type="line"/>
      <point x="66" y="0" type="line"/>
      <point x="189" y="0" type="line"/>
      <point x="503" y="632" type="line"/>
    </contour>
  </outline>
</glyph>
<glyph name="nine" format="1">
  <advance width="585"/>
  <unicode hex="0039"/>
  <outline>
    <contour>
      <point x="443" y="483" type="curve"/>
      <point x="411" y="411"/>
      <point x="367" y="375"/>
      <point x="289" y="375" type="curve"/>
      <point x="211" y="375"/>
      <point x="167" y="426"/>
      <point x="167" y="506" type="curve"/>
      <point x="167" y="579"/>
      <point x="208" y="625"/>
      <point x="279" y="625" type="curve"/>
      <point x="372" y="625"/>
      <point x="420" y="563"/>
      <point x="420" y="466" type="curve"/>
      <point x="420" y="256"/>
      <point x="292" y="144"/>
      <point x="83" y="78" type="curve"/>
      <point x="123" y="-13"/>
      <point x="83" y="78"/>
      <point x="123" y="-13" type="curve"/>
      <point x="362" y="57"/>
      <point x="532" y="206"/>
      <point x="532" y="471" type="curve"/>
      <point x="532" y="632"/>
      <point x="442" y="732"/>
      <point x="283" y="732" type="curve"/>
      <point x="139" y="732"/>
      <point x="53" y="645"/>
      <point x="53" y="501" type="curve"/>
      <point x="53" y="362"/>
      <point x="139" y="281"/>
      <point x="278" y="281" type="curve"/>
      <point x="398" y="281"/>
      <point x="463" y="366"/>
      <point x="499" y="458" type="curve"/>
      <point x="443" y="483"/>
      <point x="499" y="458"/>
    </contour>
  </outline>
</glyph>
<glyph name="colon" format="1">
  <advance width="273"/>
  <unicode hex="003A"/>
  <outline>
    <contour>
      <point x="201" y="350" type="curve"/>
      <point x="201" y="390"/>
      <point x="173" y="410"/>
      <point x="135" y="410" type="curve"/>
      <point x="97" y="410"/>
      <point x="72" y="388"/>
      <point x="72" y="350" type="curve"/>
      <point x="199" y="350"/>
      <point x="74" y="350"/>
      <point x="201" y="350" type="curve"/>
      <point x="201" y="310"/>
      <point x="174" y="292"/>
      <point x="135" y="292" type="curve"/>
      <point x="97" y="292"/>
      <point x="72" y="311"/>
      <point x="72" y="350" type="curve"/>
      <point x="199" y="350"/>
      <point x="74" y="350"/>
    </contour>
    <contour>
      <point x="201" y="80" type="curve"/>
      <point x="201" y="120"/>
      <point x="173" y="139"/>
      <point x="135" y="139" type="curve"/>
      <point x="97" y="139"/>
      <point x="72" y="118"/>
      <point x="72" y="80" type="curve"/>
      <point x="199" y="80"/>
      <point x="73" y="80"/>
      <point x="201" y="80" type="curve"/>
      <point x="201" y="39"/>
      <point x="173" y="21"/>
      <point x="135" y="21" type="curve"/>
      <point x="96" y="21"/>
      <point x="72" y="41"/>
      <point x="72" y="80" type="curve"/>
      <point x="199" y="80"/>
      <point x="73" y="80"/>
    </contour>
  </outline>
</glyph>
<glyph name="semicolon" format="1">
  <advance width="296"/>
  <unicode hex="003B"/>
  <outline>
    <contour>
      <point x="69" y="-179" type="line"/>
      <point x="165" y="-179"/>
      <point x="224" y="-113"/>
      <point x="224" y="-21" type="curve"/>
      <point x="224" y="52"/>
      <point x="194" y="97"/>
      <point x="147" y="97" type="curve"/>
      <point x="106" y="97"/>
      <point x="79" y="76"/>
      <point x="79" y="37" type="curve"/>
      <point x="79" y="3"/>
      <point x="101" y="-20"/>
      <point x="139" y="-22" type="curve"/>
      <point x="139" y="-52"/>
      <point x="134" y="-105"/>
      <point x="69" y="-113" type="curve"/>
    </contour>
    <contour>
      <point x="211" y="388" type="curve"/>
      <point x="211" y="428"/>
      <point x="183" y="448"/>
      <point x="145" y="448" type="curve"/>
      <point x="107" y="448"/>
      <point x="82" y="426"/>
      <point x="82" y="388" type="curve"/>
      <point x="209" y="388"/>
      <point x="83" y="388"/>
      <point x="211" y="388" type="curve"/>
      <point x="211" y="348"/>
      <point x="184" y="330"/>
      <point x="145" y="330" type="curve"/>
      <point x="106" y="330"/>
      <point x="82" y="350"/>
      <point x="82" y="388" type="curve"/>
      <point x="209" y="388"/>
      <point x="83" y="388"/>
    </contour>
  </outline>
</glyph>
<glyph name="less" format="1">
  <advance width="649"/>
  <unicode hex="003C"/>
  <outline>
    <contour>
      <point x="579" y="620" type="curve"/>
      <point x="399" y="530"/>
      <point x="218" y="440"/>
      <point x="38" y="350" type="curve"/>
      <point x="38" y="250"/>
      <point x="38" y="350"/>
      <point x="38" y="250" type="curve"/>
      <point x="218" y="340"/>
      <point x="399" y="430"/>
      <point x="579" y="520" type="curve"/>
      <point x="579" y="620"/>
      <point x="579" y="520"/>
    </contour>
    <contour>
      <point x="588" y="86" type="curve"/>
      <point x="405" y="174"/>
      <point x="221" y="262"/>
      <point x="38" y="350" type="curve"/>
      <point x="38" y="250"/>
      <point x="38" y="350"/>
      <point x="38" y="250" type="curve"/>
      <point x="221" y="162"/>
      <point x="405" y="74"/>
      <point x="588" y="-14" type="curve"/>
      <point x="588" y="86"/>
      <point x="588" y="-14"/>
    </contour>
  </outline>
</glyph>
<glyph name="equal" format="1">
  <advance width="711"/>
  <unicode hex="003D"/>
  <outline>
    <contour>
      <point x="76" y="170" type="curve"/>
      <point x="262" y="170"/>
      <point x="449" y="170"/>
      <point x="635" y="170" type="curve"/>
      <point x="635" y="265"/>
      <point x="635" y="170"/>
      <point x="635" y="265" type="curve"/>
      <point x="449" y="265"/>
      <point x="262" y="265"/>
      <point x="76" y="265" type="curve"/>
      <point x="76" y="170"/>
      <point x="76" y="265"/>
    </contour>
    <contour>
      <point x="76" y="392" type="curve"/>
      <point x="262" y="392"/>
      <point x="449" y="392"/>
      <point x="635" y="392" type="curve"/>
      <point x="635" y="487"/>
      <point x="635" y="392"/>
      <point x="635" y="487" type="curve"/>
      <point x="449" y="487"/>
      <point x="262" y="487"/>
      <point x="76" y="487" type="curve"/>
      <point x="76" y="392"/>
      <point x="76" y="487"/>
    </contour>
  </outline>
</glyph>
<glyph name="greater" format="1">
  <advance width="651"/>
  <unicode hex="003E"/>
  <outline>
    <contour>
      <point x="70" y="-14" type="curve"/>
      <point x="251" y="76"/>
      <point x="432" y="166"/>
      <point x="613" y="256" type="curve"/>
      <point x="613" y="356"/>
      <point x="613" y="256"/>
      <point x="613" y="356" type="curve"/>
      <point x="432" y="266"/>
      <point x="251" y="176"/>
      <point x="70" y="86" type="curve"/>
      <point x="70" y="-14"/>
      <point x="70" y="86"/>
    </contour>
    <contour>
      <point x="62" y="520" type="curve"/>
      <point x="245" y="432"/>
      <point x="429" y="344"/>
      <point x="613" y="256" type="curve"/>
      <point x="613" y="356"/>
      <point x="613" y="256"/>
      <point x="613" y="356" type="curve"/>
      <point x="429" y="444"/>
      <point x="245" y="532"/>
      <point x="62" y="620" type="curve"/>
      <point x="62" y="520"/>
      <point x="62" y="620"/>
    </contour>
  </outline>
</glyph>
<glyph name="question" format="1">
  <advance width="513"/>
  <unicode hex="003F"/>
  <outline>
    <contour>
      <point x="181" y="370" type="curve"/>
      <point x="181" y="333"/>
      <point x="181" y="258"/>
      <point x="181" y="221" type="curve"/>
      <point x="291" y="221"/>
      <point x="181" y="221"/>
      <point x="291" y="221" type="curve"/>
      <point x="291" y="258"/>
      <point x="291" y="333"/>
      <point x="291" y="370" type="curve"/>
      <point x="181" y="370"/>
      <point x="291" y="370"/>
    </contour>
    <contour>
      <point x="102" y="587" type="line"/>
      <point x="135" y="622"/>
      <point x="174" y="647"/>
      <point x="228" y="647" type="curve"/>
      <point x="305" y="647"/>
      <point x="351" y="597"/>
      <point x="351" y="518" type="curve"/>
      <point x="351" y="427"/>
      <point x="290" y="370"/>
      <point x="193" y="370" type="curve"/>
      <point x="193" y="335"/>
      <point x="193" y="317"/>
      <point x="193" y="282" type="curve"/>
      <point x="355" y="282"/>
      <point x="464" y="370"/>
      <point x="464" y="518" type="curve"/>
      <point x="464" y="659"/>
      <point x="370" y="743"/>
      <point x="233" y="743" type="curve"/>
      <point x="150" y="743"/>
      <point x="89" y="714"/>
      <point x="40" y="659" type="curve"/>
    </contour>
    <contour>
      <point x="301" y="41" type="curve"/>
      <point x="301" y="81"/>
      <point x="274" y="100"/>
      <point x="236" y="100" type="curve"/>
      <point x="198" y="100"/>
      <point x="173" y="79"/>
      <point x="173" y="41" type="curve"/>
      <point x="301" y="41"/>
      <point x="173" y="41"/>
      <point x="301" y="41" type="curve"/>
      <point x="301" y="1"/>
      <point x="274" y="-17"/>
      <point x="236" y="-17" type="curve"/>
      <point x="197" y="-17"/>
      <point x="173" y="2"/>
      <point x="173" y="41" type="curve"/>
      <point x="301" y="41"/>
      <point x="173" y="41"/>
    </contour>
  </outline>
</glyph>
<glyph name="at" format="1">
  <advance width="807"/>
  <unicode hex="0040"/>
  <outline>
    <contour>
      <point x="538" y="-24" type="curve"/>
      <point x="497" y="-46"/>
      <point x="465" y="-54"/>
      <point x="418" y="-54" type="curve"/>
      <point x="256" y="-54"/>
      <point x="157" y="45"/>
      <point x="157" y="210" type="curve"/>
      <point x="157" y="369"/>
      <point x="253" y="465"/>
      <point x="410" y="465" type="curve"/>
      <point x="559" y="465"/>
      <point x="649" y="367"/>
      <point x="649" y="213" type="curve"/>
      <point x="649" y="158"/>
      <point x="646" y="110"/>
      <point x="615" y="110" type="curve"/>
      <point x="582" y="110"/>
      <point x="577" y="156"/>
      <point x="577" y="214" type="curve"/>
      <point x="577" y="329"/>
      <point x="515" y="404"/>
      <point x="403" y="404" type="curve"/>
      <point x="282" y="404"/>
      <point x="221" y="332"/>
      <point x="221" y="212" type="curve"/>
      <point x="221" y="89"/>
      <point x="276" y="12"/>
      <point x="393" y="12" type="curve"/>
      <point x="497" y="12"/>
      <point x="544" y="86"/>
      <point x="560" y="197" type="curve"/>
      <point x="486" y="214"/>
      <point x="560" y="197"/>
      <point x="486" y="214" type="curve"/>
      <point x="472" y="154"/>
      <point x="463" y="102"/>
      <point x="406" y="102" type="curve"/>
      <point x="350" y="102"/>
      <point x="328" y="149"/>
      <point x="328" y="216" type="curve"/>
      <point x="328" y="273"/>
      <point x="346" y="313"/>
      <point x="396" y="313" type="curve"/>
      <point x="454" y="313"/>
      <point x="470" y="271"/>
      <point x="470" y="210" type="curve"/>
      <point x="470" y="103"/>
      <point x="506" y="24"/>
      <point x="605" y="24" type="curve"/>
      <point x="710" y="24"/>
      <point x="752" y="104"/>
      <point x="752" y="218" type="curve"/>
      <point x="752" y="431"/>
      <point x="625" y="558"/>
      <point x="413" y="558" type="curve"/>
      <point x="187" y="558"/>
      <point x="51" y="431"/>
      <point x="51" y="205" type="curve"/>
      <point x="51" y="-17"/>
      <point x="189" y="-145"/>
      <point x="413" y="-145" type="curve"/>
      <point x="482" y="-145"/>
      <point x="527" y="-133"/>
      <point x="582" y="-101" type="curve"/>
      <point x="538" y="-24"/>
      <point x="582" y="-101"/>
    </contour>
  </outline>
</glyph>
<glyph name="A" format="1">
  <advance width="748"/>
  <unicode hex="0041"/>
  <outline>
    <contour>
      <point x="120" y="90" type="curve"/>
      <point x="-17" y="90"/>
      <point x="129" y="90"/>
      <point x="-8" y="90" type="curve"/>
      <point x="-8" y="0"/>
      <point x="-8" y="90"/>
      <point x="-8" y="0" type="curve"/>
      <point x="38" y="0"/>
      <point x="74" y="0"/>
      <point x="120" y="0" type="curve"/>
      <point x="120" y="90"/>
      <point x="120" y="0"/>
    </contour>
    <contour>
      <point x="120" y="0" type="curve"/>
      <point x="177" y="0"/>
      <point x="117" y="0"/>
      <point x="286" y="0" type="curve"/>
      <point x="286" y="90"/>
      <point x="286" y="0"/>
      <point x="286" y="90" type="curve"/>
      <point x="117" y="90"/>
      <point x="290" y="90"/>
      <point x="120" y="90" type="curve"/>
      <point x="120" y="0"/>
      <point x="120" y="90"/>
    </contour>
    <contour>
      <point x="607" y="0" type="curve"/>
      <point x="652" y="0"/>
      <point x="689" y="0"/>
      <point x="735" y="0" type="curve"/>
      <point x="735" y="90"/>
      <point x="735" y="0"/>
      <point x="735" y="90" type="curve"/>
      <point x="598" y="90"/>
      <point x="744" y="90"/>
      <point x="607" y="90" type="curve"/>
      <point x="607" y="0"/>
      <point x="607" y="90"/>
    </contour>
    <contour>
      <point x="607" y="90" type="curve"/>
      <point x="437" y="90"/>
      <point x="610" y="90"/>
      <point x="441" y="90" type="curve"/>
      <point x="441" y="0"/>
      <point x="441" y="90"/>
      <point x="441" y="0" type="curve"/>
      <point x="497" y="0"/>
      <point x="550" y="0"/>
      <point x="607" y="0" type="curve"/>
      <point x="607" y="90"/>
      <point x="607" y="0"/>
    </contour>
    <contour>
      <point x="511" y="294" type="curve"/>
      <point x="419" y="294"/>
      <point x="326" y="294"/>
      <point x="234" y="294" type="curve"/>
      <point x="186" y="199"/>
      <point x="234" y="294"/>
      <point x="186" y="199" type="curve"/>
      <point x="307" y="199"/>
      <point x="428" y="199"/>
      <point x="549" y="199" type="curve"/>
      <point x="511" y="294"/>
      <point x="549" y="199"/>
    </contour>
    <contour>
      <point x="678" y="0" type="curve"/>
      <point x="598" y="241"/>
      <point x="512" y="481"/>
      <point x="431" y="722" type="curve"/>
      <point x="325" y="722"/>
      <point x="431" y="722"/>
      <point x="325" y="722" type="curve"/>
      <point x="403" y="482"/>
      <point x="477" y="240"/>
      <point x="556" y="0" type="curve"/>
      <point x="678" y="0"/>
      <point x="556" y="0"/>
    </contour>
    <contour>
      <point x="174" y="0" type="curve"/>
      <point x="262" y="240"/>
      <point x="341" y="482"/>
      <point x="430" y="722" type="curve"/>
      <point x="323" y="722"/>
      <point x="430" y="722"/>
      <point x="323" y="722" type="curve"/>
      <point x="233" y="480"/>
      <point x="135" y="242"/>
      <point x="45" y="0" type="curve"/>
      <point x="174" y="0"/>
      <point x="45" y="0"/>
    </contour>
    <contour>
      <point x="375" y="791" type="move" name="top"/>
    </contour>
    <contour>
      <point x="659" y="4" type="move" name="bottom"/>
    </contour>
  </outline>
</glyph>
<glyph name="B" format="1">
  <advance width="663"/>
  <unicode hex="0042"/>
  <outline>
    <contour>
      <point x="199" y="722" type="curve"/>
      <point x="152" y="722"/>
      <point x="108" y="722"/>
      <point x="61" y="722" type="curve"/>
      <point x="61" y="632"/>
      <point x="61" y="722"/>
      <point x="61" y="632" type="curve"/>
      <point x="202" y="632"/>
      <point x="57" y="632"/>
      <point x="199" y="632" type="curve"/>
      <point x="199" y="722"/>
      <point x="199" y="632"/>
    </contour>
    <contour>
      <point x="197" y="90" type="curve"/>
      <point x="56" y="90"/>
      <point x="201" y="90"/>
      <point x="60" y="90" type="curve"/>
      <point x="60" y="0"/>
      <point x="60" y="90"/>
      <point x="60" y="0" type="curve"/>
      <point x="107" y="0"/>
      <point x="151" y="0"/>
      <point x="197" y="0" type="curve"/>
      <point x="197" y="90"/>
      <point x="197" y="0"/>
    </contour>
    <contour>
      <point x="189" y="632" type="curve"/>
      <point x="250" y="632"/>
      <point x="298" y="632"/>
      <point x="359" y="632" type="curve"/>
      <point x="420" y="632"/>
      <point x="453" y="597"/>
      <point x="453" y="539" type="curve"/>
      <point x="453" y="482"/>
      <point x="414" y="450"/>
      <point x="354" y="450" type="curve"/>
      <point x="295" y="450"/>
      <point x="248" y="450"/>
      <point x="189" y="450" type="curve"/>
      <point x="189" y="401"/>
      <point x="189" y="409"/>
      <point x="189" y="360" type="curve"/>
      <point x="232" y="360"/>
      <point x="266" y="360"/>
      <point x="310" y="360" type="curve"/>
      <point x="429" y="360"/>
      <point x="570" y="405"/>
      <point x="570" y="536" type="curve"/>
      <point x="570" y="657"/>
      <point x="490" y="722"/>
      <point x="364" y="722" type="curve"/>
      <point x="301" y="722"/>
      <point x="252" y="722"/>
      <point x="189" y="722" type="curve"/>
      <point x="189" y="672"/>
      <point x="189" y="682"/>
    </contour>
    <contour>
      <point x="260" y="0" type="curve"/>
      <point x="260" y="241"/>
      <point x="260" y="481"/>
      <point x="260" y="722" type="curve"/>
      <point x="137" y="722"/>
      <point x="260" y="722"/>
      <point x="137" y="722" type="curve"/>
      <point x="137" y="481"/>
      <point x="137" y="241"/>
      <point x="137" y="0" type="curve"/>
      <point x="260" y="0"/>
      <point x="137" y="0"/>
    </contour>
    <contour>
      <point x="189" y="360" type="curve"/>
      <point x="248" y="360"/>
      <point x="295" y="360"/>
      <point x="354" y="360" type="curve"/>
      <point x="444" y="360"/>
      <point x="495" y="309"/>
      <point x="495" y="222" type="curve"/>
      <point x="495" y="138"/>
      <point x="447" y="90"/>
      <point x="361" y="90" type="curve"/>
      <point x="299" y="90"/>
      <point x="251" y="90"/>
      <point x="189" y="90" type="curve"/>
      <point x="189" y="40"/>
      <point x="189" y="50"/>
      <point x="189" y="0" type="curve"/>
      <point x="253" y="0"/>
      <point x="303" y="0"/>
      <point x="367" y="0" type="curve"/>
      <point x="516" y="0"/>
      <point x="612" y="75"/>
      <point x="612" y="220" type="curve"/>
      <point x="612" y="383"/>
      <point x="465" y="450"/>
      <point x="310" y="450" type="curve"/>
      <point x="267" y="450"/>
      <point x="232" y="450"/>
      <point x="189" y="450" type="curve"/>
      <point x="189" y="401"/>
      <point x="189" y="409"/>
    </contour>
  </outline>
</glyph>
<glyph name="D" format="1">
  <advance width="762"/>
  <unicode hex="0044"/>
  <outline>
    <contour>
      <point x="201" y="90" type="curve"/>
      <point x="57" y="90"/>
      <point x="205" y="90"/>
      <point x="61" y="90" type="curve"/>
      <point x="61" y="0"/>
      <point x="61" y="90"/>
      <point x="61" y="0" type="curve"/>
      <point x="109" y="0"/>
      <point x="154" y="0"/>
      <point x="201" y="0" type="curve"/>
      <point x="201" y="90"/>
      <point x="201" y="0"/>
    </contour>
    <contour>
      <point x="201" y="722" type="curve"/>
      <point x="154" y="722"/>
      <point x="109" y="722"/>
      <point x="61" y="722" type="curve"/>
      <point x="61" y="632"/>
      <point x="61" y="722"/>
      <point x="61" y="632" type="curve"/>
      <point x="205" y="632"/>
      <point x="57" y="632"/>
      <point x="201" y="632" type="curve"/>
      <point x="201" y="722"/>
      <point x="201" y="632"/>
    </contour>
    <contour>
      <point x="141" y="722" type="curve"/>
      <point x="141" y="481"/>
      <point x="141" y="241"/>
      <point x="141" y="0" type="curve"/>
      <point x="258" y="0"/>
      <point x="141" y="0"/>
      <point x="258" y="0" type="curve"/>
      <point x="258" y="241"/>
      <point x="258" y="481"/>
      <point x="258" y="722" type="curve"/>
      <point x="141" y="722"/>
      <point x="258" y="722"/>
    </contour>
    <contour>
      <point x="201" y="0" type="curve"/>
      <point x="258" y="0"/>
      <point x="313" y="0"/>
      <point x="371" y="0" type="curve"/>
      <point x="594" y="0"/>
      <point x="708" y="127"/>
      <point x="708" y="354" type="curve"/>
      <point x="708" y="588"/>
      <point x="595" y="722"/>
      <point x="366" y="722" type="curve"/>
      <point x="310" y="722"/>
      <point x="257" y="722"/>
      <point x="201" y="722" type="curve"/>
      <point x="201" y="635"/>
      <point x="201" y="719"/>
      <point x="201" y="632" type="curve"/>
      <point x="255" y="632"/>
      <point x="306" y="632"/>
      <point x="360" y="632" type="curve"/>
      <point x="525" y="632"/>
      <point x="590" y="524"/>
      <point x="590" y="352" type="curve"/>
      <point x="590" y="192"/>
      <point x="531" y="90"/>
      <point x="381" y="90" type="curve"/>
      <point x="320" y="90"/>
      <point x="262" y="90"/>
      <point x="201" y="90" type="curve"/>
      <point x="201" y="3"/>
      <point x="201" y="87"/>
    </contour>
    <contour>
      <point x="346" y="791" type="move" name="top"/>
    </contour>
  </outline>
</glyph>
<glyph name="E" format="1">
  <advance width="623"/>
  <unicode hex="0045"/>
  <outline>
    <contour>
      <point x="582" y="45" type="curve"/>
      <point x="582" y="165"/>
      <point x="582" y="43"/>
      <point x="582" y="163" type="curve"/>
      <point x="489" y="163"/>
      <point x="582" y="163"/>
      <point x="489" y="163" type="curve"/>
      <point x="489" y="43"/>
      <point x="489" y="165"/>
      <point x="489" y="45" type="curve"/>
      <point x="582" y="45"/>
      <point x="489" y="45"/>
    </contour>
    <contour>
      <point x="459" y="677" type="curve"/>
      <point x="459" y="557"/>
      <point x="459" y="679"/>
      <point x="459" y="559" type="curve"/>
      <point x="552" y="559"/>
      <point x="459" y="559"/>
      <point x="552" y="559" type="curve"/>
      <point x="552" y="679"/>
      <point x="552" y="557"/>
      <point x="552" y="677" type="curve"/>
      <point x="459" y="677"/>
      <point x="552" y="677"/>
    </contour>
    <contour>
      <point x="201" y="90" type="curve"/>
      <point x="57" y="90"/>
      <point x="204" y="90"/>
      <point x="61" y="90" type="curve"/>
      <point x="61" y="0"/>
      <point x="61" y="90"/>
      <point x="61" y="0" type="curve"/>
      <point x="109" y="0"/>
      <point x="153" y="0"/>
      <point x="201" y="0" type="curve"/>
      <point x="201" y="90"/>
      <point x="201" y="0"/>
    </contour>
    <contour>
      <point x="201" y="722" type="curve"/>
      <point x="153" y="722"/>
      <point x="109" y="722"/>
      <point x="61" y="722" type="curve"/>
      <point x="61" y="632"/>
      <point x="61" y="722"/>
      <point x="61" y="632" type="curve"/>
      <point x="204" y="632"/>
      <point x="57" y="632"/>
      <point x="201" y="632" type="curve"/>
      <point x="201" y="722"/>
      <point x="201" y="632"/>
    </contour>
    <contour>
      <point x="204" y="328" type="curve"/>
      <point x="301" y="328"/>
      <point x="398" y="328"/>
      <point x="496" y="328" type="curve"/>
      <point x="496" y="418"/>
      <point x="496" y="328"/>
      <point x="496" y="418" type="curve"/>
      <point x="398" y="418"/>
      <point x="301" y="418"/>
      <point x="204" y="418" type="curve"/>
      <point x="204" y="328"/>
      <point x="204" y="418"/>
    </contour>
    <contour>
      <point x="190" y="632" type="curve"/>
      <point x="311" y="632"/>
      <point x="431" y="632"/>
      <point x="552" y="632" type="curve"/>
      <point x="552" y="722"/>
      <point x="552" y="632"/>
      <point x="552" y="722" type="curve"/>
      <point x="431" y="722"/>
      <point x="311" y="722"/>
      <point x="190" y="722" type="curve"/>
      <point x="190" y="632"/>
      <point x="190" y="722"/>
    </contour>
    <contour>
      <point x="259" y="0" type="curve"/>
      <point x="259" y="722" type="line"/>
      <point x="141" y="722"/>
      <point x="259" y="722"/>
      <point x="141" y="722" type="curve"/>
      <point x="141" y="481"/>
      <point x="141" y="241"/>
      <point x="141" y="0" type="curve"/>
      <point x="259" y="0"/>
      <point x="141" y="0"/>
    </contour>
    <contour>
      <point x="190" y="0" type="curve"/>
      <point x="321" y="0"/>
      <point x="451" y="0"/>
      <point x="582" y="0" type="curve"/>
      <point x="582" y="90"/>
      <point x="582" y="0"/>
      <point x="582" y="90" type="curve"/>
      <point x="451" y="90"/>
      <point x="321" y="90"/>
      <point x="190" y="90" type="curve"/>
      <point x="190" y="0"/>
      <point x="190" y="90"/>
    </contour>
    <contour>
      <point x="326" y="791" type="move" name="top"/>
    </contour>
    <contour>
      <point x="551" y="5" type="move" name="bottom"/>
    </contour>
  </outline>
</glyph>
<glyph name="G" format="1">
  <advance width="744"/>
  <unicode hex="0047"/>
  <outline>
    <contour>
      <point x="573" y="644" type="curve"/>
      <point x="573" y="513"/>
      <point x="573" y="638"/>
      <point x="573" y="507" type="curve"/>
      <point x="665" y="507"/>
      <point x="573" y="507"/>
      <point x="665" y="507" type="curve"/>
      <point x="665" y="638"/>
      <point x="665" y="513"/>
      <point x="665" y="644" type="curve"/>
      <point x="573" y="644"/>
      <point x="665" y="644"/>
    </contour>
    <contour>
      <point x="649" y="358" type="curve"/>
      <point x="584" y="358"/>
      <point x="518" y="358"/>
      <point x="453" y="358" type="curve"/>
      <point x="453" y="268"/>
      <point x="453" y="358"/>
      <point x="453" y="268" type="curve"/>
      <point x="518" y="268"/>
      <point x="584" y="268"/>
      <point x="649" y="268" type="curve"/>
      <point x="649" y="358"/>
      <point x="649" y="268"/>
    </contour>
    <contour>
      <point x="680" y="79" type="curve"/>
      <point x="680" y="172"/>
      <point x="680" y="265"/>
      <point x="680" y="358" type="curve"/>
      <point x="573" y="358"/>
      <point x="680" y="358"/>
      <point x="573" y="358" type="curve"/>
      <point x="573" y="265"/>
      <point x="573" y="172"/>
      <point x="573" y="79" type="curve"/>
      <point x="680" y="79"/>
      <point x="573" y="79"/>
    </contour>
    <contour>
      <point x="665" y="644" type="curve"/>
      <point x="579" y="701"/>
      <point x="498" y="727"/>
      <point x="395" y="727" type="curve"/>
      <point x="174" y="727"/>
      <point x="54" y="588"/>
      <point x="54" y="361" type="curve"/>
      <point x="54" y="131"/>
      <point x="180" y="-5"/>
      <point x="405" y="-5" type="curve"/>
      <point x="515" y="-5"/>
      <point x="585" y="23"/>
      <point x="680" y="79" type="curve"/>
      <point x="621" y="147"/>
      <point x="680" y="79"/>
      <point x="621" y="147" type="curve"/>
      <point x="550" y="106"/>
      <point x="489" y="90"/>
      <point x="405" y="90" type="curve"/>
      <point x="245" y="90"/>
      <point x="172" y="200"/>
      <point x="172" y="370" type="curve"/>
      <point x="172" y="529"/>
      <point x="244" y="633"/>
      <point x="395" y="633" type="curve"/>
      <point x="476" y="633"/>
      <point x="538" y="612"/>
      <point x="606" y="568" type="curve"/>
      <point x="665" y="644"/>
      <point x="606" y="568"/>
    </contour>
    <contour>
      <point x="392" y="791" type="move" name="top"/>
    </contour>
    <contour>
      <point x="437" y="-11" type="move" name="bottom"/>
    </contour>
  </outline>
</glyph>
<glyph name="H" format="1">
  <advance width="805"/>
  <unicode hex="0048"/>
  <outline>
    <contour>
      <point x="625" y="632" type="curve"/>
      <point x="775" y="632"/>
      <point x="616" y="632"/>
      <point x="765" y="632" type="curve"/>
      <point x="765" y="722"/>
      <point x="765" y="632"/>
      <point x="765" y="722" type="curve"/>
      <point x="715" y="722"/>
      <point x="675" y="722"/>
      <point x="625" y="722" type="curve"/>
      <point x="625" y="632"/>
      <point x="625" y="722"/>
    </contour>
    <contour>
      <point x="625" y="0" type="curve"/>
      <point x="675" y="0"/>
      <point x="715" y="0"/>
      <point x="765" y="0" type="curve"/>
      <point x="765" y="90"/>
      <point x="765" y="0"/>
      <point x="765" y="90" type="curve"/>
      <point x="616" y="90"/>
      <point x="775" y="90"/>
      <point x="625" y="90" type="curve"/>
      <point x="625" y="0"/>
      <point x="625" y="90"/>
    </contour>
    <contour>
      <point x="625" y="90" type="curve"/>
      <point x="476" y="90"/>
      <point x="635" y="90"/>
      <point x="485" y="90" type="curve"/>
      <point x="485" y="0"/>
      <point x="485" y="90"/>
      <point x="485" y="0" type="curve"/>
      <point x="535" y="0"/>
      <point x="575" y="0"/>
      <point x="625" y="0" type="curve"/>
      <point x="625" y="90"/>
      <point x="625" y="0"/>
    </contour>
    <contour>
      <point x="625" y="722" type="curve"/>
      <point x="575" y="722"/>
      <point x="535" y="722"/>
      <point x="485" y="722" type="curve"/>
      <point x="485" y="632"/>
      <point x="485" y="722"/>
      <point x="485" y="632" type="curve"/>
      <point x="635" y="632"/>
      <point x="476" y="632"/>
      <point x="625" y="632" type="curve"/>
      <point x="625" y="722"/>
      <point x="625" y="632"/>
    </contour>
    <contour>
      <point x="180" y="632" type="curve"/>
      <point x="330" y="632"/>
      <point x="171" y="632"/>
      <point x="321" y="632" type="curve"/>
      <point x="321" y="722"/>
      <point x="321" y="632"/>
      <point x="321" y="722" type="curve"/>
      <point x="271" y="722"/>
      <point x="230" y="722"/>
      <point x="180" y="722" type="curve"/>
      <point x="180" y="632"/>
      <point x="180" y="722"/>
    </contour>
    <contour>
      <point x="180" y="722" type="curve"/>
      <point x="131" y="722"/>
      <point x="90" y="722"/>
      <point x="40" y="722" type="curve"/>
      <point x="40" y="632"/>
      <point x="40" y="722"/>
      <point x="40" y="632" type="curve"/>
      <point x="190" y="632"/>
      <point x="31" y="632"/>
      <point x="180" y="632" type="curve"/>
      <point x="180" y="722"/>
      <point x="180" y="632"/>
    </contour>
    <contour>
      <point x="180" y="0" type="curve"/>
      <point x="230" y="0"/>
      <point x="171" y="0"/>
      <point x="321" y="0" type="curve"/>
      <point x="321" y="90"/>
      <point x="321" y="0"/>
      <point x="321" y="90" type="curve"/>
      <point x="171" y="90"/>
      <point x="330" y="90"/>
      <point x="180" y="90" type="curve"/>
      <point x="180" y="0"/>
      <point x="180" y="90"/>
    </contour>
    <contour>
      <point x="180" y="90" type="curve"/>
      <point x="31" y="90"/>
      <point x="190" y="90"/>
      <point x="40" y="90" type="curve"/>
      <point x="40" y="0"/>
      <point x="40" y="90"/>
      <point x="40" y="0" type="curve"/>
      <point x="90" y="0"/>
      <point x="131" y="0"/>
      <point x="180" y="0" type="curve"/>
      <point x="180" y="90"/>
      <point x="180" y="0"/>
    </contour>
    <contour>
      <point x="239" y="0" type="curve"/>
      <point x="239" y="722" type="line"/>
      <point x="122" y="722"/>
      <point x="239" y="722"/>
      <point x="122" y="722" type="curve"/>
      <point x="122" y="481"/>
      <point x="122" y="241"/>
      <point x="122" y="0" type="curve"/>
      <point x="239" y="0"/>
      <point x="122" y="0"/>
    </contour>
    <contour>
      <point x="623" y="408" type="curve"/>
      <point x="475" y="408"/>
      <point x="328" y="408"/>
      <point x="180" y="408" type="curve"/>
      <point x="180" y="317"/>
      <point x="180" y="408"/>
      <point x="180" y="317" type="curve"/>
      <point x="328" y="317"/>
      <point x="475" y="317"/>
      <point x="623" y="317" type="curve"/>
      <point x="623" y="408"/>
      <point x="623" y="317"/>
    </contour>
    <contour>
      <point x="683" y="36" type="curve"/>
      <point x="683" y="253"/>
      <point x="683" y="469"/>
      <point x="683" y="686" type="curve"/>
      <point x="566" y="686"/>
      <point x="683" y="686"/>
      <point x="566" y="686" type="curve"/>
      <point x="566" y="36" type="line"/>
      <point x="683" y="36"/>
      <point x="566" y="36"/>
    </contour>
  </outline>
</glyph>
<glyph name="I" format="1">
  <advance width="362"/>
  <unicode hex="0049"/>
  <outline>
    <contour>
      <point x="182" y="722" type="curve"/>
      <point x="132" y="722"/>
      <point x="91" y="722"/>
      <point x="41" y="722" type="curve"/>
      <point x="41" y="632"/>
      <point x="41" y="722"/>
      <point x="41" y="632" type="curve"/>
      <point x="192" y="632"/>
      <point x="32" y="632"/>
      <point x="182" y="632" type="curve"/>
      <point x="182" y="722"/>
      <point x="182" y="632"/>
    </contour>
    <contour>
      <point x="182" y="632" type="curve"/>
      <point x="332" y="632"/>
      <point x="172" y="632"/>
      <point x="322" y="632" type="curve"/>
      <point x="322" y="722"/>
      <point x="322" y="632"/>
      <point x="322" y="722" type="curve"/>
      <point x="272" y="722"/>
      <point x="231" y="722"/>
      <point x="182" y="722" type="curve"/>
      <point x="182" y="632"/>
      <point x="182" y="722"/>
    </contour>
    <contour>
      <point x="182" y="0" type="curve"/>
      <point x="231" y="0"/>
      <point x="272" y="0"/>
      <point x="322" y="0" type="curve"/>
      <point x="322" y="90"/>
      <point x="322" y="0"/>
      <point x="322" y="90" type="curve"/>
      <point x="172" y="90"/>
      <point x="332" y="90"/>
      <point x="182" y="90" type="curve"/>
      <point x="182" y="0"/>
      <point x="182" y="90"/>
    </contour>
    <contour>
      <point x="182" y="90" type="curve"/>
      <point x="32" y="90"/>
      <point x="192" y="90"/>
      <point x="41" y="90" type="curve"/>
      <point x="41" y="0"/>
      <point x="41" y="90"/>
      <point x="41" y="0" type="curve"/>
      <point x="91" y="0"/>
      <point x="132" y="0"/>
      <point x="182" y="0" type="curve"/>
      <point x="182" y="90"/>
      <point x="182" y="0"/>
    </contour>
    <contour>
      <point x="240" y="0" type="curve"/>
      <point x="240" y="241"/>
      <point x="240" y="481"/>
      <point x="240" y="722" type="curve"/>
      <point x="122" y="722"/>
      <point x="240" y="722"/>
      <point x="122" y="722" type="curve"/>
      <point x="122" y="481"/>
      <point x="122" y="241"/>
      <point x="122" y="0" type="curve"/>
      <point x="240" y="0"/>
      <point x="122" y="0"/>
    </contour>
    <contour>
      <point x="182" y="791" type="move" name="top"/>
    </contour>
    <contour>
      <point x="233" y="3" type="move" name="bottom"/>
    </contour>
  </outline>
</glyph>
<glyph name="J" format="1">
  <advance width="447"/>
  <unicode hex="004A"/>
  <outline>
    <contour>
      <point x="286" y="722" type="curve"/>
      <point x="237" y="722"/>
      <point x="198" y="722"/>
      <point x="149" y="722" type="curve"/>
      <point x="149" y="632"/>
      <point x="149" y="722"/>
      <point x="149" y="632" type="curve"/>
      <point x="296" y="632"/>
      <point x="139" y="632"/>
      <point x="286" y="632" type="curve"/>
      <point x="286" y="722"/>
      <point x="286" y="632"/>
    </contour>
    <contour>
      <point x="286" y="632" type="curve"/>
      <point x="432" y="632"/>
      <point x="276" y="632"/>
      <point x="423" y="632" type="curve"/>
      <point x="423" y="722"/>
      <point x="423" y="632"/>
      <point x="423" y="722" type="curve"/>
      <point x="374" y="722"/>
      <point x="335" y="722"/>
      <point x="286" y="722" type="curve"/>
      <point x="286" y="632"/>
      <point x="286" y="722"/>
    </contour>
    <contour>
      <point x="4" y="44" type="curve"/>
      <point x="35" y="21"/>
      <point x="78" y="-4"/>
      <point x="132" y="-4" type="curve"/>
      <point x="274" y="-4"/>
      <point x="344" y="81"/>
      <point x="344" y="239" type="curve"/>
      <point x="344" y="403"/>
      <point x="344" y="557"/>
      <point x="344" y="722" type="curve"/>
      <point x="229" y="722"/>
      <point x="341" y="722"/>
      <point x="227" y="722" type="curve"/>
      <point x="227" y="557"/>
      <point x="227" y="403"/>
      <point x="227" y="239" type="curve"/>
      <point x="227" y="152"/>
      <point x="208" y="87"/>
      <point x="132" y="87" type="curve"/>
      <point x="101" y="87"/>
      <point x="82" y="101"/>
      <point x="58" y="115" type="curve"/>
      <point x="6" y="46"/>
      <point x="57" y="113"/>
    </contour>
  </outline>
</glyph>
<glyph name="K" format="1">
  <advance width="702"/>
  <unicode hex="004B"/>
  <outline>
    <contour>
      <point x="539" y="722" type="curve"/>
      <point x="488" y="722"/>
      <point x="421" y="722"/>
      <point x="371" y="722" type="curve"/>
      <point x="371" y="632"/>
      <point x="371" y="722"/>
      <point x="371" y="632" type="curve"/>
      <point x="522" y="632"/>
      <point x="387" y="632"/>
      <point x="539" y="632" type="curve"/>
      <point x="539" y="722"/>
      <point x="539" y="632"/>
    </contour>
    <contour>
      <point x="544" y="0" type="curve"/>
      <point x="605" y="0"/>
      <point x="616" y="0"/>
      <point x="677" y="0" type="curve"/>
      <point x="677" y="90"/>
      <point x="677" y="0"/>
      <point x="677" y="90" type="curve"/>
      <point x="495" y="90"/>
      <point x="726" y="90"/>
      <point x="544" y="90" type="curve"/>
      <point x="544" y="0"/>
      <point x="544" y="90"/>
    </contour>
    <contour>
      <point x="523" y="632" type="curve"/>
      <point x="670" y="632"/>
      <point x="499" y="632"/>
      <point x="647" y="632" type="curve"/>
      <point x="647" y="722"/>
      <point x="647" y="632"/>
      <point x="647" y="722" type="curve"/>
      <point x="598" y="722"/>
      <point x="572" y="722"/>
      <point x="523" y="722" type="curve"/>
      <point x="523" y="632"/>
      <point x="523" y="722"/>
    </contour>
    <contour>
      <point x="178" y="722" type="curve"/>
      <point x="129" y="722"/>
      <point x="89" y="722"/>
      <point x="40" y="722" type="curve"/>
      <point x="40" y="632"/>
      <point x="40" y="722"/>
      <point x="40" y="632" type="curve"/>
      <point x="188" y="632"/>
      <point x="31" y="632"/>
      <point x="178" y="632" type="curve"/>
      <point x="178" y="722"/>
      <point x="178" y="632"/>
    </contour>
    <contour>
      <point x="178" y="632" type="curve"/>
      <point x="324" y="632"/>
      <point x="149" y="632"/>
      <point x="295" y="632" type="curve"/>
      <point x="295" y="722"/>
      <point x="295" y="632"/>
      <point x="295" y="722" type="curve"/>
      <point x="246" y="722"/>
      <point x="227" y="722"/>
      <point x="178" y="722" type="curve"/>
      <point x="178" y="632"/>
      <point x="178" y="722"/>
    </contour>
    <contour>
      <point x="178" y="0" type="curve"/>
      <point x="231" y="0"/>
      <point x="146" y="0"/>
      <point x="304" y="0" type="curve"/>
      <point x="304" y="90"/>
      <point x="304" y="0"/>
      <point x="304" y="90" type="curve"/>
      <point x="146" y="90"/>
      <point x="336" y="90"/>
      <point x="178" y="90" type="curve"/>
      <point x="178" y="0"/>
      <point x="178" y="90"/>
    </contour>
    <contour>
      <point x="178" y="90" type="curve"/>
      <point x="31" y="90"/>
      <point x="188" y="90"/>
      <point x="40" y="90" type="curve"/>
      <point x="40" y="0"/>
      <point x="40" y="90"/>
      <point x="40" y="0" type="curve"/>
      <point x="89" y="0"/>
      <point x="129" y="0"/>
      <point x="178" y="0" type="curve"/>
      <point x="178" y="90"/>
      <point x="178" y="0"/>
    </contour>
    <contour>
      <point x="509" y="722" type="curve"/>
      <point x="215" y="380" type="line"/>
      <point x="349" y="380"/>
      <point x="214" y="380"/>
      <point x="348" y="380" type="curve"/>
      <point x="603" y="677" type="line"/>
      <point x="490" y="677"/>
      <point x="622" y="722"/>
    </contour>
    <contour>
      <point x="237" y="0" type="curve"/>
      <point x="237" y="722" type="line"/>
      <point x="120" y="722"/>
      <point x="237" y="722"/>
      <point x="120" y="722" type="curve"/>
      <point x="120" y="481"/>
      <point x="120" y="241"/>
      <point x="120" y="0" type="curve"/>
      <point x="237" y="0"/>
      <point x="120" y="0"/>
    </contour>
    <contour>
      <point x="634" y="40" type="curve"/>
      <point x="348" y="380" type="line"/>
      <point x="214" y="380"/>
      <point x="349" y="380"/>
      <point x="215" y="380" type="curve"/>
      <point x="529" y="0" type="line"/>
      <point x="652" y="0"/>
      <point x="510" y="40"/>
    </contour>
    <contour>
      <point x="389" y="-13" type="move" name="bottom"/>
    </contour>
  </outline>
</glyph>
<glyph name="L" format="1">
  <advance width="579"/>
  <unicode hex="004C"/>
  <outline>
    <contour>
      <point x="556" y="45" type="curve"/>
      <point x="556" y="165"/>
      <point x="556" y="43"/>
      <point x="556" y="163" type="curve"/>
      <point x="464" y="163"/>
      <point x="556" y="163"/>
      <point x="464" y="163" type="curve"/>
      <point x="464" y="43"/>
      <point x="464" y="165"/>
      <point x="464" y="45" type="curve"/>
      <point x="556" y="45"/>
      <point x="464" y="45"/>
    </contour>
    <contour>
      <point x="181" y="90" type="curve"/>
      <point x="31" y="90"/>
      <point x="190" y="90"/>
      <point x="41" y="90" type="curve"/>
      <point x="40" y="0"/>
      <point x="41" y="90"/>
      <point x="40" y="0" type="curve"/>
      <point x="90" y="0"/>
      <point x="131" y="0"/>
      <point x="181" y="0" type="curve"/>
      <point x="181" y="90"/>
      <point x="181" y="0"/>
    </contour>
    <contour>
      <point x="181" y="722" type="curve"/>
      <point x="131" y="722"/>
      <point x="90" y="722"/>
      <point x="41" y="722" type="curve"/>
      <point x="40" y="632"/>
      <point x="41" y="722"/>
      <point x="40" y="632" type="curve"/>
      <point x="190" y="632"/>
      <point x="31" y="632"/>
      <point x="181" y="632" type="curve"/>
      <point x="181" y="722"/>
      <point x="181" y="632"/>
    </contour>
    <contour>
      <point x="181" y="632" type="curve"/>
      <point x="330" y="632"/>
      <point x="171" y="632"/>
      <point x="321" y="632" type="curve"/>
      <point x="321" y="722"/>
      <point x="321" y="632"/>
      <point x="321" y="722" type="curve"/>
      <point x="271" y="722"/>
      <point x="230" y="722"/>
      <point x="181" y="722" type="curve"/>
      <point x="181" y="632"/>
      <point x="181" y="722"/>
    </contour>
    <contour>
      <point x="240" y="0" type="curve"/>
      <point x="240" y="241"/>
      <point x="240" y="481"/>
      <point x="240" y="722" type="curve"/>
      <point x="123" y="722"/>
      <point x="240" y="722"/>
      <point x="123" y="722" type="curve"/>
      <point x="123" y="481"/>
      <point x="123" y="241"/>
      <point x="123" y="0" type="curve"/>
      <point x="240" y="0"/>
      <point x="123" y="0"/>
    </contour>
    <contour>
      <point x="181" y="0" type="curve"/>
      <point x="306" y="0"/>
      <point x="431" y="0"/>
      <point x="556" y="0" type="curve"/>
      <point x="556" y="90"/>
      <point x="556" y="0"/>
      <point x="556" y="90" type="curve"/>
      <point x="431" y="90"/>
      <point x="306" y="90"/>
      <point x="181" y="90" type="curve"/>
      <point x="181" y="0"/>
      <point x="181" y="90"/>
    </contour>
    <contour>
      <point x="181" y="791" type="move" name="top"/>
    </contour>
    <contour>
      <point x="346" y="-10" type="move" name="bottom"/>
    </contour>
  </outline>
</glyph>
<glyph name="M" format="1">
  <advance width="919"/>
  <unicode hex="004D"/>
  <outline>
    <contour>
      <point x="764" y="0" type="curve"/>
      <point x="813" y="0"/>
      <point x="851" y="0"/>
      <point x="899" y="0" type="curve"/>
      <point x="899" y="90"/>
      <point x="899" y="0"/>
      <point x="899" y="90" type="curve"/>
      <point x="755" y="90"/>
      <point x="909" y="90"/>
      <point x="764" y="90" type="curve"/>
      <point x="764" y="0"/>
      <point x="764" y="90"/>
    </contour>
    <contour>
      <point x="764" y="90" type="curve"/>
      <point x="626" y="90"/>
      <point x="774" y="90"/>
      <point x="635" y="90" type="curve"/>
      <point x="635" y="0"/>
      <point x="635" y="90"/>
      <point x="635" y="0" type="curve"/>
      <point x="681" y="0"/>
      <point x="719" y="0"/>
      <point x="764" y="0" type="curve"/>
      <point x="764" y="90"/>
      <point x="764" y="0"/>
    </contour>
    <contour>
      <point x="156" y="90" type="curve"/>
      <point x="12" y="90"/>
      <point x="166" y="90"/>
      <point x="21" y="90" type="curve"/>
      <point x="21" y="0"/>
      <point x="21" y="90"/>
      <point x="21" y="0" type="curve"/>
      <point x="70" y="0"/>
      <point x="108" y="0"/>
      <point x="156" y="0" type="curve"/>
      <point x="156" y="90"/>
      <point x="156" y="0"/>
    </contour>
    <contour>
      <point x="206" y="722" type="curve"/>
      <point x="158" y="722"/>
      <point x="119" y="722"/>
      <point x="72" y="722" type="curve"/>
      <point x="71" y="632"/>
      <point x="72" y="722"/>
      <point x="71" y="632" type="curve"/>
      <point x="216" y="632"/>
      <point x="62" y="632"/>
      <point x="206" y="632" type="curve"/>
      <point x="206" y="722"/>
      <point x="206" y="632"/>
    </contour>
    <contour>
      <point x="713" y="632" type="curve"/>
      <point x="857" y="632"/>
      <point x="703" y="632"/>
      <point x="847" y="632" type="curve"/>
      <point x="847" y="722"/>
      <point x="847" y="632"/>
      <point x="847" y="722" type="curve"/>
      <point x="799" y="722"/>
      <point x="761" y="722"/>
      <point x="713" y="722" type="curve"/>
      <point x="713" y="632"/>
      <point x="713" y="722"/>
    </contour>
    <contour>
      <point x="156" y="0" type="curve"/>
      <point x="202" y="0"/>
      <point x="147" y="0"/>
      <point x="285" y="0" type="curve"/>
      <point x="285" y="90"/>
      <point x="285" y="0"/>
      <point x="285" y="90" type="curve"/>
      <point x="147" y="90"/>
      <point x="295" y="90"/>
      <point x="156" y="90" type="curve"/>
      <point x="156" y="0"/>
      <point x="156" y="90"/>
    </contour>
    <contour>
      <point x="830" y="0" type="curve"/>
      <point x="811" y="241"/>
      <point x="788" y="481"/>
      <point x="770" y="722" type="curve"/>
      <point x="663" y="722"/>
      <point x="770" y="722"/>
      <point x="663" y="722" type="curve"/>
      <point x="681" y="481"/>
      <point x="694" y="241"/>
      <point x="712" y="0" type="curve"/>
      <point x="830" y="0"/>
      <point x="712" y="0"/>
    </contour>
    <contour>
      <point x="206" y="0" type="curve"/>
      <point x="223" y="241"/>
      <point x="239" y="481"/>
      <point x="256" y="722" type="curve"/>
      <point x="152" y="722"/>
      <point x="256" y="722"/>
      <point x="152" y="722" type="curve"/>
      <point x="134" y="481"/>
      <point x="117" y="241"/>
      <point x="100" y="0" type="curve"/>
      <point x="206" y="0"/>
      <point x="100" y="0"/>
    </contour>
    <contour>
      <point x="509" y="0" type="curve"/>
      <point x="425" y="241"/>
      <point x="342" y="481"/>
      <point x="258" y="722" type="curve"/>
      <point x="154" y="722"/>
      <point x="258" y="722"/>
      <point x="154" y="722" type="curve"/>
      <point x="237" y="481"/>
      <point x="320" y="241"/>
      <point x="403" y="0" type="curve"/>
      <point x="509" y="0"/>
      <point x="404" y="0"/>
    </contour>
    <contour>
      <point x="517" y="0" type="curve"/>
      <point x="599" y="241"/>
      <point x="680" y="481"/>
      <point x="762" y="722" type="curve"/>
      <point x="658" y="722"/>
      <point x="761" y="722"/>
      <point x="658" y="722" type="curve"/>
      <point x="575" y="481"/>
      <point x="493" y="241"/>
      <point x="410" y="0" type="curve"/>
      <point x="517" y="0"/>
      <point x="411" y="0"/>
    </contour>
  </outline>
</glyph>
<glyph name="O" format="1">
  <advance width="737"/>
  <unicode hex="004F"/>
  <outline>
    <contour>
      <point x="172" y="360" type="curve"/>
      <point x="172" y="513"/>
      <point x="222" y="633"/>
      <point x="365" y="633" type="curve"/>
      <point x="506" y="633"/>
      <point x="565" y="517"/>
      <point x="565" y="363" type="curve"/>
      <point x="565" y="210"/>
      <point x="514" y="90"/>
      <point x="371" y="90" type="curve"/>
      <point x="228" y="90"/>
      <point x="172" y="206"/>
      <point x="172" y="360" type="curve"/>
      <point x="54" y="360"/>
      <point x="172" y="360"/>
      <point x="54" y="360" type="curve"/>
      <point x="54" y="145"/>
      <point x="161" y="-5"/>
      <point x="366" y="-5" type="curve"/>
      <point x="574" y="-5"/>
      <point x="682" y="146"/>
      <point x="682" y="363" type="curve"/>
      <point x="682" y="577"/>
      <point x="577" y="727"/>
      <point x="371" y="727" type="curve"/>
      <point x="164" y="727"/>
      <point x="54" y="576"/>
      <point x="54" y="360" type="curve"/>
      <point x="172" y="360"/>
      <point x="54" y="360"/>
    </contour>
    <contour>
      <point x="370" y="791" type="move" name="top"/>
    </contour>
  </outline>
</glyph>
<glyph name="P" format="1">
  <advance width="620"/>
  <unicode hex="0050"/>
  <outline>
    <contour>
      <point x="200" y="722" type="curve"/>
      <point x="153" y="722"/>
      <point x="109" y="722"/>
      <point x="60" y="722" type="curve"/>
      <point x="60" y="632"/>
      <point x="60" y="722"/>
      <point x="60" y="632" type="curve"/>
      <point x="204" y="632"/>
      <point x="57" y="632"/>
      <point x="200" y="632" type="curve"/>
      <point x="200" y="722"/>
      <point x="200" y="632"/>
    </contour>
    <contour>
      <point x="200" y="90" type="curve"/>
      <point x="57" y="90"/>
      <point x="204" y="90"/>
      <point x="60" y="90" type="curve"/>
      <point x="60" y="0"/>
      <point x="60" y="90"/>
      <point x="60" y="0" type="curve"/>
      <point x="109" y="0"/>
      <point x="153" y="0"/>
      <point x="200" y="0" type="curve"/>
      <point x="200" y="90"/>
      <point x="200" y="0"/>
    </contour>
    <contour>
      <point x="200" y="0" type="curve"/>
      <point x="248" y="0"/>
      <point x="197" y="0"/>
      <point x="341" y="0" type="curve"/>
      <point x="341" y="90"/>
      <point x="341" y="0"/>
      <point x="341" y="90" type="curve"/>
      <point x="197" y="90"/>
      <point x="344" y="90"/>
      <point x="200" y="90" type="curve"/>
      <point x="200" y="0"/>
      <point x="200" y="90"/>
    </contour>
    <contour>
      <point x="183" y="302" type="curve"/>
      <point x="236" y="274"/>
      <point x="296" y="257"/>
      <point x="358" y="257" type="curve"/>
      <point x="494" y="259"/>
      <point x="581" y="337"/>
      <point x="581" y="481" type="curve"/>
      <point x="581" y="631"/>
      <point x="477" y="722"/>
      <point x="324" y="722" type="curve"/>
      <point x="283" y="722"/>
      <point x="243" y="722"/>
      <point x="204" y="722" type="curve"/>
      <point x="204" y="632"/>
      <point x="204" y="722"/>
      <point x="204" y="632" type="curve"/>
      <point x="238" y="632"/>
      <point x="273" y="632"/>
      <point x="308" y="632" type="curve"/>
      <point x="403" y="632"/>
      <point x="464" y="576"/>
      <point x="464" y="484" type="curve"/>
      <point x="464" y="400"/>
      <point x="421" y="344"/>
      <point x="345" y="344" type="curve"/>
      <point x="296" y="344"/>
      <point x="263" y="357"/>
      <point x="221" y="379" type="curve"/>
      <point x="184" y="304"/>
      <point x="221" y="379"/>
    </contour>
    <contour>
      <point x="258" y="0" type="curve"/>
      <point x="258" y="241"/>
      <point x="258" y="481"/>
      <point x="258" y="722" type="curve"/>
      <point x="141" y="722"/>
      <point x="258" y="722"/>
      <point x="141" y="722" type="curve"/>
      <point x="141" y="481"/>
      <point x="141" y="241"/>
      <point x="141" y="0" type="curve"/>
      <point x="258" y="0"/>
      <point x="141" y="0"/>
    </contour>
  </outline>
</glyph>
<glyph name="Q" format="1">
  <advance width="734"/>
  <unicode hex="0051"/>
  <outline>
    <contour>
      <point x="326" y="22" type="curve"/>
      <point x="422" y="-153"/>
      <point x="539" y="-218"/>
      <point x="727" y="-218" type="curve"/>
      <point x="727" y="-123"/>
      <point x="727" y="-218"/>
      <point x="727" y="-123" type="curve"/>
      <point x="585" y="-123"/>
      <point x="502" y="-67"/>
      <point x="427" y="67" type="curve"/>
      <point x="326" y="22"/>
      <point x="427" y="67"/>
    </contour>
    <contour>
      <point x="171" y="360" type="curve"/>
      <point x="171" y="512"/>
      <point x="227" y="628"/>
      <point x="366" y="628" type="curve"/>
      <point x="507" y="628"/>
      <point x="566" y="515"/>
      <point x="566" y="361" type="curve"/>
      <point x="566" y="208"/>
      <point x="513" y="89"/>
      <point x="373" y="89" type="curve"/>
      <point x="230" y="90"/>
      <point x="171" y="205"/>
      <point x="171" y="360" type="curve"/>
      <point x="54" y="360"/>
      <point x="171" y="360"/>
      <point x="54" y="360" type="curve"/>
      <point x="54" y="145"/>
      <point x="164" y="-5"/>
      <point x="368" y="-5" type="curve"/>
      <point x="575" y="-5"/>
      <point x="684" y="148"/>
      <point x="684" y="366" type="curve"/>
      <point x="684" y="580"/>
      <point x="578" y="731"/>
      <point x="374" y="731" type="curve"/>
      <point x="166" y="731"/>
      <point x="54" y="578"/>
      <point x="54" y="360" type="curve"/>
      <point x="171" y="360"/>
      <point x="54" y="360"/>
    </contour>
  </outline>
</glyph>
<glyph name="T" format="1">
  <advance width="609"/>
  <unicode hex="0054"/>
  <outline>
    <contour>
      <point x="29" y="676" type="curve"/>
      <point x="29" y="556"/>
      <point x="29" y="678"/>
      <point x="29" y="558" type="curve"/>
      <point x="120" y="558"/>
      <point x="29" y="558"/>
      <point x="120" y="558" type="curve"/>
      <point x="120" y="678"/>
      <point x="120" y="556"/>
      <point x="120" y="676" type="curve"/>
      <point x="29" y="676"/>
      <point x="120" y="676"/>
    </contour>
    <contour>
      <point x="488" y="676" type="curve"/>
      <point x="488" y="556"/>
      <point x="488" y="678"/>
      <point x="488" y="558" type="curve"/>
      <point x="581" y="558"/>
      <point x="488" y="558"/>
      <point x="581" y="558" type="curve"/>
      <point x="581" y="678"/>
      <point x="581" y="556"/>
      <point x="581" y="676" type="curve"/>
      <point x="488" y="676"/>
      <point x="581" y="676"/>
    </contour>
    <contour>
      <point x="304" y="0" type="curve"/>
      <point x="351" y="0"/>
      <point x="397" y="0"/>
      <point x="444" y="0" type="curve"/>
      <point x="444" y="90"/>
      <point x="444" y="0"/>
      <point x="444" y="90" type="curve"/>
      <point x="302" y="90"/>
      <point x="446" y="90"/>
      <point x="304" y="90" type="curve"/>
      <point x="304" y="0"/>
      <point x="304" y="90"/>
    </contour>
    <contour>
      <point x="304" y="90" type="curve"/>
      <point x="162" y="90"/>
      <point x="305" y="90"/>
      <point x="163" y="90" type="curve"/>
      <point x="163" y="0"/>
      <point x="163" y="90"/>
      <point x="163" y="0" type="curve"/>
      <point x="211" y="0"/>
      <point x="257" y="0"/>
      <point x="304" y="0" type="curve"/>
      <point x="304" y="90"/>
      <point x="304" y="0"/>
    </contour>
    <contour>
      <point x="363" y="0" type="curve"/>
      <point x="363" y="237"/>
      <point x="363" y="473"/>
      <point x="363" y="710" type="curve"/>
      <point x="246" y="710"/>
      <point x="363" y="710"/>
      <point x="246" y="710" type="curve"/>
      <point x="245" y="473"/>
      <point x="246" y="237"/>
      <point x="246" y="0" type="curve"/>
      <point x="363" y="0"/>
      <point x="246" y="0"/>
    </contour>
    <contour>
      <point x="29" y="626" type="curve"/>
      <point x="212" y="626"/>
      <point x="397" y="626"/>
      <point x="581" y="626" type="curve"/>
      <point x="581" y="726"/>
      <point x="581" y="623"/>
      <point x="581" y="722" type="curve"/>
      <point x="397" y="722"/>
      <point x="212" y="722"/>
      <point x="29" y="722" type="curve"/>
      <point x="29" y="623"/>
      <point x="29" y="726"/>
    </contour>
    <contour>
      <point x="303" y="791" type="move" name="top"/>
    </contour>
    <contour>
      <point x="349" y="-13" type="move" name="bottom"/>
    </contour>
  </outline>
</glyph>
<glyph name="V" format="1">
  <advance width="735"/>
  <unicode hex="0056"/>
  <outline>
    <contour>
      <point x="592" y="722" type="curve"/>
      <point x="543" y="722"/>
      <point x="495" y="722"/>
      <point x="446" y="722" type="curve"/>
      <point x="446" y="632"/>
      <point x="446" y="722"/>
      <point x="446" y="632" type="curve"/>
      <point x="593" y="632"/>
      <point x="444" y="632"/>
      <point x="592" y="632" type="curve"/>
      <point x="592" y="722"/>
      <point x="592" y="632"/>
    </contour>
    <contour>
      <point x="123" y="722" type="curve"/>
      <point x="81" y="722"/>
      <point x="40" y="722"/>
      <point x="-2" y="722" type="curve"/>
      <point x="-2" y="632"/>
      <point x="-2" y="722"/>
      <point x="-2" y="632" type="curve"/>
      <point x="125" y="632"/>
      <point x="-4" y="632"/>
      <point x="123" y="632" type="curve"/>
      <point x="123" y="722"/>
      <point x="123" y="632"/>
    </contour>
    <contour>
      <point x="601" y="632" type="curve"/>
      <point x="728" y="632"/>
      <point x="600" y="632"/>
      <point x="726" y="632" type="curve"/>
      <point x="726" y="722"/>
      <point x="726" y="632"/>
      <point x="726" y="722" type="curve"/>
      <point x="685" y="722"/>
      <point x="644" y="722"/>
      <point x="601" y="722" type="curve"/>
      <point x="601" y="632"/>
      <point x="601" y="722"/>
    </contour>
    <contour>
      <point x="133" y="632" type="curve"/>
      <point x="280" y="632"/>
      <point x="131" y="632"/>
      <point x="279" y="632" type="curve"/>
      <point x="279" y="722"/>
      <point x="279" y="632"/>
      <point x="279" y="722" type="curve"/>
      <point x="230" y="722"/>
      <point x="182" y="722"/>
      <point x="133" y="722" type="curve"/>
      <point x="133" y="632"/>
      <point x="133" y="722"/>
    </contour>
    <contour>
      <point x="555" y="722" type="curve"/>
      <point x="474" y="480"/>
      <point x="395" y="242"/>
      <point x="316" y="0" type="curve"/>
      <point x="436" y="0"/>
      <point x="307" y="0"/>
      <point x="427" y="0" type="curve"/>
      <point x="510" y="241"/>
      <point x="591" y="481"/>
      <point x="674" y="722" type="curve"/>
      <point x="555" y="722"/>
      <point x="674" y="722"/>
    </contour>
    <contour>
      <point x="50" y="722" type="curve"/>
      <point x="134" y="481"/>
      <point x="218" y="241"/>
      <point x="301" y="0" type="curve"/>
      <point x="422" y="0"/>
      <point x="294" y="0"/>
      <point x="415" y="0" type="curve"/>
      <point x="334" y="242"/>
      <point x="253" y="482"/>
      <point x="171" y="722" type="curve"/>
      <point x="51" y="722"/>
      <point x="171" y="722"/>
    </contour>
  </outline>
</glyph>
<glyph name="W" format="1">
  <advance width="921"/>
  <unicode hex="0057"/>
  <outline>
    <contour>
      <point x="141" y="632" type="curve"/>
      <point x="265" y="632"/>
      <point x="140" y="632"/>
      <point x="263" y="632" type="curve"/>
      <point x="263" y="722"/>
      <point x="263" y="632"/>
      <point x="263" y="722" type="curve"/>
      <point x="222" y="722"/>
      <point x="183" y="722"/>
      <point x="141" y="722" type="curve"/>
      <point x="141" y="632"/>
      <point x="141" y="722"/>
    </contour>
    <contour>
      <point x="136" y="722" type="curve"/>
      <point x="92" y="722"/>
      <point x="50" y="722"/>
      <point x="7" y="722" type="curve"/>
      <point x="7" y="632"/>
      <point x="7" y="722"/>
      <point x="7" y="632" type="curve"/>
      <point x="138" y="632"/>
      <point x="5" y="632"/>
      <point x="136" y="632" type="curve"/>
      <point x="136" y="722"/>
      <point x="136" y="632"/>
    </contour>
    <contour>
      <point x="780" y="722" type="curve"/>
      <point x="739" y="722"/>
      <point x="700" y="722"/>
      <point x="659" y="722" type="curve"/>
      <point x="659" y="632"/>
      <point x="659" y="722"/>
      <point x="659" y="632" type="curve"/>
      <point x="782" y="632"/>
      <point x="657" y="632"/>
      <point x="780" y="632" type="curve"/>
      <point x="780" y="722"/>
      <point x="780" y="632"/>
    </contour>
    <contour>
      <point x="783" y="632" type="curve"/>
      <point x="913" y="632"/>
      <point x="781" y="632"/>
      <point x="912" y="632" type="curve"/>
      <point x="912" y="722"/>
      <point x="912" y="632"/>
      <point x="912" y="722" type="curve"/>
      <point x="869" y="722"/>
      <point x="826" y="722"/>
      <point x="783" y="722" type="curve"/>
      <point x="783" y="632"/>
      <point x="783" y="722"/>
    </contour>
    <contour>
      <point x="335" y="0" type="curve"/>
      <point x="395" y="241"/>
      <point x="453" y="481"/>
      <point x="513" y="722" type="curve"/>
      <point x="408" y="722"/>
      <point x="514" y="722"/>
      <point x="409" y="722" type="curve"/>
      <point x="354" y="481"/>
      <point x="299" y="242"/>
      <point x="243" y="0" type="curve"/>
      <point x="343" y="0"/>
      <point x="235" y="0"/>
    </contour>
    <contour>
      <point x="418" y="722" type="curve"/>
      <point x="471" y="481"/>
      <point x="523" y="241"/>
      <point x="577" y="0" type="curve"/>
      <point x="677" y="0"/>
      <point x="567" y="0"/>
      <point x="667" y="0" type="curve"/>
      <point x="617" y="243"/>
      <point x="570" y="481"/>
      <point x="520" y="722" type="curve"/>
      <point x="416" y="722"/>
      <point x="522" y="722"/>
    </contour>
    <contour>
      <point x="67" y="722" type="curve"/>
      <point x="122" y="481"/>
      <point x="176" y="241"/>
      <point x="230" y="0" type="curve"/>
      <point x="330" y="0"/>
      <point x="228" y="0"/>
      <point x="329" y="0" type="curve"/>
      <point x="277" y="241"/>
      <point x="226" y="481"/>
      <point x="174" y="722" type="curve"/>
      <point x="67" y="722"/>
      <point x="174" y="722"/>
    </contour>
    <contour>
      <point x="745" y="722" type="curve"/>
      <point x="691" y="481"/>
      <point x="638" y="241"/>
      <point x="584" y="0" type="curve"/>
      <point x="685" y="0"/>
      <point x="582" y="0"/>
      <point x="682" y="0" type="curve"/>
      <point x="739" y="241"/>
      <point x="795" y="481"/>
      <point x="852" y="722" type="curve"/>
      <point x="745" y="722"/>
      <point x="852" y="722"/>
    </contour>
  </outline>
</glyph>
<glyph name="X" format="1">
  <advance width="686"/>
  <unicode hex="0058"/>
  <outline>
    <contour>
      <point x="154" y="0" type="curve"/>
      <point x="201" y="0"/>
      <point x="153" y="0"/>
      <point x="295" y="0" type="curve"/>
      <point x="295" y="90"/>
      <point x="295" y="0"/>
      <point x="295" y="90" type="curve"/>
      <point x="153" y="90"/>
      <point x="296" y="90"/>
      <point x="154" y="90" type="curve"/>
      <point x="154" y="0"/>
      <point x="154" y="90"/>
    </contour>
    <contour>
      <point x="143" y="90" type="curve"/>
      <point x="11" y="90"/>
      <point x="145" y="90"/>
      <point x="12" y="90" type="curve"/>
      <point x="12" y="0"/>
      <point x="12" y="90"/>
      <point x="12" y="0" type="curve"/>
      <point x="56" y="0"/>
      <point x="99" y="0"/>
      <point x="143" y="0" type="curve"/>
      <point x="143" y="90"/>
      <point x="143" y="0"/>
    </contour>
    <contour>
      <point x="540" y="0" type="curve"/>
      <point x="584" y="0"/>
      <point x="627" y="0"/>
      <point x="670" y="0" type="curve"/>
      <point x="670" y="90"/>
      <point x="670" y="0"/>
      <point x="670" y="90" type="curve"/>
      <point x="538" y="90"/>
      <point x="672" y="90"/>
      <point x="540" y="90" type="curve"/>
      <point x="540" y="0"/>
      <point x="540" y="90"/>
    </contour>
    <contour>
      <point x="528" y="90" type="curve"/>
      <point x="386" y="90"/>
      <point x="530" y="90"/>
      <point x="388" y="90" type="curve"/>
      <point x="388" y="0"/>
      <point x="388" y="90"/>
      <point x="388" y="0" type="curve"/>
      <point x="435" y="0"/>
      <point x="481" y="0"/>
      <point x="528" y="0" type="curve"/>
      <point x="528" y="90"/>
      <point x="528" y="0"/>
    </contour>
    <contour>
      <point x="519" y="632" type="curve"/>
      <point x="652" y="632"/>
      <point x="517" y="632"/>
      <point x="650" y="632" type="curve"/>
      <point x="650" y="722"/>
      <point x="650" y="632"/>
      <point x="650" y="722" type="curve"/>
      <point x="606" y="722"/>
      <point x="563" y="722"/>
      <point x="519" y="722" type="curve"/>
      <point x="519" y="632"/>
      <point x="519" y="722"/>
    </contour>
    <contour>
      <point x="527" y="722" type="curve"/>
      <point x="478" y="722"/>
      <point x="430" y="722"/>
      <point x="381" y="722" type="curve"/>
      <point x="381" y="632"/>
      <point x="381" y="722"/>
      <point x="381" y="632" type="curve"/>
      <point x="529" y="632"/>
      <point x="379" y="632"/>
      <point x="527" y="632" type="curve"/>
      <point x="527" y="722"/>
      <point x="527" y="632"/>
    </contour>
    <contour>
      <point x="169" y="722" type="curve"/>
      <point x="125" y="722"/>
      <point x="82" y="722"/>
      <point x="38" y="722" type="curve"/>
      <point x="38" y="632"/>
      <point x="38" y="722"/>
      <point x="38" y="632" type="curve"/>
      <point x="170" y="632"/>
      <point x="36" y="632"/>
      <point x="169" y="632" type="curve"/>
      <point x="169" y="722"/>
      <point x="169" y="632"/>
    </contour>
    <contour>
      <point x="160" y="632" type="curve"/>
      <point x="309" y="632"/>
      <point x="159" y="632"/>
      <point x="307" y="632" type="curve"/>
      <point x="307" y="722"/>
      <point x="307" y="632"/>
      <point x="307" y="722" type="curve"/>
      <point x="258" y="722"/>
      <point x="210" y="722"/>
      <point x="160" y="722" type="curve"/>
      <point x="160" y="632"/>
      <point x="160" y="722"/>
    </contour>
    <contour>
      <point x="496" y="722" type="curve"/>
      <point x="351" y="484"/>
      <point x="204" y="248"/>
      <point x="59" y="10" type="curve"/>
      <point x="176" y="10"/>
      <point x="59" y="0"/>
      <point x="176" y="0" type="curve"/>
      <point x="320" y="238"/>
      <point x="464" y="476"/>
      <point x="608" y="713" type="curve"/>
      <point x="496" y="713"/>
      <point x="608" y="722"/>
    </contour>
    <contour>
      <point x="82" y="713" type="curve"/>
      <point x="225" y="475"/>
      <point x="367" y="238"/>
      <point x="510" y="0" type="curve"/>
      <point x="627" y="0"/>
      <point x="510" y="7"/>
      <point x="627" y="7" type="curve"/>
      <point x="482" y="246"/>
      <point x="337" y="483"/>
      <point x="193" y="722" type="curve"/>
      <point x="82" y="722"/>
      <point x="193" y="713"/>
    </contour>
  </outline>
</glyph>
<glyph name="Y" format="1">
  <advance width="635"/>
  <unicode hex="0059"/>
  <outline>
    <contour>
      <point x="310" y="90" type="curve"/>
      <point x="169" y="90"/>
      <point x="312" y="90"/>
      <point x="170" y="90" type="curve"/>
      <point x="170" y="0"/>
      <point x="170" y="90"/>
      <point x="170" y="0" type="curve"/>
      <point x="217" y="0"/>
      <point x="263" y="0"/>
      <point x="310" y="0" type="curve"/>
      <point x="310" y="90"/>
      <point x="310" y="0"/>
    </contour>
    <contour>
      <point x="310" y="0" type="curve"/>
      <point x="358" y="0"/>
      <point x="403" y="0"/>
      <point x="450" y="0" type="curve"/>
      <point x="450" y="90"/>
      <point x="450" y="0"/>
      <point x="450" y="90" type="curve"/>
      <point x="309" y="90"/>
      <point x="452" y="90"/>
      <point x="310" y="90" type="curve"/>
      <point x="310" y="0"/>
      <point x="310" y="90"/>
    </contour>
    <contour>
      <point x="495" y="722" type="curve"/>
      <point x="450" y="722"/>
      <point x="406" y="722"/>
      <point x="361" y="722" type="curve"/>
      <point x="361" y="632"/>
      <point x="361" y="722"/>
      <point x="361" y="632" type="curve"/>
      <point x="497" y="632"/>
      <point x="359" y="632"/>
      <point x="495" y="632" type="curve"/>
      <point x="495" y="722"/>
      <point x="495" y="632"/>
    </contour>
    <contour>
      <point x="125" y="722" type="curve"/>
      <point x="86" y="722"/>
      <point x="48" y="722"/>
      <point x="10" y="722" type="curve"/>
      <point x="9" y="632"/>
      <point x="10" y="722"/>
      <point x="9" y="632" type="curve"/>
      <point x="127" y="632"/>
      <point x="8" y="632"/>
      <point x="125" y="632" type="curve"/>
      <point x="125" y="722"/>
      <point x="125" y="632"/>
    </contour>
    <contour>
      <point x="136" y="632" type="curve"/>
      <point x="272" y="632"/>
      <point x="135" y="632"/>
      <point x="271" y="632" type="curve"/>
      <point x="271" y="722"/>
      <point x="271" y="632"/>
      <point x="271" y="722" type="curve"/>
      <point x="226" y="722"/>
      <point x="181" y="722"/>
      <point x="136" y="722" type="curve"/>
      <point x="136" y="632"/>
      <point x="136" y="722"/>
    </contour>
    <contour>
      <point x="506" y="632" type="curve"/>
      <point x="627" y="632"/>
      <point x="505" y="632"/>
      <point x="626" y="632" type="curve"/>
      <point x="626" y="722"/>
      <point x="626" y="632"/>
      <point x="626" y="722" type="curve"/>
      <point x="586" y="722"/>
      <point x="547" y="722"/>
      <point x="506" y="722" type="curve"/>
      <point x="506" y="632"/>
      <point x="506" y="722"/>
    </contour>
    <contour>
      <point x="48" y="714" type="curve"/>
      <point x="116" y="588"/>
      <point x="181" y="464"/>
      <point x="247" y="337" type="curve"/>
      <point x="367" y="337"/>
      <point x="235" y="337"/>
      <point x="355" y="337" type="curve"/>
      <point x="290" y="468"/>
      <point x="227" y="592"/>
      <point x="161" y="722" type="curve"/>
      <point x="48" y="722"/>
      <point x="161" y="714"/>
    </contour>
    <contour>
      <point x="471" y="722" type="curve"/>
      <point x="400" y="591"/>
      <point x="333" y="467"/>
      <point x="260" y="337" type="curve"/>
      <point x="380" y="337"/>
      <point x="254" y="337"/>
      <point x="373" y="337" type="curve"/>
      <point x="444" y="464"/>
      <point x="513" y="589"/>
      <point x="584" y="714" type="curve"/>
      <point x="471" y="714"/>
      <point x="584" y="722"/>
    </contour>
    <contour>
      <point x="374" y="0" type="curve"/>
      <point x="374" y="115"/>
      <point x="374" y="226"/>
      <point x="374" y="341" type="curve"/>
      <point x="246" y="341"/>
      <point x="374" y="341"/>
      <point x="246" y="341" type="curve"/>
      <point x="246" y="226"/>
      <point x="246" y="115"/>
      <point x="246" y="0" type="curve"/>
      <point x="374" y="0"/>
      <point x="246" y="0"/>
    </contour>
    <contour>
      <point x="315" y="791" type="move" name="top"/>
    </contour>
  </outline>
</glyph>
<glyph name="Z" format="1">
  <advance width="655"/>
  <unicode hex="005A"/>
  <outline>
    <contour>
      <point x="67" y="677" type="curve"/>
      <point x="67" y="557"/>
      <point x="67" y="679"/>
      <point x="67" y="559" type="curve"/>
      <point x="159" y="559"/>
      <point x="67" y="559"/>
      <point x="159" y="559" type="curve"/>
      <point x="159" y="679"/>
      <point x="159" y="557"/>
      <point x="159" y="677" type="curve"/>
      <point x="67" y="677"/>
      <point x="159" y="677"/>
    </contour>
    <contour>
      <point x="607" y="45" type="curve"/>
      <point x="607" y="165"/>
      <point x="607" y="43"/>
      <point x="607" y="163" type="curve"/>
      <point x="515" y="163"/>
      <point x="607" y="163"/>
      <point x="515" y="163" type="curve"/>
      <point x="515" y="43"/>
      <point x="515" y="165"/>
      <point x="515" y="45" type="curve"/>
      <point x="607" y="45"/>
      <point x="515" y="45"/>
    </contour>
    <contour>
      <point x="67" y="632" type="curve"/>
      <point x="210" y="632"/>
      <point x="395" y="632"/>
      <point x="539" y="632" type="curve"/>
      <point x="529" y="641"/>
      <point x="513" y="639"/>
      <point x="504" y="648" type="curve"/>
      <point x="496" y="656"/>
      <point x="496" y="670"/>
      <point x="489" y="678" type="curve"/>
      <point x="482" y="670"/>
      <point x="469" y="676"/>
      <point x="464" y="668" type="curve"/>
      <point x="35" y="90" type="line"/>
      <point x="35" y="44"/>
      <point x="35" y="90"/>
      <point x="35" y="44" type="curve"/>
      <point x="35" y="0"/>
      <point x="35" y="44"/>
      <point x="35" y="0" type="curve"/>
      <point x="78" y="0"/>
      <point x="35" y="0"/>
      <point x="78" y="0" type="curve"/>
      <point x="591" y="0"/>
      <point x="436" y="0"/>
      <point x="607" y="0" type="curve"/>
      <point x="607" y="90"/>
      <point x="607" y="0"/>
      <point x="607" y="90" type="curve"/>
      <point x="436" y="90"/>
      <point x="248" y="90"/>
      <point x="78" y="90" type="curve"/>
      <point x="86" y="83"/>
      <point x="99" y="83"/>
      <point x="107" y="77" type="curve"/>
      <point x="116" y="68"/>
      <point x="117" y="53"/>
      <point x="126" y="44" type="curve"/>
      <point x="133" y="53"/>
      <point x="148" y="46"/>
      <point x="156" y="54" type="curve"/>
      <point x="587" y="632" type="line"/>
      <point x="587" y="678"/>
      <point x="587" y="632"/>
      <point x="587" y="678" type="curve"/>
      <point x="587" y="722"/>
      <point x="587" y="678"/>
      <point x="587" y="722" type="curve"/>
      <point x="535" y="722"/>
      <point x="587" y="722"/>
      <point x="535" y="722" type="curve"/>
      <point x="392" y="722"/>
      <point x="209" y="722"/>
      <point x="67" y="722" type="curve"/>
      <point x="67" y="632"/>
      <point x="67" y="722"/>
    </contour>
    <contour>
      <point x="326" y="791" type="move" name="top"/>
    </contour>
  </outline>
</glyph>
<glyph name="bracketleft" format="1">
  <advance width="308"/>
  <unicode hex="005B"/>
  <outline>
    <contour>
      <point x="263" y="769" type="curve"/>
      <point x="218" y="769"/>
      <point x="172" y="769"/>
      <point x="127" y="769" type="curve"/>
      <point x="114" y="769"/>
      <point x="87" y="769"/>
      <point x="74" y="769" type="curve"/>
      <point x="74" y="756"/>
      <point x="74" y="739"/>
      <point x="74" y="726" type="curve"/>
      <point x="74" y="459"/>
      <point x="74" y="193"/>
      <point x="74" y="-73" type="curve"/>
      <point x="74" y="-87"/>
      <point x="74" y="-99"/>
      <point x="74" y="-115" type="curve"/>
      <point x="87" y="-115"/>
      <point x="112" y="-115"/>
      <point x="126" y="-115" type="curve"/>
      <point x="171" y="-115"/>
      <point x="217" y="-115"/>
      <point x="263" y="-115" type="curve"/>
      <point x="263" y="-16"/>
      <point x="263" y="-115"/>
      <point x="263" y="-16" type="curve"/>
      <point x="217" y="-16"/>
      <point x="171" y="-16"/>
      <point x="126" y="-16" type="curve"/>
      <point x="192" y="-16"/>
      <point x="126" y="-16"/>
      <point x="192" y="-16" type="curve"/>
      <point x="192" y="-73"/>
      <point x="192" y="-16"/>
      <point x="192" y="-73" type="curve"/>
      <point x="192" y="193"/>
      <point x="192" y="459"/>
      <point x="192" y="726" type="curve"/>
      <point x="192" y="671"/>
      <point x="192" y="726"/>
      <point x="192" y="671" type="curve"/>
      <point x="127" y="671"/>
      <point x="192" y="671"/>
      <point x="127" y="671" type="curve"/>
      <point x="172" y="671"/>
      <point x="218" y="671"/>
      <point x="263" y="671" type="curve"/>
      <point x="263" y="769"/>
      <point x="263" y="671"/>
    </contour>
  </outline>
</glyph>
<glyph name="backslash" format="1">
  <advance width="531"/>
  <unicode hex="005C"/>
  <outline>
    <contour>
      <point x="501" y="-68" type="curve"/>
      <point x="385" y="236"/>
      <point x="268" y="540"/>
      <point x="152" y="844" type="curve"/>
      <point x="29" y="844"/>
      <point x="152" y="844"/>
      <point x="29" y="844" type="curve"/>
      <point x="146" y="540"/>
      <point x="262" y="236"/>
      <point x="379" y="-68" type="curve"/>
      <point x="501" y="-68"/>
      <point x="379" y="-68"/>
    </contour>
  </outline>
</glyph>
<glyph name="bracketright" format="1">
  <advance width="309"/>
  <unicode hex="005D"/>
  <outline>
    <contour>
      <point x="46" y="671" type="curve"/>
      <point x="91" y="671"/>
      <point x="136" y="671"/>
      <point x="182" y="671" type="curve"/>
      <point x="171" y="680"/>
      <point x="155" y="683"/>
      <point x="145" y="692" type="curve"/>
      <point x="135" y="702"/>
      <point x="127" y="715"/>
      <point x="117" y="726" type="curve"/>
      <point x="117" y="459"/>
      <point x="116" y="193"/>
      <point x="117" y="-73" type="curve"/>
      <point x="127" y="-62"/>
      <point x="137" y="-51"/>
      <point x="148" y="-41" type="curve"/>
      <point x="158" y="-30"/>
      <point x="173" y="-26"/>
      <point x="182" y="-16" type="curve"/>
      <point x="137" y="-16"/>
      <point x="91" y="-16"/>
      <point x="46" y="-16" type="curve"/>
      <point x="45" y="-115"/>
      <point x="46" y="-16"/>
      <point x="45" y="-115" type="curve"/>
      <point x="91" y="-115"/>
      <point x="137" y="-115"/>
      <point x="182" y="-115" type="curve"/>
      <point x="234" y="-115"/>
      <point x="182" y="-115"/>
      <point x="234" y="-115" type="curve"/>
      <point x="234" y="-73"/>
      <point x="234" y="-115"/>
      <point x="234" y="-73" type="curve"/>
      <point x="234" y="193"/>
      <point x="234" y="459"/>
      <point x="234" y="726" type="curve"/>
      <point x="234" y="769"/>
      <point x="234" y="726"/>
      <point x="234" y="769" type="curve"/>
      <point x="182" y="769"/>
      <point x="234" y="769"/>
      <point x="182" y="769" type="curve"/>
      <point x="136" y="769"/>
      <point x="91" y="769"/>
      <point x="46" y="769" type="curve"/>
      <point x="46" y="671"/>
      <point x="46" y="769"/>
    </contour>
  </outline>
</glyph>
<glyph name="asciicircum" format="1">
  <advance width="531"/>
  <unicode hex="005E"/>
  <outline>
    <contour>
      <point x="169" y="456" type="curve"/>
      <point x="220" y="560"/>
      <point x="272" y="663"/>
      <point x="324" y="767" type="curve"/>
      <point x="206" y="767"/>
      <point x="324" y="767"/>
      <point x="206" y="767" type="curve"/>
      <point x="154" y="663"/>
      <point x="102" y="560"/>
      <point x="51" y="456" type="curve"/>
      <point x="168" y="456"/>
      <point x="51" y="456"/>
    </contour>
    <contour>
      <point x="480" y="456" type="curve"/>
      <point x="429" y="558"/>
      <point x="375" y="664"/>
      <point x="324" y="767" type="curve"/>
      <point x="207" y="767"/>
      <point x="324" y="767"/>
      <point x="206" y="767" type="curve"/>
      <point x="257" y="664"/>
      <point x="311" y="558"/>
      <point x="363" y="456" type="curve"/>
      <point x="480" y="456"/>
      <point x="363" y="456"/>
    </contour>
  </outline>
</glyph>
<glyph name="underscore" format="1">
  <advance width="607"/>
  <unicode hex="005F"/>
  <outline>
    <contour>
      <point x="0" y="-189" type="curve"/>
      <point x="203" y="-189"/>
      <point x="405" y="-189"/>
      <point x="607" y="-189" type="curve"/>
      <point x="607" y="-99"/>
      <point x="607" y="-189"/>
      <point x="607" y="-99" type="curve"/>
      <point x="405" y="-99"/>
      <point x="203" y="-99"/>
      <point x="0" y="-99" type="curve"/>
      <point x="0" y="-189"/>
      <point x="0" y="-99"/>
    </contour>
  </outline>
</glyph>
<glyph name="grave" format="1">
  <advance width="365"/>
  <unicode hex="0060"/>
  <outline>
    <contour>
      <point x="304" y="579" type="line"/>
      <point x="203" y="745" type="line"/>
      <point x="56" y="745" type="line"/>
      <point x="190" y="579" type="line"/>
    </contour>
    <contour>
      <point x="243" y="578" type="move" name="_top"/>
    </contour>
  </outline>
</glyph>
<glyph name="b" format="1">
  <advance width="643"/>
  <unicode hex="0062"/>
  <outline>
    <contour>
      <point x="168" y="800" type="curve"/>
      <point x="119" y="800"/>
      <point x="77" y="800"/>
      <point x="28" y="800" type="curve"/>
      <point x="28" y="724"/>
      <point x="28" y="786"/>
      <point x="28" y="710" type="curve"/>
      <point x="149" y="710"/>
      <point x="46" y="710"/>
      <point x="168" y="710" type="curve"/>
      <point x="168" y="786"/>
      <point x="168" y="724"/>
    </contour>
    <contour>
      <point x="196" y="354" type="curve"/>
      <point x="228" y="396"/>
      <point x="279" y="444"/>
      <point x="351" y="444" type="curve"/>
      <point x="443" y="444"/>
      <point x="480" y="364"/>
      <point x="480" y="263" type="curve"/>
      <point x="481" y="165"/>
      <point x="440" y="88"/>
      <point x="352" y="89" type="curve"/>
      <point x="289" y="89"/>
      <point x="241" y="119"/>
      <point x="204" y="165" type="curve"/>
      <point x="153" y="130"/>
      <point x="193" y="157"/>
      <point x="141" y="122" type="curve"/>
      <point x="198" y="47"/>
      <point x="263" y="-5"/>
      <point x="367" y="-5" type="curve"/>
      <point x="514" y="-5"/>
      <point x="598" y="106"/>
      <point x="598" y="267" type="curve"/>
      <point x="598" y="426"/>
      <point x="515" y="538"/>
      <point x="368" y="538" type="curve"/>
      <point x="263" y="538"/>
      <point x="194" y="473"/>
      <point x="145" y="403" type="curve"/>
      <point x="187" y="366"/>
      <point x="153" y="390"/>
    </contour>
    <contour>
      <point x="225" y="0" type="curve"/>
      <point x="225" y="275"/>
      <point x="225" y="525"/>
      <point x="225" y="800" type="curve"/>
      <point x="127" y="800"/>
      <point x="205" y="800"/>
      <point x="107" y="800" type="curve"/>
      <point x="107" y="525"/>
      <point x="107" y="275"/>
      <point x="107" y="0" type="curve"/>
      <point x="205" y="0"/>
      <point x="127" y="0"/>
    </contour>
    <contour>
      <point x="168" y="90" type="curve"/>
      <point x="47" y="90"/>
      <point x="149" y="90"/>
      <point x="28" y="90" type="curve"/>
      <point x="28" y="14"/>
      <point x="28" y="76"/>
      <point x="28" y="0" type="curve"/>
      <point x="77" y="0"/>
      <point x="119" y="0"/>
      <point x="168" y="0" type="curve"/>
      <point x="168" y="76"/>
      <point x="168" y="14"/>
    </contour>
  </outline>
</glyph>
<glyph name="d" format="1">
  <advance width="645"/>
  <unicode hex="0064"/>
  <outline>
    <contour>
      <point x="476" y="800" type="curve"/>
      <point x="428" y="800"/>
      <point x="385" y="800"/>
      <point x="337" y="800" type="curve"/>
      <point x="337" y="710"/>
      <point x="337" y="800"/>
      <point x="337" y="710" type="curve"/>
      <point x="480" y="710"/>
      <point x="333" y="710"/>
      <point x="477" y="710" type="curve"/>
      <point x="477" y="800"/>
      <point x="476" y="710"/>
    </contour>
    <contour>
      <point x="478" y="0" type="curve"/>
      <point x="526" y="0"/>
      <point x="570" y="0"/>
      <point x="618" y="0" type="curve"/>
      <point x="618" y="90"/>
      <point x="618" y="0"/>
      <point x="618" y="90" type="curve"/>
      <point x="474" y="90"/>
      <point x="621" y="90"/>
      <point x="478" y="90" type="curve"/>
      <point x="478" y="-1"/>
      <point x="478" y="90"/>
    </contour>
    <contour>
      <point x="487" y="437" type="curve"/>
      <point x="436" y="500"/>
      <point x="365" y="535"/>
      <point x="281" y="535" type="curve"/>
      <point x="128" y="535"/>
      <point x="46" y="422"/>
      <point x="46" y="262" type="curve"/>
      <point x="46" y="105"/>
      <point x="131" y="-2"/>
      <point x="279" y="-2" type="curve"/>
      <point x="376" y="-2"/>
      <point x="443" y="44"/>
      <point x="488" y="126" type="curve"/>
      <point x="442" y="184"/>
      <point x="486" y="126"/>
      <point x="440" y="184" type="curve"/>
      <point x="406" y="125"/>
      <point x="363" y="88"/>
      <point x="299" y="88" type="curve"/>
      <point x="207" y="88"/>
      <point x="163" y="164"/>
      <point x="163" y="267" type="curve"/>
      <point x="163" y="370"/>
      <point x="211" y="445"/>
      <point x="303" y="445" type="curve"/>
      <point x="360" y="445"/>
      <point x="410" y="415"/>
      <point x="443" y="371" type="curve"/>
      <point x="489" y="435"/>
      <point x="441" y="373"/>
    </contour>
    <contour>
      <point x="539" y="0" type="curve"/>
      <point x="539" y="267"/>
      <point x="539" y="533"/>
      <point x="539" y="800" type="curve"/>
      <point x="416" y="800"/>
      <point x="539" y="800"/>
      <point x="416" y="800" type="curve"/>
      <point x="416" y="533"/>
      <point x="416" y="267"/>
      <point x="416" y="0" type="curve"/>
      <point x="539" y="0"/>
      <point x="416" y="0"/>
    </contour>
  </outline>
</glyph>
<glyph name="f" format="1">
  <advance width="451"/>
  <unicode hex="0066"/>
  <outline>
    <contour>
      <point x="339" y="770" type="curve"/>
      <point x="339" y="647"/>
      <point x="339" y="771"/>
      <point x="339" y="649" type="curve"/>
      <point x="431" y="649"/>
      <point x="339" y="649"/>
      <point x="431" y="649" type="curve"/>
      <point x="431" y="771"/>
      <point x="431" y="647"/>
      <point x="431" y="770" type="curve"/>
      <point x="339" y="770"/>
      <point x="431" y="770"/>
    </contour>
    <contour>
      <point x="189" y="-1" type="curve"/>
      <point x="238" y="-1"/>
      <point x="279" y="0"/>
      <point x="328" y="0" type="curve"/>
      <point x="328" y="90"/>
      <point x="328" y="0"/>
      <point x="328" y="90" type="curve"/>
      <point x="181" y="90"/>
      <point x="335" y="90"/>
      <point x="189" y="90" type="curve"/>
      <point x="189" y="-1"/>
      <point x="189" y="90"/>
    </contour>
    <contour>
      <point x="189" y="90" type="curve"/>
      <point x="42" y="90"/>
      <point x="196" y="90"/>
      <point x="49" y="90" type="curve"/>
      <point x="49" y="0"/>
      <point x="49" y="90"/>
      <point x="49" y="0" type="curve"/>
      <point x="99" y="0"/>
      <point x="140" y="-1"/>
      <point x="189" y="-1" type="curve"/>
      <point x="189" y="90"/>
      <point x="189" y="-1"/>
    </contour>
    <contour>
      <point x="28" y="443" type="curve"/>
      <point x="391" y="443" type="line"/>
      <point x="391" y="533"/>
      <point x="391" y="443"/>
      <point x="391" y="533" type="curve"/>
      <point x="28" y="533" type="line"/>
      <point x="28" y="443"/>
      <point x="28" y="533"/>
    </contour>
    <contour>
      <point x="247" y="0" type="curve"/>
      <point x="247" y="612" type="line"/>
      <point x="247" y="671"/>
      <point x="262" y="717"/>
      <point x="316" y="717" type="curve"/>
      <point x="340" y="717"/>
      <point x="362" y="709"/>
      <point x="383" y="698" type="curve"/>
      <point x="431" y="770"/>
      <point x="383" y="698"/>
      <point x="431" y="770" type="curve"/>
      <point x="396" y="789"/>
      <point x="356" y="804"/>
      <point x="316" y="804" type="curve"/>
      <point x="200" y="804"/>
      <point x="129" y="729"/>
      <point x="130" y="612" type="curve"/>
      <point x="130" y="0" type="line"/>
      <point x="247" y="0"/>
      <point x="130" y="0"/>
    </contour>
  </outline>
</glyph>
<glyph name="g" format="1">
  <advance width="543"/>
  <unicode hex="0067"/>
  <outline>
    <contour>
      <point x="385" y="446" type="curve"/>
      <point x="524" y="512" type="line"/>
      <point x="521" y="516"/>
      <point x="479" y="594"/>
      <point x="476" y="597" type="curve"/>
      <point x="323" y="516" type="line"/>
      <point x="385" y="446"/>
      <point x="323" y="516"/>
    </contour>
    <contour>
      <point x="186" y="341" type="curve"/>
      <point x="186" y="403"/>
      <point x="222" y="448"/>
      <point x="283" y="448" type="curve"/>
      <point x="344" y="448"/>
      <point x="377" y="403"/>
      <point x="377" y="341" type="curve"/>
      <point x="377" y="283"/>
      <point x="343" y="241"/>
      <point x="283" y="241" type="curve"/>
      <point x="224" y="241"/>
      <point x="186" y="280"/>
      <point x="186" y="341" type="curve"/>
      <point x="68" y="337"/>
      <point x="186" y="341"/>
      <point x="68" y="337" type="curve"/>
      <point x="68" y="220"/>
      <point x="155" y="152"/>
      <point x="277" y="152" type="curve"/>
      <point x="402" y="152"/>
      <point x="494" y="222"/>
      <point x="494" y="345" type="curve"/>
      <point x="494" y="464"/>
      <point x="407" y="538"/>
      <point x="283" y="538" type="curve"/>
      <point x="156" y="538"/>
      <point x="68" y="461"/>
      <point x="68" y="337" type="curve"/>
      <point x="186" y="341"/>
      <point x="68" y="337"/>
    </contour>
    <contour>
      <point x="166" y="242" type="curve"/>
      <point x="111" y="211"/>
      <point x="71" y="174"/>
      <point x="71" y="112" type="curve"/>
      <point x="71" y="14"/>
      <point x="162" y="-19"/>
      <point x="268" y="-29" type="curve"/>
      <point x="350" y="-36"/>
      <point x="429" y="-50"/>
      <point x="429" y="-124" type="curve"/>
      <point x="429" y="-191"/>
      <point x="361" y="-215"/>
      <point x="283" y="-215" type="curve"/>
      <point x="209" y="-215"/>
      <point x="150" y="-181"/>
      <point x="150" y="-110" type="curve"/>
      <point x="150" y="-55"/>
      <point x="174" y="-15"/>
      <point x="221" y="5" type="curve"/>
      <point x="162" y="59"/>
      <point x="221" y="5"/>
      <point x="162" y="59" type="curve"/>
      <point x="85" y="27"/>
      <point x="33" y="-27"/>
      <point x="33" y="-115" type="curve"/>
      <point x="33" y="-244"/>
      <point x="141" y="-305"/>
      <point x="278" y="-305" type="curve"/>
      <point x="420" y="-305"/>
      <point x="539" y="-249"/>
      <point x="536" y="-115" type="curve"/>
      <point x="536" y="10"/>
      <point x="421" y="46"/>
      <point x="289" y="57" type="curve"/>
      <point x="236" y="61"/>
      <point x="189" y="76"/>
      <point x="189" y="121" type="curve"/>
      <point x="189" y="150"/>
      <point x="201" y="168"/>
      <point x="225" y="185" type="curve"/>
      <point x="166" y="242"/>
      <point x="225" y="185"/>
    </contour>
    <contour>
      <point x="279" y="625" type="move" name="top"/>
    </contour>
  </outline>
</glyph>
<glyph name="h" format="1">
  <advance width="622"/>
  <unicode hex="0068"/>
  <outline>
    <contour>
      <point x="478" y="-1" type="curve"/>
      <point x="527" y="-1"/>
      <point x="569" y="0"/>
      <point x="618" y="0" type="curve"/>
      <point x="618" y="90"/>
      <point x="618" y="0"/>
      <point x="618" y="90" type="curve"/>
      <point x="470" y="90"/>
      <point x="626" y="90"/>
      <point x="478" y="90" type="curve"/>
      <point x="478" y="-1"/>
      <point x="478" y="90"/>
    </contour>
    <contour>
      <point x="148" y="-1" type="curve"/>
      <point x="191" y="-1"/>
      <point x="141" y="-1"/>
      <point x="270" y="0" type="curve"/>
      <point x="270" y="90"/>
      <point x="270" y="0"/>
      <point x="270" y="90" type="curve"/>
      <point x="141" y="90"/>
      <point x="278" y="90"/>
      <point x="148" y="90" type="curve"/>
      <point x="148" y="-1"/>
      <point x="148" y="90"/>
    </contour>
    <contour>
      <point x="148" y="799" type="curve"/>
      <point x="99" y="799"/>
      <point x="57" y="800"/>
      <point x="8" y="800" type="curve"/>
      <point x="7" y="710"/>
      <point x="8" y="800"/>
      <point x="7" y="710" type="curve"/>
      <point x="156" y="710"/>
      <point x="0" y="710"/>
      <point x="148" y="710" type="curve"/>
      <point x="148" y="799"/>
      <point x="148" y="710"/>
    </contour>
    <contour>
      <point x="148" y="90" type="curve"/>
      <point x="0" y="90"/>
      <point x="156" y="90"/>
      <point x="8" y="90" type="curve"/>
      <point x="7" y="0"/>
      <point x="8" y="90"/>
      <point x="7" y="0" type="curve"/>
      <point x="57" y="0"/>
      <point x="99" y="-1"/>
      <point x="148" y="-1" type="curve"/>
      <point x="148" y="90"/>
      <point x="148" y="-1"/>
    </contour>
    <contour>
      <point x="180" y="307" type="curve"/>
      <point x="204" y="380"/>
      <point x="256" y="445"/>
      <point x="327" y="445" type="curve"/>
      <point x="399" y="445"/>
      <point x="420" y="389"/>
      <point x="420" y="313" type="curve"/>
      <point x="420" y="208"/>
      <point x="420" y="105"/>
      <point x="420" y="0" type="curve"/>
      <point x="538" y="0"/>
      <point x="420" y="0"/>
      <point x="538" y="0" type="curve"/>
      <point x="538" y="108"/>
      <point x="538" y="217"/>
      <point x="538" y="325" type="curve"/>
      <point x="538" y="454"/>
      <point x="485" y="535"/>
      <point x="356" y="535" type="curve"/>
      <point x="254" y="535"/>
      <point x="172" y="458"/>
      <point x="141" y="352" type="curve"/>
      <point x="181" y="306"/>
      <point x="140" y="352"/>
    </contour>
    <contour>
      <point x="206" y="0" type="curve"/>
      <point x="206" y="267"/>
      <point x="206" y="533"/>
      <point x="206" y="800" type="curve"/>
      <point x="89" y="800"/>
      <point x="206" y="800"/>
      <point x="89" y="800" type="curve"/>
      <point x="89" y="533"/>
      <point x="89" y="267"/>
      <point x="89" y="0" type="curve"/>
      <point x="206" y="0"/>
      <point x="89" y="0"/>
    </contour>
  </outline>
</glyph>
<glyph name="i" format="1">
  <advance width="321"/>
  <unicode hex="0069"/>
  <outline>
    <contour>
      <point x="170" y="90" type="curve"/>
      <point x="22" y="90"/>
      <point x="177" y="90"/>
      <point x="30" y="90" type="curve"/>
      <point x="29" y="0"/>
      <point x="30" y="90"/>
      <point x="29" y="0" type="curve"/>
      <point x="78" y="0"/>
      <point x="120" y="0"/>
      <point x="170" y="0" type="curve"/>
      <point x="170" y="90"/>
      <point x="170" y="0"/>
    </contour>
    <contour>
      <point x="170" y="0" type="curve"/>
      <point x="216" y="0"/>
      <point x="256" y="0"/>
      <point x="303" y="0" type="curve"/>
      <point x="303" y="90"/>
      <point x="303" y="0"/>
      <point x="303" y="90" type="curve"/>
      <point x="164" y="90"/>
      <point x="309" y="90"/>
      <point x="170" y="90" type="curve"/>
      <point x="170" y="0"/>
      <point x="170" y="90"/>
    </contour>
    <contour>
      <point x="170" y="533" type="curve"/>
      <point x="120" y="533"/>
      <point x="78" y="533"/>
      <point x="30" y="533" type="curve"/>
      <point x="29" y="443"/>
      <point x="30" y="533"/>
      <point x="29" y="443" type="curve"/>
      <point x="177" y="443"/>
      <point x="21" y="443"/>
      <point x="170" y="443" type="curve"/>
      <point x="170" y="533"/>
      <point x="170" y="443"/>
    </contour>
    <contour>
      <point x="232" y="0" type="curve"/>
      <point x="232" y="178"/>
      <point x="232" y="355"/>
      <point x="232" y="533" type="curve"/>
      <point x="108" y="533"/>
      <point x="232" y="533"/>
      <point x="108" y="533" type="curve"/>
      <point x="108" y="355"/>
      <point x="108" y="178"/>
      <point x="108" y="0" type="curve"/>
      <point x="232" y="0"/>
      <point x="108" y="0"/>
    </contour>
    <contour>
      <point x="231" y="681" type="curve"/>
      <point x="231" y="721"/>
      <point x="204" y="741"/>
      <point x="166" y="741" type="curve"/>
      <point x="128" y="741"/>
      <point x="103" y="719"/>
      <point x="103" y="681" type="curve"/>
      <point x="230" y="681"/>
      <point x="104" y="681"/>
      <point x="231" y="681" type="curve"/>
      <point x="231" y="641"/>
      <point x="204" y="623"/>
      <point x="166" y="623" type="curve"/>
      <point x="127" y="623"/>
      <point x="103" y="642"/>
      <point x="103" y="681" type="curve"/>
      <point x="230" y="681"/>
      <point x="104" y="681"/>
    </contour>
    <contour>
      <point x="166" y="625" type="move" name="top"/>
    </contour>
    <contour>
      <point x="223" y="5" type="move" name="bottom"/>
    </contour>
  </outline>
</glyph>
<glyph name="j" format="1">
  <advance width="290"/>
  <unicode hex="006A"/>
  <outline>
    <contour>
      <point x="151" y="533" type="curve"/>
      <point x="102" y="533"/>
      <point x="54" y="533"/>
      <point x="5" y="533" type="curve"/>
      <point x="5" y="443"/>
      <point x="5" y="533"/>
      <point x="5" y="443" type="curve"/>
      <point x="153" y="443"/>
      <point x="3" y="443"/>
      <point x="151" y="443" type="curve"/>
      <point x="151" y="533"/>
      <point x="151" y="443"/>
    </contour>
    <contour>
      <point x="-12" y="-303" type="curve"/>
      <point x="-3" y="-304"/>
      <point x="8" y="-305"/>
      <point x="19" y="-305" type="curve"/>
      <point x="131" y="-305"/>
      <point x="211" y="-235"/>
      <point x="211" y="-125" type="curve"/>
      <point x="211" y="95"/>
      <point x="211" y="314"/>
      <point x="211" y="534" type="curve"/>
      <point x="93" y="534"/>
      <point x="211" y="534"/>
      <point x="93" y="534" type="curve"/>
      <point x="93" y="314"/>
      <point x="93" y="95"/>
      <point x="93" y="-125" type="curve"/>
      <point x="93" y="-176"/>
      <point x="72" y="-218"/>
      <point x="24" y="-218" type="curve"/>
      <point x="17" y="-218"/>
      <point x="11" y="-217"/>
      <point x="5" y="-216" type="curve"/>
      <point x="-12" y="-302"/>
      <point x="5" y="-217"/>
    </contour>
    <contour>
      <point x="216" y="677" type="curve"/>
      <point x="216" y="717"/>
      <point x="188" y="736"/>
      <point x="151" y="736" type="curve"/>
      <point x="112" y="736"/>
      <point x="87" y="715"/>
      <point x="87" y="677" type="curve"/>
      <point x="214" y="677"/>
      <point x="89" y="677"/>
      <point x="216" y="677" type="curve"/>
      <point x="216" y="636"/>
      <point x="189" y="618"/>
      <point x="150" y="618" type="curve"/>
      <point x="112" y="618"/>
      <point x="87" y="638"/>
      <point x="87" y="677" type="curve"/>
      <point x="214" y="677"/>
      <point x="89" y="677"/>
    </contour>
  </outline>
</glyph>
<glyph name="l" format="1">
  <advance width="330"/>
  <unicode hex="006C"/>
  <outline>
    <contour>
      <point x="165" y="90" type="curve"/>
      <point x="17" y="90"/>
      <point x="165" y="90"/>
      <point x="17" y="90" type="curve"/>
      <point x="17" y="0"/>
      <point x="17" y="90"/>
      <point x="17" y="0" type="curve"/>
      <point x="67" y="0"/>
      <point x="116" y="0"/>
      <point x="165" y="0" type="curve"/>
      <point x="165" y="90"/>
      <point x="165" y="-1"/>
    </contour>
    <contour>
      <point x="167" y="800" type="curve"/>
      <point x="118" y="800"/>
      <point x="68" y="800"/>
      <point x="20" y="800" type="curve"/>
      <point x="19" y="710"/>
      <point x="20" y="800"/>
      <point x="19" y="710" type="curve"/>
      <point x="167" y="710"/>
      <point x="19" y="710"/>
      <point x="167" y="710" type="curve"/>
      <point x="167" y="799"/>
      <point x="167" y="710"/>
    </contour>
    <contour>
      <point x="165" y="0" type="curve"/>
      <point x="215" y="0"/>
      <point x="264" y="0"/>
      <point x="314" y="0" type="curve"/>
      <point x="314" y="90"/>
      <point x="314" y="0"/>
      <point x="314" y="90" type="curve"/>
      <point x="165" y="90"/>
      <point x="314" y="90"/>
      <point x="165" y="90" type="curve"/>
      <point x="165" y="-1"/>
      <point x="165" y="90"/>
    </contour>
    <contour>
      <point x="223" y="0" type="curve"/>
      <point x="223" y="267"/>
      <point x="223" y="533"/>
      <point x="223" y="800" type="curve"/>
      <point x="106" y="800"/>
      <point x="223" y="800"/>
      <point x="106" y="800" type="curve"/>
      <point x="106" y="533"/>
      <point x="106" y="267"/>
      <point x="106" y="0" type="curve"/>
      <point x="223" y="0"/>
      <point x="106" y="0"/>
    </contour>
    <contour>
      <point x="166" y="884" type="move" name="top"/>
    </contour>
    <contour>
      <point x="211" y="-11" type="move" name="bottom"/>
    </contour>
  </outline>
</glyph>
<glyph name="m" format="1">
  <advance width="945"/>
  <unicode hex="006D"/>
  <outline>
    <contour>
      <point x="484" y="0" type="curve"/>
      <point x="606" y="0"/>
      <point x="484" y="0"/>
      <point x="606" y="0" type="curve"/>
      <point x="606" y="90"/>
      <point x="606" y="0"/>
      <point x="606" y="90" type="curve"/>
      <point x="484" y="90"/>
      <point x="606" y="90"/>
      <point x="484" y="90" type="curve"/>
      <point x="484" y="0"/>
      <point x="484" y="90"/>
    </contour>
    <contour>
      <point x="780" y="0" type="curve"/>
      <point x="825" y="0"/>
      <point x="869" y="0"/>
      <point x="914" y="0" type="curve"/>
      <point x="914" y="90"/>
      <point x="914" y="0"/>
      <point x="914" y="90" type="curve"/>
      <point x="779" y="90"/>
      <point x="916" y="90"/>
      <point x="780" y="90" type="curve"/>
      <point x="780" y="0"/>
      <point x="780" y="90"/>
    </contour>
    <contour>
      <point x="188" y="90" type="curve"/>
      <point x="47" y="90"/>
      <point x="190" y="90"/>
      <point x="48" y="90" type="curve"/>
      <point x="48" y="0"/>
      <point x="48" y="90"/>
      <point x="48" y="0" type="curve"/>
      <point x="95" y="0"/>
      <point x="141" y="0"/>
      <point x="188" y="0" type="curve"/>
      <point x="188" y="90"/>
      <point x="188" y="0"/>
    </contour>
    <contour>
      <point x="188" y="0" type="curve"/>
      <point x="229" y="0"/>
      <point x="185" y="0"/>
      <point x="309" y="0" type="curve"/>
      <point x="309" y="90"/>
      <point x="309" y="0"/>
      <point x="309" y="90" type="curve"/>
      <point x="185" y="90"/>
      <point x="312" y="90"/>
      <point x="188" y="90" type="curve"/>
      <point x="188" y="0"/>
      <point x="188" y="90"/>
    </contour>
    <contour>
      <point x="188" y="533" type="curve"/>
      <point x="141" y="533"/>
      <point x="95" y="533"/>
      <point x="48" y="533" type="curve"/>
      <point x="48" y="443"/>
      <point x="48" y="533"/>
      <point x="48" y="443" type="curve"/>
      <point x="190" y="443"/>
      <point x="46" y="443"/>
      <point x="188" y="443" type="curve"/>
      <point x="188" y="533"/>
      <point x="188" y="443"/>
    </contour>
    <contour>
      <point x="516" y="288" type="curve"/>
      <point x="543" y="369"/>
      <point x="574" y="444"/>
      <point x="642" y="444" type="curve"/>
      <point x="714" y="444"/>
      <point x="720" y="394"/>
      <point x="720" y="315" type="curve"/>
      <point x="720" y="210"/>
      <point x="720" y="105"/>
      <point x="720" y="0" type="curve"/>
      <point x="838" y="0"/>
      <point x="720" y="0"/>
      <point x="838" y="0" type="curve"/>
      <point x="838" y="108"/>
      <point x="838" y="217"/>
      <point x="838" y="325" type="curve"/>
      <point x="838" y="459"/>
      <point x="809" y="538"/>
      <point x="679" y="538" type="curve"/>
      <point x="576" y="538"/>
      <point x="513" y="455"/>
      <point x="476" y="339" type="curve"/>
      <point x="518" y="290"/>
      <point x="474" y="337"/>
    </contour>
    <contour>
      <point x="221" y="289" type="curve"/>
      <point x="246" y="369"/>
      <point x="277" y="445"/>
      <point x="347" y="445" type="curve"/>
      <point x="418" y="445"/>
      <point x="425" y="394"/>
      <point x="425" y="315" type="curve"/>
      <point x="425" y="210"/>
      <point x="425" y="105"/>
      <point x="425" y="0" type="curve"/>
      <point x="542" y="0"/>
      <point x="425" y="0"/>
      <point x="542" y="0" type="curve"/>
      <point x="542" y="108"/>
      <point x="542" y="217"/>
      <point x="542" y="325" type="curve"/>
      <point x="542" y="459"/>
      <point x="514" y="538"/>
      <point x="384" y="538" type="curve"/>
      <point x="279" y="538"/>
      <point x="222" y="458"/>
      <point x="181" y="340" type="curve"/>
      <point x="223" y="291"/>
      <point x="178" y="338"/>
    </contour>
    <contour>
      <point x="247" y="0" type="curve"/>
      <point x="247" y="178"/>
      <point x="247" y="355"/>
      <point x="247" y="533" type="curve"/>
      <point x="129" y="533"/>
      <point x="247" y="533"/>
      <point x="129" y="533" type="curve"/>
      <point x="129" y="355"/>
      <point x="129" y="178"/>
      <point x="129" y="0" type="curve"/>
      <point x="247" y="0"/>
      <point x="129" y="0"/>
    </contour>
  </outline>
</glyph>
<glyph name="p" format="1">
  <advance width="626"/>
  <unicode hex="0070"/>
  <outline>
    <contour>
      <point x="147" y="-210" type="curve"/>
      <point x="-1" y="-210"/>
      <point x="154" y="-210"/>
      <point x="6" y="-210" type="curve"/>
      <point x="6" y="-300"/>
      <point x="6" y="-210"/>
      <point x="6" y="-300" type="curve"/>
      <point x="56" y="-300"/>
      <point x="97" y="-300"/>
      <point x="147" y="-300" type="curve"/>
      <point x="147" y="-210"/>
      <point x="147" y="-300"/>
    </contour>
    <contour>
      <point x="147" y="-300" type="curve"/>
      <point x="194" y="-300"/>
      <point x="233" y="-300"/>
      <point x="279" y="-300" type="curve"/>
      <point x="279" y="-210"/>
      <point x="279" y="-300"/>
      <point x="279" y="-210" type="curve"/>
      <point x="139" y="-210"/>
      <point x="287" y="-210"/>
      <point x="147" y="-210" type="curve"/>
      <point x="147" y="-300"/>
      <point x="147" y="-210"/>
    </contour>
    <contour>
      <point x="148" y="533" type="curve"/>
      <point x="98" y="533"/>
      <point x="57" y="533"/>
      <point x="7" y="533" type="curve"/>
      <point x="7" y="443"/>
      <point x="7" y="533"/>
      <point x="7" y="443" type="curve"/>
      <point x="156" y="443"/>
      <point x="0" y="443"/>
      <point x="148" y="443" type="curve"/>
      <point x="148" y="533"/>
      <point x="148" y="443"/>
    </contour>
    <contour>
      <point x="176" y="321" type="curve"/>
      <point x="206" y="386"/>
      <point x="261" y="447"/>
      <point x="333" y="447" type="curve"/>
      <point x="431" y="447"/>
      <point x="464" y="366"/>
      <point x="464" y="265" type="curve"/>
      <point x="465" y="164"/>
      <point x="430" y="85"/>
      <point x="333" y="85" type="curve"/>
      <point x="269" y="85"/>
      <point x="222" y="114"/>
      <point x="180" y="159" type="curve"/>
      <point x="141" y="119"/>
      <point x="171" y="147"/>
      <point x="133" y="107" type="curve"/>
      <point x="191" y="36"/>
      <point x="260" y="-5"/>
      <point x="354" y="-5" type="curve"/>
      <point x="510" y="-5"/>
      <point x="581" y="114"/>
      <point x="581" y="270" type="curve"/>
      <point x="581" y="422"/>
      <point x="511" y="539"/>
      <point x="358" y="539" type="curve"/>
      <point x="258" y="539"/>
      <point x="185" y="473"/>
      <point x="140" y="392" type="curve"/>
      <point x="169" y="331"/>
      <point x="147" y="382"/>
    </contour>
    <contour>
      <point x="206" y="-300" type="curve"/>
      <point x="206" y="-22"/>
      <point x="206" y="255"/>
      <point x="206" y="533" type="curve"/>
      <point x="88" y="533"/>
      <point x="206" y="533"/>
      <point x="88" y="533" type="curve"/>
      <point x="88" y="255"/>
      <point x="88" y="-22"/>
      <point x="88" y="-300" type="curve"/>
      <point x="206" y="-300"/>
      <point x="88" y="-300"/>
    </contour>
  </outline>
</glyph>
<glyph name="q" format="1">
  <advance width="646"/>
  <unicode hex="0071"/>
  <outline>
    <contour>
      <point x="483" y="443" type="curve"/>
      <point x="597" y="443"/>
      <point x="498" y="443"/>
      <point x="614" y="443" type="curve"/>
      <point x="614" y="518"/>
      <point x="614" y="458"/>
      <point x="614" y="533" type="curve"/>
      <point x="566" y="533"/>
      <point x="530" y="533"/>
      <point x="483" y="533" type="curve"/>
      <point x="483" y="458"/>
      <point x="483" y="518"/>
    </contour>
    <contour>
      <point x="482" y="-210" type="curve"/>
      <point x="358" y="-210"/>
      <point x="465" y="-210"/>
      <point x="342" y="-210" type="curve"/>
      <point x="342" y="-285"/>
      <point x="342" y="-224"/>
      <point x="342" y="-300" type="curve"/>
      <point x="392" y="-300"/>
      <point x="431" y="-300"/>
      <point x="482" y="-300" type="curve"/>
      <point x="482" y="-224"/>
      <point x="482" y="-285"/>
    </contour>
    <contour>
      <point x="482" y="-300" type="curve"/>
      <point x="529" y="-300"/>
      <point x="566" y="-300"/>
      <point x="613" y="-300" type="curve"/>
      <point x="613" y="-224"/>
      <point x="613" y="-285"/>
      <point x="613" y="-210" type="curve"/>
      <point x="497" y="-210"/>
      <point x="598" y="-210"/>
      <point x="482" y="-210" type="curve"/>
      <point x="482" y="-285"/>
      <point x="482" y="-224"/>
    </contour>
    <contour>
      <point x="492" y="401" type="curve"/>
      <point x="440" y="485"/>
      <point x="366" y="538"/>
      <point x="273" y="538" type="curve"/>
      <point x="116" y="538"/>
      <point x="45" y="420"/>
      <point x="46" y="264" type="curve"/>
      <point x="46" y="108"/>
      <point x="122" y="-5"/>
      <point x="278" y="-5" type="curve"/>
      <point x="371" y="-5"/>
      <point x="442" y="54"/>
      <point x="496" y="131" type="curve"/>
      <point x="462" y="173"/>
      <point x="484" y="140"/>
      <point x="450" y="182" type="curve"/>
      <point x="414" y="124"/>
      <point x="361" y="85"/>
      <point x="295" y="85" type="curve"/>
      <point x="200" y="85"/>
      <point x="163" y="166"/>
      <point x="163" y="269" type="curve"/>
      <point x="163" y="368"/>
      <point x="201" y="446"/>
      <point x="293" y="446" type="curve"/>
      <point x="357" y="446"/>
      <point x="409" y="414"/>
      <point x="455" y="346" type="curve"/>
      <point x="480" y="392"/>
      <point x="466" y="356"/>
    </contour>
    <contour>
      <point x="542" y="-300" type="curve"/>
      <point x="542" y="-16"/>
      <point x="542" y="249"/>
      <point x="542" y="533" type="curve"/>
      <point x="441" y="533"/>
      <point x="521" y="533"/>
      <point x="420" y="533" type="curve"/>
      <point x="420" y="249"/>
      <point x="420" y="-16"/>
      <point x="420" y="-300" type="curve"/>
      <point x="521" y="-300"/>
      <point x="441" y="-300"/>
    </contour>
  </outline>
</glyph>
<glyph name="s" format="1">
  <advance width="493"/>
  <unicode hex="0073"/>
  <outline>
    <contour>
      <point x="55" y="47" type="curve"/>
      <point x="119" y="15"/>
      <point x="177" y="-5"/>
      <point x="246" y="-5" type="curve"/>
      <point x="366" y="-5"/>
      <point x="448" y="45"/>
      <point x="448" y="155" type="curve"/>
      <point x="447" y="258"/>
      <point x="366" y="286"/>
      <point x="262" y="318" type="curve"/>
      <point x="211" y="334"/>
      <point x="170" y="353"/>
      <point x="170" y="395" type="curve"/>
      <point x="170" y="425"/>
      <point x="198" y="445"/>
      <point x="239" y="445" type="curve"/>
      <point x="279" y="445"/>
      <point x="324" y="429"/>
      <point x="351" y="411" type="curve"/>
      <point x="404" y="490"/>
      <point x="353" y="414"/>
      <point x="405" y="493" type="curve"/>
      <point x="366" y="517"/>
      <point x="300" y="538"/>
      <point x="242" y="538" type="curve"/>
      <point x="136" y="538"/>
      <point x="63" y="492"/>
      <point x="63" y="395" type="curve"/>
      <point x="63" y="301"/>
      <point x="128" y="262"/>
      <point x="224" y="232" type="curve"/>
      <point x="282" y="214"/>
      <point x="335" y="198"/>
      <point x="335" y="150" type="curve"/>
      <point x="335" y="112"/>
      <point x="301" y="90"/>
      <point x="256" y="90" type="curve"/>
      <point x="203" y="90"/>
      <point x="162" y="105"/>
      <point x="114" y="128" type="curve"/>
      <point x="55" y="47"/>
      <point x="114" y="128"/>
    </contour>
    <contour>
      <point x="313" y="493" type="curve"/>
      <point x="313" y="366"/>
      <point x="313" y="491"/>
      <point x="313" y="364" type="curve"/>
      <point x="405" y="364"/>
      <point x="313" y="364"/>
      <point x="405" y="364" type="curve"/>
      <point x="405" y="491"/>
      <point x="405" y="366"/>
      <point x="405" y="493" type="curve"/>
      <point x="315" y="493"/>
      <point x="402" y="493"/>
    </contour>
    <contour>
      <point x="146" y="47" type="curve"/>
      <point x="146" y="176"/>
      <point x="146" y="51"/>
      <point x="146" y="180" type="curve"/>
      <point x="54" y="180"/>
      <point x="146" y="180"/>
      <point x="54" y="180" type="curve"/>
      <point x="54" y="51"/>
      <point x="54" y="176"/>
      <point x="54" y="47" type="curve"/>
      <point x="146" y="47"/>
      <point x="54" y="47"/>
    </contour>
    <contour>
      <point x="245" y="625" type="move" name="top"/>
    </contour>
    <contour>
      <point x="280" y="-10" type="move" name="bottom"/>
    </contour>
  </outline>
</glyph>
<glyph name="t" format="1">
  <advance width="380"/>
  <unicode hex="0074"/>
  <outline>
    <contour>
      <point x="15" y="442" type="curve"/>
      <point x="353" y="442" type="line"/>
      <point x="353" y="533"/>
      <point x="353" y="442"/>
      <point x="353" y="533" type="curve"/>
      <point x="15" y="533" type="line"/>
      <point x="15" y="442"/>
      <point x="15" y="533"/>
    </contour>
    <contour>
      <point x="322" y="107" type="curve"/>
      <point x="301" y="95"/>
      <point x="286" y="89"/>
      <point x="263" y="89" type="curve"/>
      <point x="221" y="89"/>
      <point x="210" y="121"/>
      <point x="210" y="168" type="curve"/>
      <point x="210" y="682" type="line"/>
      <point x="129" y="632"/>
      <point x="174" y="661"/>
      <point x="93" y="610" type="curve"/>
      <point x="93" y="164" type="line"/>
      <point x="93" y="55"/>
      <point x="146" y="-6"/>
      <point x="248" y="-6" type="curve"/>
      <point x="295" y="-6"/>
      <point x="327" y="8"/>
      <point x="364" y="29" type="curve"/>
      <point x="322" y="107"/>
      <point x="364" y="29"/>
    </contour>
    <contour>
      <point x="281" y="-8" type="move" name="bottom"/>
    </contour>
  </outline>
</glyph>
<glyph name="v" format="1">
  <advance width="625"/>
  <unicode hex="0076"/>
  <outline>
    <contour>
      <point x="133" y="533" type="curve"/>
      <point x="93" y="533"/>
      <point x="55" y="533"/>
      <point x="16" y="533" type="curve"/>
      <point x="16" y="443"/>
      <point x="16" y="533"/>
      <point x="16" y="443" type="curve"/>
      <point x="135" y="443"/>
      <point x="15" y="443"/>
      <point x="133" y="443" type="curve"/>
      <point x="133" y="533"/>
      <point x="133" y="443"/>
    </contour>
    <contour>
      <point x="133" y="443" type="curve"/>
      <point x="269" y="443"/>
      <point x="132" y="443"/>
      <point x="268" y="443" type="curve"/>
      <point x="268" y="533"/>
      <point x="268" y="443"/>
      <point x="268" y="533" type="curve"/>
      <point x="223" y="533"/>
      <point x="179" y="533"/>
      <point x="133" y="533" type="curve"/>
      <point x="133" y="443"/>
      <point x="133" y="533"/>
    </contour>
    <contour>
      <point x="500" y="533" type="curve"/>
      <point x="454" y="533"/>
      <point x="410" y="533"/>
      <point x="364" y="533" type="curve"/>
      <point x="364" y="443"/>
      <point x="364" y="533"/>
      <point x="364" y="443" type="curve"/>
      <point x="502" y="443"/>
      <point x="362" y="443"/>
      <point x="500" y="443" type="curve"/>
      <point x="500" y="533"/>
      <point x="500" y="443"/>
    </contour>
    <contour>
      <point x="500" y="443" type="curve"/>
      <point x="619" y="443"/>
      <point x="499" y="443"/>
      <point x="618" y="443" type="curve"/>
      <point x="618" y="533"/>
      <point x="618" y="443"/>
      <point x="618" y="533" type="curve"/>
      <point x="578" y="533"/>
      <point x="540" y="533"/>
      <point x="500" y="533" type="curve"/>
      <point x="500" y="443"/>
      <point x="500" y="533"/>
    </contour>
    <contour>
      <point x="60" y="533" type="curve"/>
      <point x="122" y="355"/>
      <point x="184" y="178"/>
      <point x="245" y="0" type="curve"/>
      <point x="358" y="0"/>
      <point x="245" y="0"/>
      <point x="358" y="0" type="curve"/>
      <point x="297" y="177"/>
      <point x="241" y="356"/>
      <point x="180" y="533" type="curve"/>
      <point x="60" y="533"/>
      <point x="180" y="533"/>
    </contour>
    <contour>
      <point x="454" y="533" type="curve"/>
      <point x="266" y="0" type="line"/>
      <point x="379" y="0"/>
      <point x="266" y="0"/>
      <point x="379" y="0" type="curve"/>
      <point x="444" y="178"/>
      <point x="508" y="355"/>
      <point x="573" y="533" type="curve"/>
      <point x="454" y="533"/>
      <point x="573" y="533"/>
    </contour>
  </outline>
</glyph>
<glyph name="w" format="1">
  <advance width="909"/>
  <unicode hex="0077"/>
  <outline>
    <contour>
      <point x="771" y="443" type="curve"/>
      <point x="900" y="443"/>
      <point x="770" y="443"/>
      <point x="898" y="443" type="curve"/>
      <point x="898" y="533"/>
      <point x="898" y="443"/>
      <point x="898" y="533" type="curve"/>
      <point x="855" y="533"/>
      <point x="814" y="533"/>
      <point x="771" y="533" type="curve"/>
      <point x="771" y="443"/>
      <point x="771" y="533"/>
    </contour>
    <contour>
      <point x="771" y="533" type="curve"/>
      <point x="727" y="533"/>
      <point x="688" y="533"/>
      <point x="645" y="533" type="curve"/>
      <point x="645" y="443"/>
      <point x="645" y="533"/>
      <point x="645" y="443" type="curve"/>
      <point x="776" y="443"/>
      <point x="640" y="443"/>
      <point x="771" y="443" type="curve"/>
      <point x="771" y="533"/>
      <point x="771" y="443"/>
    </contour>
    <contour>
      <point x="141" y="533" type="curve"/>
      <point x="98" y="533"/>
      <point x="56" y="533"/>
      <point x="13" y="533" type="curve"/>
      <point x="13" y="443"/>
      <point x="13" y="533"/>
      <point x="13" y="443" type="curve"/>
      <point x="142" y="443"/>
      <point x="12" y="443"/>
      <point x="141" y="443" type="curve"/>
      <point x="141" y="533"/>
      <point x="141" y="443"/>
    </contour>
    <contour>
      <point x="141" y="443" type="curve"/>
      <point x="269" y="443"/>
      <point x="137" y="443"/>
      <point x="266" y="443" type="curve"/>
      <point x="266" y="533"/>
      <point x="266" y="443"/>
      <point x="266" y="533" type="curve"/>
      <point x="223" y="533"/>
      <point x="183" y="533"/>
      <point x="141" y="533" type="curve"/>
      <point x="141" y="443"/>
      <point x="141" y="533"/>
    </contour>
    <contour>
      <point x="332" y="0" type="curve"/>
      <point x="392" y="178"/>
      <point x="453" y="355"/>
      <point x="513" y="533" type="curve"/>
      <point x="405" y="533"/>
      <point x="513" y="533"/>
      <point x="405" y="533" type="curve"/>
      <point x="346" y="355"/>
      <point x="286" y="178"/>
      <point x="227" y="0" type="curve"/>
      <point x="332" y="0"/>
      <point x="227" y="0"/>
    </contour>
    <contour>
      <point x="741" y="533" type="curve"/>
      <point x="685" y="355"/>
      <point x="629" y="178"/>
      <point x="575" y="0" type="curve"/>
      <point x="679" y="0"/>
      <point x="575" y="0"/>
      <point x="679" y="0" type="curve"/>
      <point x="736" y="178"/>
      <point x="792" y="355"/>
      <point x="848" y="533" type="curve"/>
      <point x="741" y="533"/>
      <point x="848" y="533"/>
    </contour>
    <contour>
      <point x="411" y="533" type="curve"/>
      <point x="465" y="355"/>
      <point x="519" y="178"/>
      <point x="573" y="0" type="curve"/>
      <point x="678" y="0"/>
      <point x="573" y="0"/>
      <point x="678" y="0" type="curve"/>
      <point x="625" y="178"/>
      <point x="571" y="355"/>
      <point x="517" y="533" type="curve"/>
      <point x="411" y="533"/>
      <point x="517" y="533"/>
    </contour>
    <contour>
      <point x="64" y="533" type="curve"/>
      <point x="118" y="355"/>
      <point x="172" y="178"/>
      <point x="227" y="0" type="curve"/>
      <point x="331" y="0"/>
      <point x="227" y="0"/>
      <point x="331" y="0" type="curve"/>
      <point x="277" y="178"/>
      <point x="224" y="355"/>
      <point x="171" y="533" type="curve"/>
      <point x="64" y="533"/>
      <point x="171" y="533"/>
    </contour>
  </outline>
</glyph>
<glyph name="x" format="1">
  <advance width="612"/>
  <unicode hex="0078"/>
  <outline>
    <contour>
      <point x="117" y="90" type="curve"/>
      <point x="12" y="90"/>
      <point x="125" y="90"/>
      <point x="20" y="90" type="curve"/>
      <point x="20" y="0"/>
      <point x="20" y="90"/>
      <point x="20" y="0" type="curve"/>
      <point x="55" y="0"/>
      <point x="82" y="0"/>
      <point x="117" y="0" type="curve"/>
      <point x="117" y="90"/>
      <point x="117" y="0"/>
    </contour>
    <contour>
      <point x="508" y="90" type="curve"/>
      <point x="348" y="90"/>
      <point x="506" y="90"/>
      <point x="346" y="90" type="curve"/>
      <point x="346" y="0"/>
      <point x="346" y="90"/>
      <point x="346" y="0" type="curve"/>
      <point x="398" y="0"/>
      <point x="454" y="0"/>
      <point x="508" y="0" type="curve"/>
      <point x="508" y="90"/>
      <point x="508" y="0"/>
    </contour>
    <contour>
      <point x="497" y="0" type="curve"/>
      <point x="532" y="0"/>
      <point x="569" y="0"/>
      <point x="603" y="0" type="curve"/>
      <point x="603" y="90"/>
      <point x="603" y="0"/>
      <point x="603" y="90" type="curve"/>
      <point x="499" y="90"/>
      <point x="601" y="90"/>
      <point x="497" y="90" type="curve"/>
      <point x="497" y="0"/>
      <point x="497" y="90"/>
    </contour>
    <contour>
      <point x="106" y="0" type="curve"/>
      <point x="160" y="0"/>
      <point x="108" y="0"/>
      <point x="270" y="0" type="curve"/>
      <point x="270" y="90"/>
      <point x="270" y="0"/>
      <point x="270" y="90" type="curve"/>
      <point x="108" y="90"/>
      <point x="267" y="90"/>
      <point x="106" y="90" type="curve"/>
      <point x="106" y="0"/>
      <point x="106" y="90"/>
    </contour>
    <contour>
      <point x="483" y="443" type="curve"/>
      <point x="592" y="443"/>
      <point x="487" y="443"/>
      <point x="596" y="443" type="curve"/>
      <point x="596" y="533"/>
      <point x="596" y="443"/>
      <point x="596" y="533" type="curve"/>
      <point x="560" y="533"/>
      <point x="519" y="533"/>
      <point x="483" y="533" type="curve"/>
      <point x="483" y="443"/>
      <point x="483" y="533"/>
    </contour>
    <contour>
      <point x="157" y="533" type="curve"/>
      <point x="118" y="533"/>
      <point x="81" y="533"/>
      <point x="42" y="533" type="curve"/>
      <point x="42" y="443"/>
      <point x="42" y="533"/>
      <point x="42" y="443" type="curve"/>
      <point x="159" y="443"/>
      <point x="41" y="443"/>
      <point x="157" y="443" type="curve"/>
      <point x="157" y="533"/>
      <point x="157" y="443"/>
    </contour>
    <contour>
      <point x="135" y="443" type="curve"/>
      <point x="286" y="443"/>
      <point x="129" y="443"/>
      <point x="280" y="443" type="curve"/>
      <point x="280" y="533"/>
      <point x="280" y="443"/>
      <point x="280" y="533" type="curve"/>
      <point x="231" y="533"/>
      <point x="185" y="533"/>
      <point x="135" y="533" type="curve"/>
      <point x="135" y="443"/>
      <point x="135" y="533"/>
    </contour>
    <contour>
      <point x="499" y="533" type="curve"/>
      <point x="448" y="533"/>
      <point x="402" y="533"/>
      <point x="352" y="533" type="curve"/>
      <point x="352" y="443"/>
      <point x="352" y="533"/>
      <point x="352" y="443" type="curve"/>
      <point x="504" y="443"/>
      <point x="348" y="443"/>
      <point x="499" y="443" type="curve"/>
      <point x="499" y="533"/>
      <point x="499" y="443"/>
    </contour>
    <contour>
      <point x="557" y="34" type="curve"/>
      <point x="527" y="78"/>
      <point x="199" y="490"/>
      <point x="169" y="533" type="curve"/>
      <point x="81" y="533"/>
      <point x="166" y="494"/>
      <point x="78" y="494" type="curve"/>
      <point x="107" y="451"/>
      <point x="429" y="44"/>
      <point x="458" y="1" type="curve"/>
      <point x="553" y="1"/>
      <point x="462" y="34"/>
    </contour>
    <contour>
      <point x="468" y="533" type="curve"/>
      <point x="438" y="490"/>
      <point x="92" y="82"/>
      <point x="62" y="39" type="curve"/>
      <point x="155" y="39"/>
      <point x="65" y="0"/>
      <point x="157" y="0" type="curve"/>
      <point x="187" y="43"/>
      <point x="527" y="453"/>
      <point x="557" y="497" type="curve"/>
      <point x="468" y="497"/>
      <point x="558" y="533"/>
    </contour>
  </outline>
</glyph>
<glyph name="braceleft" format="1">
  <advance width="290"/>
  <unicode hex="007B"/>
  <outline>
    <contour>
      <point x="242" y="-22" type="curve"/>
      <point x="201" y="-22"/>
      <point x="193" y="13"/>
      <point x="193" y="57" type="curve"/>
      <point x="193" y="110"/>
      <point x="193" y="162"/>
      <point x="193" y="215" type="curve"/>
      <point x="193" y="318"/>
      <point x="136" y="388"/>
      <point x="37" y="388" type="curve"/>
      <point x="37" y="293"/>
      <point x="37" y="388"/>
      <point x="37" y="293" type="curve"/>
      <point x="74" y="293"/>
      <point x="86" y="264"/>
      <point x="86" y="224" type="curve"/>
      <point x="86" y="170"/>
      <point x="86" y="115"/>
      <point x="86" y="62" type="curve"/>
      <point x="86" y="-43"/>
      <point x="141" y="-112"/>
      <point x="242" y="-112" type="curve"/>
      <point x="242" y="-22"/>
      <point x="242" y="-112"/>
    </contour>
    <contour>
      <point x="242" y="792" type="curve"/>
      <point x="141" y="792"/>
      <point x="86" y="725"/>
      <point x="86" y="622" type="curve"/>
      <point x="86" y="566"/>
      <point x="86" y="510"/>
      <point x="86" y="454" type="curve"/>
      <point x="86" y="415"/>
      <point x="73" y="388"/>
      <point x="37" y="388" type="curve"/>
      <point x="37" y="293"/>
      <point x="37" y="388"/>
      <point x="37" y="293" type="curve"/>
      <point x="137" y="293"/>
      <point x="193" y="363"/>
      <point x="193" y="468" type="curve"/>
      <point x="193" y="519"/>
      <point x="193" y="570"/>
      <point x="193" y="622" type="curve"/>
      <point x="193" y="667"/>
      <point x="200" y="702"/>
      <point x="242" y="702" type="curve"/>
      <point x="242" y="792"/>
      <point x="242" y="702"/>
    </contour>
  </outline>
</glyph>
<glyph name="braceright" format="1">
  <advance width="291"/>
  <unicode hex="007D"/>
  <outline>
    <contour>
      <point x="49" y="-112" type="curve"/>
      <point x="150" y="-112"/>
      <point x="206" y="-43"/>
      <point x="206" y="62" type="curve"/>
      <point x="206" y="115"/>
      <point x="206" y="170"/>
      <point x="206" y="224" type="curve"/>
      <point x="206" y="264"/>
      <point x="217" y="293"/>
      <point x="254" y="293" type="curve"/>
      <point x="254" y="388"/>
      <point x="254" y="293"/>
      <point x="254" y="388" type="curve"/>
      <point x="155" y="388"/>
      <point x="99" y="317"/>
      <point x="99" y="215" type="curve"/>
      <point x="99" y="162"/>
      <point x="99" y="110"/>
      <point x="99" y="57" type="curve"/>
      <point x="99" y="13"/>
      <point x="90" y="-22"/>
      <point x="49" y="-22" type="curve"/>
      <point x="49" y="-112"/>
      <point x="49" y="-22"/>
    </contour>
    <contour>
      <point x="49" y="702" type="curve"/>
      <point x="91" y="702"/>
      <point x="99" y="667"/>
      <point x="99" y="622" type="curve"/>
      <point x="99" y="570"/>
      <point x="99" y="519"/>
      <point x="99" y="468" type="curve"/>
      <point x="99" y="363"/>
      <point x="154" y="293"/>
      <point x="254" y="293" type="curve"/>
      <point x="254" y="388"/>
      <point x="254" y="293"/>
      <point x="254" y="388" type="curve"/>
      <point x="218" y="388"/>
      <point x="206" y="415"/>
      <point x="206" y="454" type="curve"/>
      <point x="206" y="510"/>
      <point x="206" y="566"/>
      <point x="206" y="622" type="curve"/>
      <point x="206" y="725"/>
      <point x="150" y="792"/>
      <point x="49" y="792" type="curve"/>
      <point x="49" y="702"/>
      <point x="49" y="792"/>
    </contour>
  </outline>
</glyph>
<glyph name="asciitilde" format="1">
  <advance width="653"/>
  <unicode hex="007E"/>
  <outline>
    <contour>
      <point x="496" y="371" type="curve"/>
      <point x="483" y="331"/>
      <point x="468" y="292"/>
      <point x="434" y="292" type="curve"/>
      <point x="403" y="292"/>
      <point x="386" y="302"/>
      <point x="362" y="321" type="curve"/>
      <point x="318" y="361"/>
      <point x="286" y="382"/>
      <point x="226" y="382" type="curve"/>
      <point x="133" y="382"/>
      <point x="90" y="330"/>
      <point x="65" y="240" type="curve"/>
      <point x="104" y="225"/>
      <point x="118" y="220"/>
      <point x="156" y="206" type="curve"/>
      <point x="168" y="251"/>
      <point x="185" y="288"/>
      <point x="222" y="288" type="curve"/>
      <point x="251" y="288"/>
      <point x="266" y="278"/>
      <point x="288" y="260" type="curve"/>
      <point x="336" y="220"/>
      <point x="369" y="199"/>
      <point x="432" y="198" type="curve"/>
      <point x="522" y="198"/>
      <point x="559" y="253"/>
      <point x="588" y="339" type="curve"/>
      <point x="549" y="353"/>
      <point x="535" y="358"/>
    </contour>
  </outline>
</glyph>
<glyph name="exclamdown" format="1">
  <advance width="262"/>
  <unicode hex="00A1"/>
  <outline>
    <contour>
      <point x="77" y="301" type="line"/>
      <point x="66" y="-192" type="line"/>
      <point x="196" y="-192" type="line"/>
      <point x="187" y="301" type="line"/>
    </contour>
    <contour>
      <point x="68" y="480" type="curve"/>
      <point x="68" y="440"/>
      <point x="95" y="421"/>
      <point x="133" y="420" type="curve"/>
      <point x="171" y="420"/>
      <point x="197" y="442"/>
      <point x="197" y="479" type="curve"/>
      <point x="70" y="480"/>
      <point x="195" y="479"/>
      <point x="68" y="480" type="curve"/>
      <point x="68" y="521"/>
      <point x="95" y="539"/>
      <point x="134" y="538" type="curve"/>
      <point x="172" y="538"/>
      <point x="197" y="518"/>
      <point x="197" y="479" type="curve"/>
      <point x="70" y="480"/>
      <point x="195" y="479"/>
    </contour>
  </outline>
</glyph>
<glyph name="sterling" format="1">
  <advance width="482"/>
  <unicode hex="00A3"/>
  <outline>
    <contour>
      <point x="412" y="90" type="curve"/>
      <point x="292" y="90"/>
      <point x="168" y="90"/>
      <point x="49" y="90" type="curve"/>
      <point x="49" y="0"/>
      <point x="49" y="90"/>
      <point x="49" y="0" type="curve"/>
      <point x="168" y="0"/>
      <point x="292" y="0"/>
      <point x="412" y="0" type="curve"/>
      <point x="412" y="90"/>
      <point x="412" y="0"/>
    </contour>
    <contour>
      <point x="365" y="420" type="curve"/>
      <point x="270" y="420"/>
      <point x="168" y="420"/>
      <point x="74" y="420" type="curve"/>
      <point x="74" y="330"/>
      <point x="74" y="420"/>
      <point x="74" y="330" type="curve"/>
      <point x="168" y="330"/>
      <point x="270" y="330"/>
      <point x="365" y="330" type="curve"/>
      <point x="365" y="420"/>
      <point x="365" y="330"/>
    </contour>
    <contour>
      <point x="440" y="664" type="curve"/>
      <point x="395" y="707"/>
      <point x="356" y="721"/>
      <point x="299" y="721" type="curve"/>
      <point x="134" y="721"/>
      <point x="86" y="559"/>
      <point x="125" y="365" type="curve"/>
      <point x="153" y="223"/>
      <point x="144" y="90"/>
      <point x="49" y="90" type="curve"/>
      <point x="49" y="0"/>
      <point x="49" y="90"/>
      <point x="49" y="0" type="curve"/>
      <point x="229" y="0"/>
      <point x="273" y="177"/>
      <point x="233" y="384" type="curve"/>
      <point x="207" y="514"/>
      <point x="213" y="635"/>
      <point x="293" y="635" type="curve"/>
      <point x="330" y="635"/>
      <point x="352" y="620"/>
      <point x="381" y="598" type="curve"/>
      <point x="440" y="664"/>
      <point x="381" y="598"/>
    </contour>
  </outline>
</glyph>
<glyph name="currency" format="1">
  <advance width="647"/>
  <unicode hex="00A4"/>
  <outline>
    <contour>
      <point x="247" y="315" type="curve"/>
      <point x="247" y="370"/>
      <point x="269" y="413"/>
      <point x="321" y="413" type="curve"/>
      <point x="376" y="413"/>
      <point x="398" y="373"/>
      <point x="398" y="315" type="curve"/>
      <point x="398" y="259"/>
      <point x="378" y="211"/>
      <point x="326" y="211" type="curve"/>
      <point x="269" y="211"/>
      <point x="247" y="255"/>
      <point x="247" y="315" type="curve"/>
      <point x="130" y="315"/>
      <point x="252" y="315"/>
      <point x="134" y="315" type="curve"/>
      <point x="134" y="196"/>
      <point x="206" y="122"/>
      <point x="325" y="122" type="curve"/>
      <point x="443" y="122"/>
      <point x="513" y="199"/>
      <point x="513" y="318" type="curve"/>
      <point x="513" y="431"/>
      <point x="444" y="503"/>
      <point x="331" y="503" type="curve"/>
      <point x="211" y="503"/>
      <point x="134" y="433"/>
      <point x="134" y="315" type="curve"/>
      <point x="252" y="315"/>
      <point x="130" y="315"/>
    </contour>
    <contour>
      <point x="431" y="349" type="line"/>
      <point x="588" y="494" type="line"/>
      <point x="502" y="581" type="line"/>
      <point x="356" y="424" type="line"/>
    </contour>
    <contour>
      <point x="360" y="208" type="line"/>
      <point x="506" y="51" type="line"/>
      <point x="592" y="138" type="line"/>
      <point x="435" y="284" type="line"/>
    </contour>
    <contour>
      <point x="212" y="284" type="line"/>
      <point x="55" y="138" type="line"/>
      <point x="141" y="51" type="line"/>
      <point x="287" y="209" type="line"/>
    </contour>
    <contour>
      <point x="292" y="425" type="line"/>
      <point x="147" y="582" type="line"/>
      <point x="60" y="495" type="line"/>
      <point x="217" y="350" type="line"/>
    </contour>
  </outline>
</glyph>
<glyph name="yen" format="1">
  <advance width="696"/>
  <unicode hex="00A5"/>
  <outline>
    <contour>
      <point x="542" y="415" type="curve"/>
      <point x="479" y="415"/>
      <point x="416" y="415"/>
      <point x="354" y="415" type="curve"/>
      <point x="354" y="315"/>
      <point x="354" y="415"/>
      <point x="354" y="315" type="curve"/>
      <point x="416" y="315"/>
      <point x="479" y="315"/>
      <point x="542" y="315" type="curve"/>
      <point x="542" y="415"/>
      <point x="542" y="315"/>
    </contour>
    <contour>
      <point x="328" y="415" type="curve"/>
      <point x="267" y="415"/>
      <point x="205" y="415"/>
      <point x="144" y="415" type="curve"/>
      <point x="144" y="315"/>
      <point x="144" y="415"/>
      <point x="144" y="315" type="curve"/>
      <point x="205" y="315"/>
      <point x="267" y="315"/>
      <point x="328" y="315" type="curve"/>
      <point x="328" y="415"/>
      <point x="328" y="315"/>
    </contour>
    <contour>
      <point x="542" y="272" type="curve"/>
      <point x="409" y="272"/>
      <point x="276" y="272"/>
      <point x="144" y="272" type="curve"/>
      <point x="144" y="173"/>
      <point x="144" y="272"/>
      <point x="144" y="173" type="curve"/>
      <point x="276" y="173"/>
      <point x="409" y="173"/>
      <point x="542" y="173" type="curve"/>
      <point x="542" y="272"/>
      <point x="542" y="173"/>
    </contour>
    <contour>
      <point x="340" y="90" type="curve"/>
      <point x="197" y="90"/>
      <point x="342" y="90"/>
      <point x="198" y="90" type="curve"/>
      <point x="198" y="0"/>
      <point x="198" y="90"/>
      <point x="198" y="0" type="curve"/>
      <point x="246" y="0"/>
      <point x="292" y="0"/>
      <point x="340" y="0" type="curve"/>
      <point x="340" y="90"/>
      <point x="340" y="0"/>
    </contour>
    <contour>
      <point x="340" y="0" type="curve"/>
      <point x="388" y="0"/>
      <point x="435" y="0"/>
      <point x="482" y="0" type="curve"/>
      <point x="482" y="90"/>
      <point x="482" y="0"/>
      <point x="482" y="90" type="curve"/>
      <point x="339" y="90"/>
      <point x="484" y="90"/>
      <point x="340" y="90" type="curve"/>
      <point x="340" y="0"/>
      <point x="340" y="90"/>
    </contour>
    <contour>
      <point x="527" y="722" type="curve"/>
      <point x="480" y="722"/>
      <point x="436" y="722"/>
      <point x="390" y="722" type="curve"/>
      <point x="390" y="632"/>
      <point x="390" y="722"/>
      <point x="390" y="632" type="curve"/>
      <point x="528" y="632"/>
      <point x="389" y="632"/>
      <point x="527" y="632" type="curve"/>
      <point x="527" y="722"/>
      <point x="527" y="632"/>
    </contour>
    <contour>
      <point x="154" y="722" type="curve"/>
      <point x="114" y="722"/>
      <point x="76" y="722"/>
      <point x="37" y="722" type="curve"/>
      <point x="36" y="632"/>
      <point x="37" y="722"/>
      <point x="36" y="632" type="curve"/>
      <point x="156" y="632"/>
      <point x="35" y="632"/>
      <point x="154" y="632" type="curve"/>
      <point x="154" y="722"/>
      <point x="154" y="632"/>
    </contour>
    <contour>
      <point x="165" y="632" type="curve"/>
      <point x="303" y="632"/>
      <point x="164" y="632"/>
      <point x="302" y="632" type="curve"/>
      <point x="302" y="722"/>
      <point x="302" y="632"/>
      <point x="302" y="722" type="curve"/>
      <point x="255" y="722"/>
      <point x="211" y="722"/>
      <point x="165" y="722" type="curve"/>
      <point x="165" y="632"/>
      <point x="165" y="722"/>
    </contour>
    <contour>
      <point x="538" y="632" type="curve"/>
      <point x="661" y="632"/>
      <point x="536" y="632"/>
      <point x="659" y="632" type="curve"/>
      <point x="659" y="722"/>
      <point x="659" y="632"/>
      <point x="659" y="722" type="curve"/>
      <point x="619" y="722"/>
      <point x="579" y="722"/>
      <point x="538" y="722" type="curve"/>
      <point x="538" y="632"/>
      <point x="538" y="722"/>
    </contour>
    <contour>
      <point x="78" y="714" type="curve"/>
      <point x="146" y="588"/>
      <point x="211" y="464"/>
      <point x="278" y="337" type="curve"/>
      <point x="397" y="337"/>
      <point x="265" y="337"/>
      <point x="385" y="337" type="curve"/>
      <point x="320" y="468"/>
      <point x="257" y="592"/>
      <point x="191" y="722" type="curve"/>
      <point x="78" y="722"/>
      <point x="191" y="714"/>
    </contour>
    <contour>
      <point x="502" y="722" type="curve"/>
      <point x="430" y="591"/>
      <point x="363" y="467"/>
      <point x="290" y="337" type="curve"/>
      <point x="410" y="337"/>
      <point x="284" y="337"/>
      <point x="403" y="337" type="curve"/>
      <point x="474" y="464"/>
      <point x="543" y="589"/>
      <point x="615" y="714" type="curve"/>
      <point x="502" y="714"/>
      <point x="615" y="722"/>
    </contour>
    <contour>
      <point x="404" y="0" type="curve"/>
      <point x="404" y="115"/>
      <point x="404" y="225"/>
      <point x="404" y="340" type="curve"/>
      <point x="276" y="340"/>
      <point x="404" y="340"/>
      <point x="276" y="340" type="curve"/>
      <point x="276" y="225"/>
      <point x="276" y="115"/>
      <point x="276" y="0" type="curve"/>
      <point x="404" y="0"/>
      <point x="276" y="0"/>
    </contour>
  </outline>
</glyph>
<glyph name="section" format="1">
  <advance width="516"/>
  <unicode hex="00A7"/>
  <outline>
    <contour>
      <point x="411" y="702" type="curve"/>
      <point x="360" y="734"/>
      <point x="321" y="749"/>
      <point x="262" y="749" type="curve"/>
      <point x="157" y="749"/>
      <point x="85" y="697"/>
      <point x="85" y="601" type="curve"/>
      <point x="85" y="517"/>
      <point x="137" y="469"/>
      <point x="219" y="439" type="curve"/>
      <point x="280" y="418"/>
      <point x="346" y="410"/>
      <point x="346" y="359" type="curve"/>
      <point x="346" y="307"/>
      <point x="311" y="280"/>
      <point x="256" y="269" type="curve"/>
      <point x="325" y="197"/>
      <point x="256" y="269"/>
      <point x="325" y="197" type="curve"/>
      <point x="413" y="219"/>
      <point x="464" y="273"/>
      <point x="464" y="361" type="curve"/>
      <point x="463" y="461"/>
      <point x="378" y="492"/>
      <point x="278" y="525" type="curve"/>
      <point x="235" y="540"/>
      <point x="198" y="559"/>
      <point x="198" y="601" type="curve"/>
      <point x="198" y="636"/>
      <point x="221" y="659"/>
      <point x="260" y="659" type="curve"/>
      <point x="301" y="659"/>
      <point x="323" y="648"/>
      <point x="359" y="628" type="curve"/>
      <point x="411" y="702"/>
      <point x="359" y="628"/>
    </contour>
    <contour>
      <point x="191" y="525" type="curve"/>
      <point x="108" y="498"/>
      <point x="55" y="451"/>
      <point x="55" y="366" type="curve"/>
      <point x="55" y="271"/>
      <point x="126" y="231"/>
      <point x="221" y="200" type="curve"/>
      <point x="271" y="182"/>
      <point x="323" y="170"/>
      <point x="323" y="124" type="curve"/>
      <point x="323" y="87"/>
      <point x="297" y="63"/>
      <point x="259" y="63" type="curve"/>
      <point x="213" y="63"/>
      <point x="187" y="78"/>
      <point x="146" y="104" type="curve"/>
      <point x="85" y="37"/>
      <point x="146" y="104"/>
      <point x="85" y="37" type="curve"/>
      <point x="140" y="-9"/>
      <point x="188" y="-27"/>
      <point x="257" y="-27" type="curve"/>
      <point x="362" y="-27"/>
      <point x="438" y="24"/>
      <point x="438" y="125" type="curve"/>
      <point x="437" y="212"/>
      <point x="380" y="257"/>
      <point x="295" y="285" type="curve"/>
      <point x="235" y="306"/>
      <point x="172" y="316"/>
      <point x="172" y="369" type="curve"/>
      <point x="172" y="416"/>
      <point x="202" y="441"/>
      <point x="249" y="457" type="curve"/>
      <point x="191" y="525"/>
      <point x="249" y="457"/>
    </contour>
    <contour>
      <point x="177" y="37" type="curve"/>
      <point x="177" y="157"/>
      <point x="177" y="37"/>
      <point x="177" y="157" type="curve"/>
      <point x="85" y="157"/>
      <point x="177" y="157"/>
      <point x="85" y="157" type="curve"/>
      <point x="85" y="37"/>
      <point x="85" y="157"/>
      <point x="85" y="37" type="curve"/>
      <point x="177" y="37"/>
      <point x="85" y="37"/>
    </contour>
    <contour>
      <point x="411" y="582" type="curve"/>
      <point x="411" y="702"/>
      <point x="411" y="582"/>
      <point x="411" y="702" type="curve"/>
      <point x="319" y="702"/>
      <point x="411" y="702"/>
      <point x="319" y="702" type="curve"/>
      <point x="319" y="582"/>
      <point x="319" y="702"/>
      <point x="319" y="582" type="curve"/>
      <point x="411" y="582"/>
      <point x="319" y="582"/>
    </contour>
  </outline>
</glyph>
<glyph name="dieresis" format="1">
  <advance width="390"/>
  <unicode hex="00A8"/>
  <outline>
    <contour>
      <point x="160" y="649" type="curve"/>
      <point x="160" y="689"/>
      <point x="133" y="709"/>
      <point x="94" y="709" type="curve"/>
      <point x="56" y="709"/>
      <point x="31" y="687"/>
      <point x="31" y="649" type="curve"/>
      <point x="158" y="649"/>
      <point x="33" y="649"/>
      <point x="160" y="649" type="curve"/>
      <point x="160" y="609"/>
      <point x="133" y="591"/>
      <point x="94" y="591" type="curve"/>
      <point x="56" y="591"/>
      <point x="31" y="611"/>
      <point x="31" y="649" type="curve"/>
      <point x="158" y="649"/>
      <point x="33" y="649"/>
    </contour>
    <contour>
      <point x="345" y="649" type="curve"/>
      <point x="345" y="689"/>
      <point x="318" y="709"/>
      <point x="279" y="709" type="curve"/>
      <point x="241" y="709"/>
      <point x="216" y="687"/>
      <point x="216" y="649" type="curve"/>
      <point x="343" y="649"/>
      <point x="217" y="649"/>
      <point x="345" y="649" type="curve"/>
      <point x="345" y="609"/>
      <point x="318" y="591"/>
      <point x="279" y="591" type="curve"/>
      <point x="241" y="591"/>
      <point x="216" y="611"/>
      <point x="216" y="649" type="curve"/>
      <point x="343" y="649"/>
      <point x="217" y="649"/>
    </contour>
    <contour>
      <point x="187" y="595" type="move" name="_top"/>
    </contour>
  </outline>
</glyph>
<glyph name="copyright" format="1">
  <advance width="746"/>
  <unicode hex="00A9"/>
  <outline>
    <contour>
      <point x="150" y="323" type="curve"/>
      <point x="150" y="469"/>
      <point x="235" y="572"/>
      <point x="376" y="572" type="curve"/>
      <point x="514" y="572"/>
      <point x="597" y="466"/>
      <point x="597" y="321" type="curve"/>
      <point x="597" y="181"/>
      <point x="517" y="76"/>
      <point x="383" y="76" type="curve"/>
      <point x="242" y="76"/>
      <point x="150" y="177"/>
      <point x="150" y="323" type="curve"/>
      <point x="54" y="323"/>
      <point x="152" y="323"/>
      <point x="56" y="323" type="curve"/>
      <point x="56" y="132"/>
      <point x="187" y="4"/>
      <point x="379" y="4" type="curve"/>
      <point x="567" y="4"/>
      <point x="690" y="135"/>
      <point x="690" y="324" type="curve"/>
      <point x="690" y="515"/>
      <point x="564" y="645"/>
      <point x="376" y="645" type="curve"/>
      <point x="185" y="645"/>
      <point x="56" y="516"/>
      <point x="56" y="323" type="curve"/>
      <point x="152" y="323"/>
      <point x="54" y="323"/>
    </contour>
    <contour>
      <point x="428" y="424" type="curve"/>
      <point x="428" y="411"/>
      <point x="428" y="390"/>
      <point x="428" y="373" type="curve"/>
      <point x="514" y="373"/>
      <point x="428" y="373"/>
      <point x="514" y="373" type="curve"/>
      <point x="514" y="403"/>
      <point x="514" y="439"/>
      <point x="514" y="464" type="curve"/>
      <point x="428" y="426"/>
      <point x="514" y="463"/>
    </contour>
    <contour>
      <point x="515" y="464" type="curve"/>
      <point x="477" y="497"/>
      <point x="435" y="509"/>
      <point x="382" y="509" type="curve"/>
      <point x="268" y="509"/>
      <point x="203" y="437"/>
      <point x="203" y="322" type="curve"/>
      <point x="203" y="211"/>
      <point x="260" y="140"/>
      <point x="368" y="140" type="curve"/>
      <point x="428" y="140"/>
      <point x="470" y="150"/>
      <point x="515" y="199" type="curve"/>
      <point x="460" y="246"/>
      <point x="515" y="199"/>
      <point x="460" y="246" type="curve"/>
      <point x="429" y="224"/>
      <point x="407" y="213"/>
      <point x="372" y="213" type="curve"/>
      <point x="314" y="213"/>
      <point x="293" y="262"/>
      <point x="293" y="325" type="curve"/>
      <point x="293" y="390"/>
      <point x="317" y="436"/>
      <point x="378" y="436" type="curve"/>
      <point x="399" y="436"/>
      <point x="414" y="432"/>
      <point x="428" y="424" type="curve"/>
      <point x="514" y="463"/>
      <point x="428" y="426"/>
    </contour>
  </outline>
</glyph>
<glyph name="ordfeminine" format="1">
  <advance width="432"/>
  <unicode hex="00AA"/>
  <outline>
    <contour>
      <point x="72" y="723" type="curve"/>
      <point x="72" y="662"/>
      <point x="72" y="713"/>
      <point x="72" y="652" type="curve"/>
      <point x="131" y="652"/>
      <point x="75" y="652"/>
      <point x="134" y="652" type="curve"/>
      <point x="134" y="713"/>
      <point x="134" y="662"/>
      <point x="134" y="723" type="curve"/>
      <point x="75" y="723"/>
      <point x="131" y="723"/>
    </contour>
    <contour>
      <point x="336" y="426" type="curve"/>
      <point x="336" y="509"/>
      <point x="336" y="585"/>
      <point x="336" y="668" type="curve"/>
      <point x="336" y="744"/>
      <point x="279" y="773"/>
      <point x="202" y="773" type="curve"/>
      <point x="145" y="773"/>
      <point x="104" y="752"/>
      <point x="72" y="723" type="curve"/>
      <point x="101" y="675"/>
      <point x="75" y="720"/>
      <point x="104" y="671" type="curve"/>
      <point x="124" y="690"/>
      <point x="151" y="710"/>
      <point x="191" y="710" type="curve"/>
      <point x="230" y="710"/>
      <point x="257" y="694"/>
      <point x="257" y="657" type="curve"/>
      <point x="257" y="577"/>
      <point x="257" y="505"/>
      <point x="257" y="426" type="curve"/>
      <point x="332" y="426"/>
      <point x="261" y="426"/>
    </contour>
    <contour>
      <point x="298" y="426" type="curve"/>
      <point x="324" y="426"/>
      <point x="349" y="426"/>
      <point x="376" y="426" type="curve"/>
      <point x="376" y="483"/>
      <point x="376" y="429"/>
      <point x="376" y="486" type="curve"/>
      <point x="306" y="486"/>
      <point x="368" y="486"/>
      <point x="298" y="486" type="curve"/>
      <point x="298" y="429"/>
      <point x="298" y="483"/>
    </contour>
    <contour>
      <point x="294" y="647" type="curve"/>
      <point x="250" y="642"/>
      <point x="223" y="640"/>
      <point x="178" y="634" type="curve"/>
      <point x="105" y="624"/>
      <point x="53" y="598"/>
      <point x="53" y="529" type="curve"/>
      <point x="53" y="459"/>
      <point x="97" y="422"/>
      <point x="169" y="422" type="curve"/>
      <point x="240" y="422"/>
      <point x="271" y="470"/>
      <point x="315" y="521" type="curve"/>
      <point x="278" y="552"/>
      <point x="313" y="523"/>
      <point x="276" y="554" type="curve"/>
      <point x="251" y="515"/>
      <point x="230" y="483"/>
      <point x="186" y="483" type="curve"/>
      <point x="150" y="483"/>
      <point x="130" y="499"/>
      <point x="130" y="531" type="curve"/>
      <point x="130" y="560"/>
      <point x="152" y="575"/>
      <point x="179" y="579" type="curve"/>
      <point x="225" y="585"/>
      <point x="251" y="589"/>
      <point x="297" y="596" type="curve"/>
      <point x="295" y="644"/>
      <point x="297" y="599"/>
    </contour>
  </outline>
</glyph>
<glyph name="guillemotleft" format="1">
  <advance width="534"/>
  <unicode hex="00AB"/>
  <outline>
    <contour>
      <point x="247" y="466" type="curve"/>
      <point x="209" y="439"/>
      <point x="91" y="366"/>
      <point x="53" y="340" type="curve"/>
      <point x="53" y="240"/>
      <point x="53" y="329"/>
      <point x="53" y="229" type="curve"/>
      <point x="91" y="256"/>
      <point x="209" y="335"/>
      <point x="247" y="361" type="curve"/>
      <point x="247" y="460"/>
      <point x="247" y="367"/>
    </contour>
    <contour>
      <point x="247" y="210" type="curve"/>
      <point x="209" y="236"/>
      <point x="91" y="313"/>
      <point x="53" y="340" type="curve"/>
      <point x="53" y="240"/>
      <point x="53" y="329"/>
      <point x="53" y="229" type="curve"/>
      <point x="91" y="203"/>
      <point x="209" y="131"/>
      <point x="247" y="105" type="curve"/>
      <point x="247" y="204"/>
      <point x="247" y="111"/>
    </contour>
    <contour>
      <point x="458" y="466" type="curve"/>
      <point x="420" y="439"/>
      <point x="302" y="366"/>
      <point x="264" y="340" type="curve"/>
      <point x="264" y="240"/>
      <point x="264" y="329"/>
      <point x="264" y="229" type="curve"/>
      <point x="302" y="256"/>
      <point x="420" y="335"/>
      <point x="458" y="361" type="curve"/>
      <point x="458" y="460"/>
      <point x="458" y="367"/>
    </contour>
    <contour>
      <point x="458" y="210" type="curve"/>
      <point x="420" y="236"/>
      <point x="302" y="313"/>
      <point x="264" y="340" type="curve"/>
      <point x="264" y="240"/>
      <point x="264" y="329"/>
      <point x="264" y="229" type="curve"/>
      <point x="302" y="203"/>
      <point x="420" y="131"/>
      <point x="458" y="105" type="curve"/>
      <point x="458" y="204"/>
      <point x="458" y="111"/>
    </contour>
  </outline>
</glyph>
<glyph name="logicalnot" format="1">
  <advance width="614"/>
  <unicode hex="00AC"/>
  <outline>
    <contour>
      <point x="81" y="264" type="curve"/>
      <point x="540" y="264" type="line"/>
      <point x="540" y="363"/>
      <point x="540" y="264"/>
      <point x="540" y="363" type="curve"/>
      <point x="81" y="363" type="line"/>
      <point x="81" y="264"/>
      <point x="81" y="363"/>
    </contour>
    <contour>
      <point x="540" y="142" type="curve"/>
      <point x="540" y="363" type="line"/>
      <point x="423" y="363"/>
      <point x="543" y="363"/>
      <point x="425" y="363" type="curve"/>
      <point x="425" y="142" type="line"/>
      <point x="543" y="142"/>
      <point x="423" y="142"/>
    </contour>
  </outline>
</glyph>
<glyph name="registered" format="1">
  <advance width="758"/>
  <unicode hex="00AE"/>
  <outline>
    <contour>
      <point x="139" y="322" type="curve"/>
      <point x="139" y="478"/>
      <point x="229" y="578"/>
      <point x="382" y="578" type="curve"/>
      <point x="533" y="578"/>
      <point x="619" y="475"/>
      <point x="619" y="320" type="curve"/>
      <point x="619" y="169"/>
      <point x="536" y="68"/>
      <point x="389" y="68" type="curve"/>
      <point x="234" y="68"/>
      <point x="139" y="165"/>
      <point x="139" y="322" type="curve"/>
      <point x="105" y="322"/>
      <point x="91" y="322"/>
      <point x="56" y="322" type="curve"/>
      <point x="56" y="123"/>
      <point x="185" y="2"/>
      <point x="385" y="2" type="curve"/>
      <point x="581" y="2"/>
      <point x="701" y="127"/>
      <point x="701" y="323" type="curve"/>
      <point x="701" y="521"/>
      <point x="579" y="644"/>
      <point x="382" y="644" type="curve"/>
      <point x="182" y="644"/>
      <point x="56" y="522"/>
      <point x="56" y="322" type="curve"/>
      <point x="91" y="322"/>
      <point x="105" y="322"/>
    </contour>
    <contour>
      <point x="455" y="143" type="curve"/>
      <point x="488" y="143"/>
      <point x="502" y="143"/>
      <point x="536" y="143" type="curve"/>
      <point x="536" y="216"/>
      <point x="536" y="143"/>
      <point x="536" y="216" type="curve"/>
      <point x="525" y="216"/>
      <point x="521" y="216"/>
      <point x="511" y="216" type="curve"/>
      <point x="463" y="206"/>
      <point x="478" y="229"/>
    </contour>
    <contour>
      <point x="362" y="505" type="curve"/>
      <point x="319" y="505"/>
      <point x="280" y="505"/>
      <point x="237" y="505" type="curve"/>
      <point x="237" y="431"/>
      <point x="237" y="505"/>
      <point x="237" y="431" type="curve"/>
      <point x="248" y="431"/>
      <point x="256" y="431"/>
      <point x="266" y="431" type="curve"/>
      <point x="362" y="505"/>
      <point x="266" y="431"/>
    </contour>
    <contour>
      <point x="362" y="216" type="curve"/>
      <point x="319" y="216"/>
      <point x="280" y="216"/>
      <point x="237" y="216" type="curve"/>
      <point x="237" y="143"/>
      <point x="237" y="216"/>
      <point x="237" y="143" type="curve"/>
      <point x="248" y="143"/>
      <point x="256" y="143"/>
      <point x="266" y="143" type="curve"/>
      <point x="362" y="216"/>
      <point x="266" y="143"/>
    </contour>
    <contour>
      <point x="266" y="143" type="curve"/>
      <point x="306" y="143"/>
      <point x="342" y="143"/>
      <point x="381" y="143" type="curve"/>
      <point x="381" y="216"/>
      <point x="381" y="143"/>
      <point x="381" y="216" type="curve"/>
      <point x="374" y="216"/>
      <point x="369" y="216"/>
      <point x="362" y="216" type="curve"/>
      <point x="266" y="143"/>
      <point x="362" y="216"/>
    </contour>
    <contour>
      <point x="357" y="317" type="curve"/>
      <point x="373" y="293"/>
      <point x="439" y="167"/>
      <point x="455" y="143" type="curve"/>
      <point x="514" y="184"/>
      <point x="484" y="160"/>
      <point x="511" y="216" type="curve"/>
      <point x="453" y="313" type="line"/>
      <point x="336" y="313"/>
      <point x="473" y="317"/>
    </contour>
    <contour>
      <point x="355" y="216" type="curve"/>
      <point x="355" y="312"/>
      <point x="355" y="409"/>
      <point x="355" y="505" type="curve"/>
      <point x="260" y="431"/>
      <point x="362" y="505"/>
      <point x="266" y="431" type="curve"/>
      <point x="266" y="335"/>
      <point x="266" y="239"/>
      <point x="266" y="143" type="curve"/>
      <point x="362" y="216"/>
      <point x="260" y="143"/>
    </contour>
    <contour>
      <point x="316" y="275" type="curve"/>
      <point x="333" y="275"/>
      <point x="350" y="275"/>
      <point x="366" y="275" type="curve"/>
      <point x="452" y="275"/>
      <point x="511" y="308"/>
      <point x="511" y="392" type="curve"/>
      <point x="511" y="464"/>
      <point x="460" y="505"/>
      <point x="386" y="505" type="curve"/>
      <point x="378" y="505"/>
      <point x="369" y="505"/>
      <point x="362" y="505" type="curve"/>
      <point x="266" y="431"/>
      <point x="362" y="505"/>
      <point x="266" y="431" type="curve"/>
      <point x="300" y="431"/>
      <point x="335" y="431"/>
      <point x="369" y="431" type="curve"/>
      <point x="401" y="431"/>
      <point x="424" y="419"/>
      <point x="424" y="388" type="curve"/>
      <point x="424" y="361"/>
      <point x="407" y="348"/>
      <point x="380" y="348" type="curve"/>
      <point x="358" y="348"/>
      <point x="337" y="348"/>
      <point x="316" y="348" type="curve"/>
      <point x="316" y="275"/>
      <point x="316" y="348"/>
    </contour>
  </outline>
</glyph>
<glyph name="macron" format="1">
  <advance width="288"/>
  <unicode hex="00AF"/>
  <outline>
    <contour>
      <point x="232" y="678" type="curve"/>
      <point x="165" y="678"/>
      <point x="98" y="678"/>
      <point x="31" y="678" type="curve"/>
      <point x="31" y="588"/>
      <point x="31" y="678"/>
      <point x="31" y="588" type="curve"/>
      <point x="98" y="588"/>
      <point x="165" y="588"/>
      <point x="232" y="588" type="curve"/>
      <point x="232" y="678"/>
      <point x="232" y="588"/>
    </contour>
    <contour>
      <point x="133" y="588" type="move" name="_top"/>
    </contour>
  </outline>
</glyph>
<glyph name="degree" format="1">
  <advance width="474"/>
  <unicode hex="00B0"/>
  <outline>
    <contour>
      <point x="416" y="549" type="curve"/>
      <point x="416" y="664"/>
      <point x="349" y="736"/>
      <point x="236" y="736" type="curve"/>
      <point x="124" y="736"/>
      <point x="58" y="664"/>
      <point x="58" y="550" type="curve"/>
      <point x="116" y="550"/>
      <point x="98" y="550"/>
      <point x="156" y="550" type="curve"/>
      <point x="156" y="609"/>
      <point x="179" y="653"/>
      <point x="235" y="653" type="curve"/>
      <point x="290" y="653"/>
      <point x="315" y="609"/>
      <point x="315" y="549" type="curve"/>
      <point x="315" y="489"/>
      <point x="293" y="443"/>
      <point x="237" y="443" type="curve"/>
      <point x="180" y="443"/>
      <point x="156" y="489"/>
      <point x="156" y="550" type="curve"/>
      <point x="98" y="550"/>
      <point x="116" y="550"/>
      <point x="58" y="550" type="curve"/>
      <point x="58" y="435"/>
      <point x="122" y="359"/>
      <point x="236" y="359" type="curve"/>
      <point x="350" y="359"/>
      <point x="416" y="434"/>
    </contour>
  </outline>
</glyph>
<glyph name="plusminus" format="1">
  <advance width="668"/>
  <unicode hex="00B1"/>
  <outline>
    <contour>
      <point x="61" y="39" type="line"/>
      <point x="607" y="39" type="line"/>
      <point x="607" y="138" type="line"/>
      <point x="61" y="138" type="line"/>
    </contour>
    <contour>
      <point x="61" y="264" type="curve"/>
      <point x="607" y="264" type="line"/>
      <point x="607" y="363"/>
      <point x="607" y="264"/>
      <point x="607" y="363" type="curve"/>
      <point x="61" y="363" type="line"/>
      <point x="61" y="264"/>
      <point x="61" y="363"/>
    </contour>
    <contour>
      <point x="390" y="40" type="curve"/>
      <point x="390" y="582" type="line"/>
      <point x="272" y="582"/>
      <point x="397" y="582"/>
      <point x="280" y="582" type="curve"/>
      <point x="280" y="40" type="line"/>
      <point x="397" y="40"/>
      <point x="272" y="40"/>
    </contour>
  </outline>
</glyph>
<glyph name="twosuperior" format="1">
  <advance width="459"/>
  <unicode hex="00B2"/>
  <outline>
    <contour>
      <point x="402" y="341" type="curve"/>
      <point x="402" y="386"/>
      <point x="402" y="425"/>
      <point x="402" y="471" type="curve"/>
      <point x="316" y="471"/>
      <point x="413" y="471"/>
      <point x="327" y="471" type="curve"/>
      <point x="327" y="452"/>
      <point x="327" y="438"/>
      <point x="327" y="419" type="curve"/>
      <point x="415" y="344"/>
      <point x="313" y="416"/>
    </contour>
    <contour>
      <point x="66" y="341" type="curve"/>
      <point x="186" y="341"/>
      <point x="304" y="341"/>
      <point x="402" y="341" type="curve"/>
      <point x="313" y="416"/>
      <point x="415" y="344"/>
      <point x="327" y="419" type="curve"/>
      <point x="244" y="419"/>
      <point x="149" y="419"/>
      <point x="66" y="419" type="curve"/>
      <point x="66" y="341"/>
      <point x="66" y="419"/>
    </contour>
    <contour>
      <point x="154" y="639" type="curve"/>
      <point x="171" y="672"/>
      <point x="190" y="696"/>
      <point x="226" y="696" type="curve"/>
      <point x="264" y="696"/>
      <point x="285" y="672"/>
      <point x="285" y="635" type="curve"/>
      <point x="285" y="597"/>
      <point x="260" y="577"/>
      <point x="232" y="551" type="curve"/>
      <point x="177" y="507"/>
      <point x="121" y="463"/>
      <point x="66" y="419" type="curve"/>
      <point x="68" y="342"/>
      <point x="67" y="419"/>
      <point x="69" y="342" type="curve"/>
      <point x="147" y="395"/>
      <point x="232" y="441"/>
      <point x="293" y="490" type="curve"/>
      <point x="343" y="536"/>
      <point x="383" y="571"/>
      <point x="383" y="639" type="curve"/>
      <point x="383" y="725"/>
      <point x="323" y="773"/>
      <point x="233" y="773" type="curve"/>
      <point x="162" y="773"/>
      <point x="110" y="746"/>
      <point x="82" y="672" type="curve"/>
      <point x="154" y="639"/>
      <point x="82" y="672"/>
    </contour>
    <contour>
      <point x="237" y="773" type="move" name="_top"/>
    </contour>
    <contour>
      <point x="229" y="341" type="move" name="_bottom"/>
    </contour>
  </outline>
</glyph>
<glyph name="threesuperior" format="1">
  <advance width="414"/>
  <unicode hex="00B3"/>
  <outline>
    <contour>
      <point x="113" y="660" type="curve"/>
      <point x="134" y="680"/>
      <point x="156" y="694"/>
      <point x="181" y="694" type="curve"/>
      <point x="217" y="694"/>
      <point x="240" y="676"/>
      <point x="240" y="643" type="curve"/>
      <point x="240" y="603"/>
      <point x="193" y="592"/>
      <point x="145" y="589" type="curve"/>
      <point x="145" y="523"/>
      <point x="145" y="589"/>
      <point x="145" y="523" type="curve"/>
      <point x="252" y="526"/>
      <point x="342" y="555"/>
      <point x="342" y="649" type="curve"/>
      <point x="342" y="732"/>
      <point x="279" y="771"/>
      <point x="191" y="771" type="curve"/>
      <point x="139" y="771"/>
      <point x="91" y="748"/>
      <point x="59" y="712" type="curve"/>
      <point x="113" y="660"/>
      <point x="59" y="712"/>
    </contour>
    <contour>
      <point x="57" y="371" type="curve"/>
      <point x="94" y="348"/>
      <point x="131" y="334"/>
      <point x="174" y="334" type="curve"/>
      <point x="280" y="332"/>
      <point x="357" y="370"/>
      <point x="356" y="466" type="curve"/>
      <point x="356" y="564"/>
      <point x="256" y="577"/>
      <point x="145" y="580" type="curve"/>
      <point x="145" y="522"/>
      <point x="145" y="580"/>
      <point x="145" y="522" type="curve"/>
      <point x="203" y="519"/>
      <point x="254" y="506"/>
      <point x="254" y="463" type="curve"/>
      <point x="254" y="426"/>
      <point x="224" y="408"/>
      <point x="183" y="409" type="curve"/>
      <point x="156" y="409"/>
      <point x="131" y="415"/>
      <point x="104" y="430" type="curve"/>
      <point x="57" y="371"/>
      <point x="104" y="430"/>
    </contour>
    <contour>
      <point x="203" y="771" type="move" name="_top"/>
    </contour>
    <contour>
      <point x="197" y="334" type="move" name="_bottom"/>
    </contour>
  </outline>
</glyph>
